G04 #@! TF.GenerationSoftware,KiCad,Pcbnew,5.0.2-bee76a0~70~ubuntu18.04.1*
G04 #@! TF.CreationDate,2018-12-20T01:02:46+01:00*
G04 #@! TF.ProjectId,eload,656c6f61-642e-46b6-9963-61645f706362,rev?*
G04 #@! TF.SameCoordinates,Original*
G04 #@! TF.FileFunction,Legend,Top*
G04 #@! TF.FilePolarity,Positive*
%FSLAX46Y46*%
G04 Gerber Fmt 4.6, Leading zero omitted, Abs format (unit mm)*
G04 Created by KiCad (PCBNEW 5.0.2-bee76a0~70~ubuntu18.04.1) date Do 20 Dez 2018 01:02:46 CET*
%MOMM*%
%LPD*%
G01*
G04 APERTURE LIST*
%ADD10C,0.300000*%
%ADD11C,0.200660*%
%ADD12C,0.120000*%
%ADD13C,0.150000*%
%ADD14C,0.254000*%
%ADD15C,0.152400*%
G04 APERTURE END LIST*
D10*
X80161142Y-144442571D02*
X79446857Y-144442571D01*
X79446857Y-142942571D01*
X80946857Y-142942571D02*
X81232571Y-142942571D01*
X81375428Y-143014000D01*
X81518285Y-143156857D01*
X81589714Y-143442571D01*
X81589714Y-143942571D01*
X81518285Y-144228285D01*
X81375428Y-144371142D01*
X81232571Y-144442571D01*
X80946857Y-144442571D01*
X80804000Y-144371142D01*
X80661142Y-144228285D01*
X80589714Y-143942571D01*
X80589714Y-143442571D01*
X80661142Y-143156857D01*
X80804000Y-143014000D01*
X80946857Y-142942571D01*
X82161142Y-144014000D02*
X82875428Y-144014000D01*
X82018285Y-144442571D02*
X82518285Y-142942571D01*
X83018285Y-144442571D01*
X83518285Y-144442571D02*
X83518285Y-142942571D01*
X83875428Y-142942571D01*
X84089714Y-143014000D01*
X84232571Y-143156857D01*
X84304000Y-143299714D01*
X84375428Y-143585428D01*
X84375428Y-143799714D01*
X84304000Y-144085428D01*
X84232571Y-144228285D01*
X84089714Y-144371142D01*
X83875428Y-144442571D01*
X83518285Y-144442571D01*
X85018285Y-143871142D02*
X86161142Y-143871142D01*
X80161142Y-120566571D02*
X79446857Y-120566571D01*
X79446857Y-119066571D01*
X80946857Y-119066571D02*
X81232571Y-119066571D01*
X81375428Y-119138000D01*
X81518285Y-119280857D01*
X81589714Y-119566571D01*
X81589714Y-120066571D01*
X81518285Y-120352285D01*
X81375428Y-120495142D01*
X81232571Y-120566571D01*
X80946857Y-120566571D01*
X80804000Y-120495142D01*
X80661142Y-120352285D01*
X80589714Y-120066571D01*
X80589714Y-119566571D01*
X80661142Y-119280857D01*
X80804000Y-119138000D01*
X80946857Y-119066571D01*
X82161142Y-120138000D02*
X82875428Y-120138000D01*
X82018285Y-120566571D02*
X82518285Y-119066571D01*
X83018285Y-120566571D01*
X83518285Y-120566571D02*
X83518285Y-119066571D01*
X83875428Y-119066571D01*
X84089714Y-119138000D01*
X84232571Y-119280857D01*
X84304000Y-119423714D01*
X84375428Y-119709428D01*
X84375428Y-119923714D01*
X84304000Y-120209428D01*
X84232571Y-120352285D01*
X84089714Y-120495142D01*
X83875428Y-120566571D01*
X83518285Y-120566571D01*
X85018285Y-119995142D02*
X86161142Y-119995142D01*
X85589714Y-120566571D02*
X85589714Y-119423714D01*
X145748571Y-85538571D02*
X146677142Y-85538571D01*
X146177142Y-86110000D01*
X146391428Y-86110000D01*
X146534285Y-86181428D01*
X146605714Y-86252857D01*
X146677142Y-86395714D01*
X146677142Y-86752857D01*
X146605714Y-86895714D01*
X146534285Y-86967142D01*
X146391428Y-87038571D01*
X145962857Y-87038571D01*
X145820000Y-86967142D01*
X145748571Y-86895714D01*
X147320000Y-86895714D02*
X147391428Y-86967142D01*
X147320000Y-87038571D01*
X147248571Y-86967142D01*
X147320000Y-86895714D01*
X147320000Y-87038571D01*
X147891428Y-85538571D02*
X148820000Y-85538571D01*
X148320000Y-86110000D01*
X148534285Y-86110000D01*
X148677142Y-86181428D01*
X148748571Y-86252857D01*
X148820000Y-86395714D01*
X148820000Y-86752857D01*
X148748571Y-86895714D01*
X148677142Y-86967142D01*
X148534285Y-87038571D01*
X148105714Y-87038571D01*
X147962857Y-86967142D01*
X147891428Y-86895714D01*
X144030000Y-81395142D02*
X143958571Y-81538000D01*
X143958571Y-81752285D01*
X144030000Y-81966571D01*
X144172857Y-82109428D01*
X144315714Y-82180857D01*
X144601428Y-82252285D01*
X144815714Y-82252285D01*
X145101428Y-82180857D01*
X145244285Y-82109428D01*
X145387142Y-81966571D01*
X145458571Y-81752285D01*
X145458571Y-81609428D01*
X145387142Y-81395142D01*
X145315714Y-81323714D01*
X144815714Y-81323714D01*
X144815714Y-81609428D01*
X141418571Y-82216571D02*
X141418571Y-81359428D01*
X142918571Y-81788000D02*
X141418571Y-81788000D01*
X140378571Y-81323714D02*
X139664285Y-81823714D01*
X140378571Y-82180857D02*
X138878571Y-82180857D01*
X138878571Y-81609428D01*
X138950000Y-81466571D01*
X139021428Y-81395142D01*
X139164285Y-81323714D01*
X139378571Y-81323714D01*
X139521428Y-81395142D01*
X139592857Y-81466571D01*
X139664285Y-81609428D01*
X139664285Y-82180857D01*
X136981428Y-81930857D02*
X136910000Y-82073714D01*
X136838571Y-82145142D01*
X136695714Y-82216571D01*
X136624285Y-82216571D01*
X136481428Y-82145142D01*
X136410000Y-82073714D01*
X136338571Y-81930857D01*
X136338571Y-81645142D01*
X136410000Y-81502285D01*
X136481428Y-81430857D01*
X136624285Y-81359428D01*
X136695714Y-81359428D01*
X136838571Y-81430857D01*
X136910000Y-81502285D01*
X136981428Y-81645142D01*
X136981428Y-81930857D01*
X137052857Y-82073714D01*
X137124285Y-82145142D01*
X137267142Y-82216571D01*
X137552857Y-82216571D01*
X137695714Y-82145142D01*
X137767142Y-82073714D01*
X137838571Y-81930857D01*
X137838571Y-81645142D01*
X137767142Y-81502285D01*
X137695714Y-81430857D01*
X137552857Y-81359428D01*
X137267142Y-81359428D01*
X137124285Y-81430857D01*
X137052857Y-81502285D01*
X136981428Y-81645142D01*
X133798571Y-82288000D02*
X133798571Y-81288000D01*
X135298571Y-81930857D01*
X131258571Y-81502285D02*
X131258571Y-81788000D01*
X131330000Y-81930857D01*
X131401428Y-82002285D01*
X131615714Y-82145142D01*
X131901428Y-82216571D01*
X132472857Y-82216571D01*
X132615714Y-82145142D01*
X132687142Y-82073714D01*
X132758571Y-81930857D01*
X132758571Y-81645142D01*
X132687142Y-81502285D01*
X132615714Y-81430857D01*
X132472857Y-81359428D01*
X132115714Y-81359428D01*
X131972857Y-81430857D01*
X131901428Y-81502285D01*
X131830000Y-81645142D01*
X131830000Y-81930857D01*
X131901428Y-82073714D01*
X131972857Y-82145142D01*
X132115714Y-82216571D01*
X128718571Y-81430857D02*
X128718571Y-82145142D01*
X129432857Y-82216571D01*
X129361428Y-82145142D01*
X129290000Y-82002285D01*
X129290000Y-81645142D01*
X129361428Y-81502285D01*
X129432857Y-81430857D01*
X129575714Y-81359428D01*
X129932857Y-81359428D01*
X130075714Y-81430857D01*
X130147142Y-81502285D01*
X130218571Y-81645142D01*
X130218571Y-82002285D01*
X130147142Y-82145142D01*
X130075714Y-82216571D01*
X126250000Y-81395142D02*
X126178571Y-81538000D01*
X126178571Y-81752285D01*
X126250000Y-81966571D01*
X126392857Y-82109428D01*
X126535714Y-82180857D01*
X126821428Y-82252285D01*
X127035714Y-82252285D01*
X127321428Y-82180857D01*
X127464285Y-82109428D01*
X127607142Y-81966571D01*
X127678571Y-81752285D01*
X127678571Y-81609428D01*
X127607142Y-81395142D01*
X127535714Y-81323714D01*
X127035714Y-81323714D01*
X127035714Y-81609428D01*
X122888571Y-85538571D02*
X123817142Y-85538571D01*
X123317142Y-86110000D01*
X123531428Y-86110000D01*
X123674285Y-86181428D01*
X123745714Y-86252857D01*
X123817142Y-86395714D01*
X123817142Y-86752857D01*
X123745714Y-86895714D01*
X123674285Y-86967142D01*
X123531428Y-87038571D01*
X123102857Y-87038571D01*
X122960000Y-86967142D01*
X122888571Y-86895714D01*
X124460000Y-86895714D02*
X124531428Y-86967142D01*
X124460000Y-87038571D01*
X124388571Y-86967142D01*
X124460000Y-86895714D01*
X124460000Y-87038571D01*
X125031428Y-85538571D02*
X125960000Y-85538571D01*
X125460000Y-86110000D01*
X125674285Y-86110000D01*
X125817142Y-86181428D01*
X125888571Y-86252857D01*
X125960000Y-86395714D01*
X125960000Y-86752857D01*
X125888571Y-86895714D01*
X125817142Y-86967142D01*
X125674285Y-87038571D01*
X125245714Y-87038571D01*
X125102857Y-86967142D01*
X125031428Y-86895714D01*
X121598571Y-81502285D02*
X122598571Y-81502285D01*
X121027142Y-81859428D02*
X122098571Y-82216571D01*
X122098571Y-81288000D01*
X118558571Y-82288000D02*
X118558571Y-81359428D01*
X119130000Y-81859428D01*
X119130000Y-81645142D01*
X119201428Y-81502285D01*
X119272857Y-81430857D01*
X119415714Y-81359428D01*
X119772857Y-81359428D01*
X119915714Y-81430857D01*
X119987142Y-81502285D01*
X120058571Y-81645142D01*
X120058571Y-82073714D01*
X119987142Y-82216571D01*
X119915714Y-82288000D01*
X116161428Y-82216571D02*
X116090000Y-82145142D01*
X116018571Y-82002285D01*
X116018571Y-81645142D01*
X116090000Y-81502285D01*
X116161428Y-81430857D01*
X116304285Y-81359428D01*
X116447142Y-81359428D01*
X116661428Y-81430857D01*
X117518571Y-82288000D01*
X117518571Y-81359428D01*
X114978571Y-81359428D02*
X114978571Y-82216571D01*
X114978571Y-81788000D02*
X113478571Y-81788000D01*
X113692857Y-81930857D01*
X113835714Y-82073714D01*
X113907142Y-82216571D01*
X110938571Y-81859428D02*
X110938571Y-81716571D01*
X111010000Y-81573714D01*
X111081428Y-81502285D01*
X111224285Y-81430857D01*
X111510000Y-81359428D01*
X111867142Y-81359428D01*
X112152857Y-81430857D01*
X112295714Y-81502285D01*
X112367142Y-81573714D01*
X112438571Y-81716571D01*
X112438571Y-81859428D01*
X112367142Y-82002285D01*
X112295714Y-82073714D01*
X112152857Y-82145142D01*
X111867142Y-82216571D01*
X111510000Y-82216571D01*
X111224285Y-82145142D01*
X111081428Y-82073714D01*
X111010000Y-82002285D01*
X110938571Y-81859428D01*
X147514571Y-112553714D02*
X147514571Y-113268000D01*
X148228857Y-113339428D01*
X148157428Y-113268000D01*
X148086000Y-113125142D01*
X148086000Y-112768000D01*
X148157428Y-112625142D01*
X148228857Y-112553714D01*
X148371714Y-112482285D01*
X148728857Y-112482285D01*
X148871714Y-112553714D01*
X148943142Y-112625142D01*
X149014571Y-112768000D01*
X149014571Y-113125142D01*
X148943142Y-113268000D01*
X148871714Y-113339428D01*
X147514571Y-112053714D02*
X149014571Y-111553714D01*
X147514571Y-111053714D01*
X145046000Y-111367142D02*
X144974571Y-111510000D01*
X144974571Y-111724285D01*
X145046000Y-111938571D01*
X145188857Y-112081428D01*
X145331714Y-112152857D01*
X145617428Y-112224285D01*
X145831714Y-112224285D01*
X146117428Y-112152857D01*
X146260285Y-112081428D01*
X146403142Y-111938571D01*
X146474571Y-111724285D01*
X146474571Y-111581428D01*
X146403142Y-111367142D01*
X146331714Y-111295714D01*
X145831714Y-111295714D01*
X145831714Y-111581428D01*
X141394571Y-113597428D02*
X140680285Y-114097428D01*
X141394571Y-114454571D02*
X139894571Y-114454571D01*
X139894571Y-113883142D01*
X139966000Y-113740285D01*
X140037428Y-113668857D01*
X140180285Y-113597428D01*
X140394571Y-113597428D01*
X140537428Y-113668857D01*
X140608857Y-113740285D01*
X140680285Y-113883142D01*
X140680285Y-114454571D01*
X141323142Y-113026000D02*
X141394571Y-112811714D01*
X141394571Y-112454571D01*
X141323142Y-112311714D01*
X141251714Y-112240285D01*
X141108857Y-112168857D01*
X140966000Y-112168857D01*
X140823142Y-112240285D01*
X140751714Y-112311714D01*
X140680285Y-112454571D01*
X140608857Y-112740285D01*
X140537428Y-112883142D01*
X140466000Y-112954571D01*
X140323142Y-113026000D01*
X140180285Y-113026000D01*
X140037428Y-112954571D01*
X139966000Y-112883142D01*
X139894571Y-112740285D01*
X139894571Y-112383142D01*
X139966000Y-112168857D01*
X139894571Y-111740285D02*
X139894571Y-110883142D01*
X141394571Y-111311714D02*
X139894571Y-111311714D01*
X143148857Y-113375142D02*
X143148857Y-112875142D01*
X143934571Y-112660857D02*
X143934571Y-113375142D01*
X142434571Y-113375142D01*
X142434571Y-112660857D01*
X143934571Y-112018000D02*
X142434571Y-112018000D01*
X143934571Y-111160857D01*
X142434571Y-111160857D01*
X137354571Y-114347428D02*
X137354571Y-113418857D01*
X137926000Y-113918857D01*
X137926000Y-113704571D01*
X137997428Y-113561714D01*
X138068857Y-113490285D01*
X138211714Y-113418857D01*
X138568857Y-113418857D01*
X138711714Y-113490285D01*
X138783142Y-113561714D01*
X138854571Y-113704571D01*
X138854571Y-114133142D01*
X138783142Y-114276000D01*
X138711714Y-114347428D01*
X138711714Y-112776000D02*
X138783142Y-112704571D01*
X138854571Y-112776000D01*
X138783142Y-112847428D01*
X138711714Y-112776000D01*
X138854571Y-112776000D01*
X137354571Y-112204571D02*
X137354571Y-111276000D01*
X137926000Y-111776000D01*
X137926000Y-111561714D01*
X137997428Y-111418857D01*
X138068857Y-111347428D01*
X138211714Y-111276000D01*
X138568857Y-111276000D01*
X138711714Y-111347428D01*
X138783142Y-111418857D01*
X138854571Y-111561714D01*
X138854571Y-111990285D01*
X138783142Y-112133142D01*
X138711714Y-112204571D01*
X134886000Y-111367142D02*
X134814571Y-111510000D01*
X134814571Y-111724285D01*
X134886000Y-111938571D01*
X135028857Y-112081428D01*
X135171714Y-112152857D01*
X135457428Y-112224285D01*
X135671714Y-112224285D01*
X135957428Y-112152857D01*
X136100285Y-112081428D01*
X136243142Y-111938571D01*
X136314571Y-111724285D01*
X136314571Y-111581428D01*
X136243142Y-111367142D01*
X136171714Y-111295714D01*
X135671714Y-111295714D01*
X135671714Y-111581428D01*
X133703142Y-113446571D02*
X133774571Y-113232285D01*
X133774571Y-112875142D01*
X133703142Y-112732285D01*
X133631714Y-112660857D01*
X133488857Y-112589428D01*
X133346000Y-112589428D01*
X133203142Y-112660857D01*
X133131714Y-112732285D01*
X133060285Y-112875142D01*
X132988857Y-113160857D01*
X132917428Y-113303714D01*
X132846000Y-113375142D01*
X132703142Y-113446571D01*
X132560285Y-113446571D01*
X132417428Y-113375142D01*
X132346000Y-113303714D01*
X132274571Y-113160857D01*
X132274571Y-112803714D01*
X132346000Y-112589428D01*
X133774571Y-111946571D02*
X132274571Y-111946571D01*
X133774571Y-111089428D02*
X132917428Y-111732285D01*
X132274571Y-111089428D02*
X133131714Y-111946571D01*
X131163142Y-113482285D02*
X131234571Y-113268000D01*
X131234571Y-112910857D01*
X131163142Y-112768000D01*
X131091714Y-112696571D01*
X130948857Y-112625142D01*
X130806000Y-112625142D01*
X130663142Y-112696571D01*
X130591714Y-112768000D01*
X130520285Y-112910857D01*
X130448857Y-113196571D01*
X130377428Y-113339428D01*
X130306000Y-113410857D01*
X130163142Y-113482285D01*
X130020285Y-113482285D01*
X129877428Y-113410857D01*
X129806000Y-113339428D01*
X129734571Y-113196571D01*
X129734571Y-112839428D01*
X129806000Y-112625142D01*
X129734571Y-111696571D02*
X129734571Y-111410857D01*
X129806000Y-111268000D01*
X129948857Y-111125142D01*
X130234571Y-111053714D01*
X130734571Y-111053714D01*
X131020285Y-111125142D01*
X131163142Y-111268000D01*
X131234571Y-111410857D01*
X131234571Y-111696571D01*
X131163142Y-111839428D01*
X131020285Y-111982285D01*
X130734571Y-112053714D01*
X130234571Y-112053714D01*
X129948857Y-111982285D01*
X129806000Y-111839428D01*
X129734571Y-111696571D01*
X128623142Y-113446571D02*
X128694571Y-113232285D01*
X128694571Y-112875142D01*
X128623142Y-112732285D01*
X128551714Y-112660857D01*
X128408857Y-112589428D01*
X128266000Y-112589428D01*
X128123142Y-112660857D01*
X128051714Y-112732285D01*
X127980285Y-112875142D01*
X127908857Y-113160857D01*
X127837428Y-113303714D01*
X127766000Y-113375142D01*
X127623142Y-113446571D01*
X127480285Y-113446571D01*
X127337428Y-113375142D01*
X127266000Y-113303714D01*
X127194571Y-113160857D01*
X127194571Y-112803714D01*
X127266000Y-112589428D01*
X128551714Y-111089428D02*
X128623142Y-111160857D01*
X128694571Y-111375142D01*
X128694571Y-111518000D01*
X128623142Y-111732285D01*
X128480285Y-111875142D01*
X128337428Y-111946571D01*
X128051714Y-112018000D01*
X127837428Y-112018000D01*
X127551714Y-111946571D01*
X127408857Y-111875142D01*
X127266000Y-111732285D01*
X127194571Y-111518000D01*
X127194571Y-111375142D01*
X127266000Y-111160857D01*
X127337428Y-111089428D01*
X126083142Y-113410857D02*
X126154571Y-113196571D01*
X126154571Y-112839428D01*
X126083142Y-112696571D01*
X126011714Y-112625142D01*
X125868857Y-112553714D01*
X125726000Y-112553714D01*
X125583142Y-112625142D01*
X125511714Y-112696571D01*
X125440285Y-112839428D01*
X125368857Y-113125142D01*
X125297428Y-113268000D01*
X125226000Y-113339428D01*
X125083142Y-113410857D01*
X124940285Y-113410857D01*
X124797428Y-113339428D01*
X124726000Y-113268000D01*
X124654571Y-113125142D01*
X124654571Y-112768000D01*
X124726000Y-112553714D01*
X126154571Y-111125142D02*
X126154571Y-111982285D01*
X126154571Y-111553714D02*
X124654571Y-111553714D01*
X124868857Y-111696571D01*
X125011714Y-111839428D01*
X125083142Y-111982285D01*
X123543142Y-113410857D02*
X123614571Y-113196571D01*
X123614571Y-112839428D01*
X123543142Y-112696571D01*
X123471714Y-112625142D01*
X123328857Y-112553714D01*
X123186000Y-112553714D01*
X123043142Y-112625142D01*
X122971714Y-112696571D01*
X122900285Y-112839428D01*
X122828857Y-113125142D01*
X122757428Y-113268000D01*
X122686000Y-113339428D01*
X122543142Y-113410857D01*
X122400285Y-113410857D01*
X122257428Y-113339428D01*
X122186000Y-113268000D01*
X122114571Y-113125142D01*
X122114571Y-112768000D01*
X122186000Y-112553714D01*
X122257428Y-111982285D02*
X122186000Y-111910857D01*
X122114571Y-111768000D01*
X122114571Y-111410857D01*
X122186000Y-111268000D01*
X122257428Y-111196571D01*
X122400285Y-111125142D01*
X122543142Y-111125142D01*
X122757428Y-111196571D01*
X123614571Y-112053714D01*
X123614571Y-111125142D01*
X121003142Y-113410857D02*
X121074571Y-113196571D01*
X121074571Y-112839428D01*
X121003142Y-112696571D01*
X120931714Y-112625142D01*
X120788857Y-112553714D01*
X120646000Y-112553714D01*
X120503142Y-112625142D01*
X120431714Y-112696571D01*
X120360285Y-112839428D01*
X120288857Y-113125142D01*
X120217428Y-113268000D01*
X120146000Y-113339428D01*
X120003142Y-113410857D01*
X119860285Y-113410857D01*
X119717428Y-113339428D01*
X119646000Y-113268000D01*
X119574571Y-113125142D01*
X119574571Y-112768000D01*
X119646000Y-112553714D01*
X119574571Y-112053714D02*
X119574571Y-111125142D01*
X120146000Y-111625142D01*
X120146000Y-111410857D01*
X120217428Y-111268000D01*
X120288857Y-111196571D01*
X120431714Y-111125142D01*
X120788857Y-111125142D01*
X120931714Y-111196571D01*
X121003142Y-111268000D01*
X121074571Y-111410857D01*
X121074571Y-111839428D01*
X121003142Y-111982285D01*
X120931714Y-112053714D01*
X117034571Y-114347428D02*
X117034571Y-113418857D01*
X117606000Y-113918857D01*
X117606000Y-113704571D01*
X117677428Y-113561714D01*
X117748857Y-113490285D01*
X117891714Y-113418857D01*
X118248857Y-113418857D01*
X118391714Y-113490285D01*
X118463142Y-113561714D01*
X118534571Y-113704571D01*
X118534571Y-114133142D01*
X118463142Y-114276000D01*
X118391714Y-114347428D01*
X118391714Y-112776000D02*
X118463142Y-112704571D01*
X118534571Y-112776000D01*
X118463142Y-112847428D01*
X118391714Y-112776000D01*
X118534571Y-112776000D01*
X117034571Y-112204571D02*
X117034571Y-111276000D01*
X117606000Y-111776000D01*
X117606000Y-111561714D01*
X117677428Y-111418857D01*
X117748857Y-111347428D01*
X117891714Y-111276000D01*
X118248857Y-111276000D01*
X118391714Y-111347428D01*
X118463142Y-111418857D01*
X118534571Y-111561714D01*
X118534571Y-111990285D01*
X118463142Y-112133142D01*
X118391714Y-112204571D01*
X114566000Y-111367142D02*
X114494571Y-111510000D01*
X114494571Y-111724285D01*
X114566000Y-111938571D01*
X114708857Y-112081428D01*
X114851714Y-112152857D01*
X115137428Y-112224285D01*
X115351714Y-112224285D01*
X115637428Y-112152857D01*
X115780285Y-112081428D01*
X115923142Y-111938571D01*
X115994571Y-111724285D01*
X115994571Y-111581428D01*
X115923142Y-111367142D01*
X115851714Y-111295714D01*
X115351714Y-111295714D01*
X115351714Y-111581428D01*
X113026000Y-113339428D02*
X113026000Y-112625142D01*
X113454571Y-113482285D02*
X111954571Y-112982285D01*
X113454571Y-112482285D01*
X111954571Y-111696571D02*
X111954571Y-111553714D01*
X112026000Y-111410857D01*
X112097428Y-111339428D01*
X112240285Y-111268000D01*
X112526000Y-111196571D01*
X112883142Y-111196571D01*
X113168857Y-111268000D01*
X113311714Y-111339428D01*
X113383142Y-111410857D01*
X113454571Y-111553714D01*
X113454571Y-111696571D01*
X113383142Y-111839428D01*
X113311714Y-111910857D01*
X113168857Y-111982285D01*
X112883142Y-112053714D01*
X112526000Y-112053714D01*
X112240285Y-111982285D01*
X112097428Y-111910857D01*
X112026000Y-111839428D01*
X111954571Y-111696571D01*
X63861142Y-92519428D02*
X63861142Y-91376571D01*
X63436571Y-105263142D02*
X64579428Y-105263142D01*
X64008000Y-105834571D02*
X64008000Y-104691714D01*
X145332142Y-92587857D02*
X145832142Y-92587857D01*
X146046428Y-93373571D02*
X145332142Y-93373571D01*
X145332142Y-91873571D01*
X146046428Y-91873571D01*
X146617857Y-93302142D02*
X146832142Y-93373571D01*
X147189285Y-93373571D01*
X147332142Y-93302142D01*
X147403571Y-93230714D01*
X147475000Y-93087857D01*
X147475000Y-92945000D01*
X147403571Y-92802142D01*
X147332142Y-92730714D01*
X147189285Y-92659285D01*
X146903571Y-92587857D01*
X146760714Y-92516428D01*
X146689285Y-92445000D01*
X146617857Y-92302142D01*
X146617857Y-92159285D01*
X146689285Y-92016428D01*
X146760714Y-91945000D01*
X146903571Y-91873571D01*
X147260714Y-91873571D01*
X147475000Y-91945000D01*
X148117857Y-93373571D02*
X148117857Y-91873571D01*
X148689285Y-91873571D01*
X148832142Y-91945000D01*
X148903571Y-92016428D01*
X148975000Y-92159285D01*
X148975000Y-92373571D01*
X148903571Y-92516428D01*
X148832142Y-92587857D01*
X148689285Y-92659285D01*
X148117857Y-92659285D01*
X149832142Y-92516428D02*
X149689285Y-92445000D01*
X149617857Y-92373571D01*
X149546428Y-92230714D01*
X149546428Y-92159285D01*
X149617857Y-92016428D01*
X149689285Y-91945000D01*
X149832142Y-91873571D01*
X150117857Y-91873571D01*
X150260714Y-91945000D01*
X150332142Y-92016428D01*
X150403571Y-92159285D01*
X150403571Y-92230714D01*
X150332142Y-92373571D01*
X150260714Y-92445000D01*
X150117857Y-92516428D01*
X149832142Y-92516428D01*
X149689285Y-92587857D01*
X149617857Y-92659285D01*
X149546428Y-92802142D01*
X149546428Y-93087857D01*
X149617857Y-93230714D01*
X149689285Y-93302142D01*
X149832142Y-93373571D01*
X150117857Y-93373571D01*
X150260714Y-93302142D01*
X150332142Y-93230714D01*
X150403571Y-93087857D01*
X150403571Y-92802142D01*
X150332142Y-92659285D01*
X150260714Y-92587857D01*
X150117857Y-92516428D01*
X150975000Y-92016428D02*
X151046428Y-91945000D01*
X151189285Y-91873571D01*
X151546428Y-91873571D01*
X151689285Y-91945000D01*
X151760714Y-92016428D01*
X151832142Y-92159285D01*
X151832142Y-92302142D01*
X151760714Y-92516428D01*
X150903571Y-93373571D01*
X151832142Y-93373571D01*
X153117857Y-91873571D02*
X152832142Y-91873571D01*
X152689285Y-91945000D01*
X152617857Y-92016428D01*
X152475000Y-92230714D01*
X152403571Y-92516428D01*
X152403571Y-93087857D01*
X152475000Y-93230714D01*
X152546428Y-93302142D01*
X152689285Y-93373571D01*
X152975000Y-93373571D01*
X153117857Y-93302142D01*
X153189285Y-93230714D01*
X153260714Y-93087857D01*
X153260714Y-92730714D01*
X153189285Y-92587857D01*
X153117857Y-92516428D01*
X152975000Y-92445000D01*
X152689285Y-92445000D01*
X152546428Y-92516428D01*
X152475000Y-92587857D01*
X152403571Y-92730714D01*
X154546428Y-91873571D02*
X154260714Y-91873571D01*
X154117857Y-91945000D01*
X154046428Y-92016428D01*
X153903571Y-92230714D01*
X153832142Y-92516428D01*
X153832142Y-93087857D01*
X153903571Y-93230714D01*
X153975000Y-93302142D01*
X154117857Y-93373571D01*
X154403571Y-93373571D01*
X154546428Y-93302142D01*
X154617857Y-93230714D01*
X154689285Y-93087857D01*
X154689285Y-92730714D01*
X154617857Y-92587857D01*
X154546428Y-92516428D01*
X154403571Y-92445000D01*
X154117857Y-92445000D01*
X153975000Y-92516428D01*
X153903571Y-92587857D01*
X153832142Y-92730714D01*
X156475000Y-92587857D02*
X156975000Y-92587857D01*
X157189285Y-93373571D02*
X156475000Y-93373571D01*
X156475000Y-91873571D01*
X157189285Y-91873571D01*
X158046428Y-93373571D02*
X157903571Y-93302142D01*
X157832142Y-93159285D01*
X157832142Y-91873571D01*
X159189285Y-93302142D02*
X159046428Y-93373571D01*
X158760714Y-93373571D01*
X158617857Y-93302142D01*
X158546428Y-93159285D01*
X158546428Y-92587857D01*
X158617857Y-92445000D01*
X158760714Y-92373571D01*
X159046428Y-92373571D01*
X159189285Y-92445000D01*
X159260714Y-92587857D01*
X159260714Y-92730714D01*
X158546428Y-92873571D01*
X160546428Y-93302142D02*
X160403571Y-93373571D01*
X160117857Y-93373571D01*
X159975000Y-93302142D01*
X159903571Y-93230714D01*
X159832142Y-93087857D01*
X159832142Y-92659285D01*
X159903571Y-92516428D01*
X159975000Y-92445000D01*
X160117857Y-92373571D01*
X160403571Y-92373571D01*
X160546428Y-92445000D01*
X160975000Y-92373571D02*
X161546428Y-92373571D01*
X161189285Y-91873571D02*
X161189285Y-93159285D01*
X161260714Y-93302142D01*
X161403571Y-93373571D01*
X161546428Y-93373571D01*
X162046428Y-93373571D02*
X162046428Y-92373571D01*
X162046428Y-92659285D02*
X162117857Y-92516428D01*
X162189285Y-92445000D01*
X162332142Y-92373571D01*
X162475000Y-92373571D01*
X163189285Y-93373571D02*
X163046428Y-93302142D01*
X162975000Y-93230714D01*
X162903571Y-93087857D01*
X162903571Y-92659285D01*
X162975000Y-92516428D01*
X163046428Y-92445000D01*
X163189285Y-92373571D01*
X163403571Y-92373571D01*
X163546428Y-92445000D01*
X163617857Y-92516428D01*
X163689285Y-92659285D01*
X163689285Y-93087857D01*
X163617857Y-93230714D01*
X163546428Y-93302142D01*
X163403571Y-93373571D01*
X163189285Y-93373571D01*
X164332142Y-92373571D02*
X164332142Y-93373571D01*
X164332142Y-92516428D02*
X164403571Y-92445000D01*
X164546428Y-92373571D01*
X164760714Y-92373571D01*
X164903571Y-92445000D01*
X164975000Y-92587857D01*
X164975000Y-93373571D01*
X165689285Y-93373571D02*
X165689285Y-92373571D01*
X165689285Y-91873571D02*
X165617857Y-91945000D01*
X165689285Y-92016428D01*
X165760714Y-91945000D01*
X165689285Y-91873571D01*
X165689285Y-92016428D01*
X167046428Y-93302142D02*
X166903571Y-93373571D01*
X166617857Y-93373571D01*
X166475000Y-93302142D01*
X166403571Y-93230714D01*
X166332142Y-93087857D01*
X166332142Y-92659285D01*
X166403571Y-92516428D01*
X166475000Y-92445000D01*
X166617857Y-92373571D01*
X166903571Y-92373571D01*
X167046428Y-92445000D01*
X169546428Y-93373571D02*
X168832142Y-93373571D01*
X168832142Y-91873571D01*
X170260714Y-93373571D02*
X170117857Y-93302142D01*
X170046428Y-93230714D01*
X169975000Y-93087857D01*
X169975000Y-92659285D01*
X170046428Y-92516428D01*
X170117857Y-92445000D01*
X170260714Y-92373571D01*
X170475000Y-92373571D01*
X170617857Y-92445000D01*
X170689285Y-92516428D01*
X170760714Y-92659285D01*
X170760714Y-93087857D01*
X170689285Y-93230714D01*
X170617857Y-93302142D01*
X170475000Y-93373571D01*
X170260714Y-93373571D01*
X172046428Y-93373571D02*
X172046428Y-92587857D01*
X171975000Y-92445000D01*
X171832142Y-92373571D01*
X171546428Y-92373571D01*
X171403571Y-92445000D01*
X172046428Y-93302142D02*
X171903571Y-93373571D01*
X171546428Y-93373571D01*
X171403571Y-93302142D01*
X171332142Y-93159285D01*
X171332142Y-93016428D01*
X171403571Y-92873571D01*
X171546428Y-92802142D01*
X171903571Y-92802142D01*
X172046428Y-92730714D01*
X173403571Y-93373571D02*
X173403571Y-91873571D01*
X173403571Y-93302142D02*
X173260714Y-93373571D01*
X172975000Y-93373571D01*
X172832142Y-93302142D01*
X172760714Y-93230714D01*
X172689285Y-93087857D01*
X172689285Y-92659285D01*
X172760714Y-92516428D01*
X172832142Y-92445000D01*
X172975000Y-92373571D01*
X173260714Y-92373571D01*
X173403571Y-92445000D01*
X145189285Y-94923571D02*
X145546428Y-95923571D01*
X145903571Y-94923571D01*
X146760714Y-94423571D02*
X146903571Y-94423571D01*
X147046428Y-94495000D01*
X147117857Y-94566428D01*
X147189285Y-94709285D01*
X147260714Y-94995000D01*
X147260714Y-95352142D01*
X147189285Y-95637857D01*
X147117857Y-95780714D01*
X147046428Y-95852142D01*
X146903571Y-95923571D01*
X146760714Y-95923571D01*
X146617857Y-95852142D01*
X146546428Y-95780714D01*
X146475000Y-95637857D01*
X146403571Y-95352142D01*
X146403571Y-94995000D01*
X146475000Y-94709285D01*
X146546428Y-94566428D01*
X146617857Y-94495000D01*
X146760714Y-94423571D01*
X147903571Y-95780714D02*
X147975000Y-95852142D01*
X147903571Y-95923571D01*
X147832142Y-95852142D01*
X147903571Y-95780714D01*
X147903571Y-95923571D01*
X148546428Y-94566428D02*
X148617857Y-94495000D01*
X148760714Y-94423571D01*
X149117857Y-94423571D01*
X149260714Y-94495000D01*
X149332142Y-94566428D01*
X149403571Y-94709285D01*
X149403571Y-94852142D01*
X149332142Y-95066428D01*
X148475000Y-95923571D01*
X149403571Y-95923571D01*
X145975000Y-98473571D02*
X145975000Y-96973571D01*
X145975000Y-98402142D02*
X145832142Y-98473571D01*
X145546428Y-98473571D01*
X145403571Y-98402142D01*
X145332142Y-98330714D01*
X145260714Y-98187857D01*
X145260714Y-97759285D01*
X145332142Y-97616428D01*
X145403571Y-97545000D01*
X145546428Y-97473571D01*
X145832142Y-97473571D01*
X145975000Y-97545000D01*
X146689285Y-98473571D02*
X146689285Y-97473571D01*
X146689285Y-96973571D02*
X146617857Y-97045000D01*
X146689285Y-97116428D01*
X146760714Y-97045000D01*
X146689285Y-96973571D01*
X146689285Y-97116428D01*
X147403571Y-98473571D02*
X147403571Y-97473571D01*
X147403571Y-97616428D02*
X147475000Y-97545000D01*
X147617857Y-97473571D01*
X147832142Y-97473571D01*
X147975000Y-97545000D01*
X148046428Y-97687857D01*
X148046428Y-98473571D01*
X148046428Y-97687857D02*
X148117857Y-97545000D01*
X148260714Y-97473571D01*
X148475000Y-97473571D01*
X148617857Y-97545000D01*
X148689285Y-97687857D01*
X148689285Y-98473571D01*
X149189285Y-97473571D02*
X149760714Y-97473571D01*
X149403571Y-96973571D02*
X149403571Y-98259285D01*
X149475000Y-98402142D01*
X149617857Y-98473571D01*
X149760714Y-98473571D01*
X150903571Y-98473571D02*
X150903571Y-97687857D01*
X150832142Y-97545000D01*
X150689285Y-97473571D01*
X150403571Y-97473571D01*
X150260714Y-97545000D01*
X150903571Y-98402142D02*
X150760714Y-98473571D01*
X150403571Y-98473571D01*
X150260714Y-98402142D01*
X150189285Y-98259285D01*
X150189285Y-98116428D01*
X150260714Y-97973571D01*
X150403571Y-97902142D01*
X150760714Y-97902142D01*
X150903571Y-97830714D01*
X151546428Y-98402142D02*
X151689285Y-98473571D01*
X151975000Y-98473571D01*
X152117857Y-98402142D01*
X152189285Y-98259285D01*
X152189285Y-98187857D01*
X152117857Y-98045000D01*
X151975000Y-97973571D01*
X151760714Y-97973571D01*
X151617857Y-97902142D01*
X151546428Y-97759285D01*
X151546428Y-97687857D01*
X151617857Y-97545000D01*
X151760714Y-97473571D01*
X151975000Y-97473571D01*
X152117857Y-97545000D01*
X152760714Y-98402142D02*
X152903571Y-98473571D01*
X153189285Y-98473571D01*
X153332142Y-98402142D01*
X153403571Y-98259285D01*
X153403571Y-98187857D01*
X153332142Y-98045000D01*
X153189285Y-97973571D01*
X152975000Y-97973571D01*
X152832142Y-97902142D01*
X152760714Y-97759285D01*
X152760714Y-97687857D01*
X152832142Y-97545000D01*
X152975000Y-97473571D01*
X153189285Y-97473571D01*
X153332142Y-97545000D01*
X155189285Y-97902142D02*
X156332142Y-97902142D01*
X158117857Y-97116428D02*
X158189285Y-97045000D01*
X158332142Y-96973571D01*
X158689285Y-96973571D01*
X158832142Y-97045000D01*
X158903571Y-97116428D01*
X158975000Y-97259285D01*
X158975000Y-97402142D01*
X158903571Y-97616428D01*
X158046428Y-98473571D01*
X158975000Y-98473571D01*
X159903571Y-96973571D02*
X160046428Y-96973571D01*
X160189285Y-97045000D01*
X160260714Y-97116428D01*
X160332142Y-97259285D01*
X160403571Y-97545000D01*
X160403571Y-97902142D01*
X160332142Y-98187857D01*
X160260714Y-98330714D01*
X160189285Y-98402142D01*
X160046428Y-98473571D01*
X159903571Y-98473571D01*
X159760714Y-98402142D01*
X159689285Y-98330714D01*
X159617857Y-98187857D01*
X159546428Y-97902142D01*
X159546428Y-97545000D01*
X159617857Y-97259285D01*
X159689285Y-97116428D01*
X159760714Y-97045000D01*
X159903571Y-96973571D01*
X161832142Y-98473571D02*
X160975000Y-98473571D01*
X161403571Y-98473571D02*
X161403571Y-96973571D01*
X161260714Y-97187857D01*
X161117857Y-97330714D01*
X160975000Y-97402142D01*
X162689285Y-97616428D02*
X162546428Y-97545000D01*
X162475000Y-97473571D01*
X162403571Y-97330714D01*
X162403571Y-97259285D01*
X162475000Y-97116428D01*
X162546428Y-97045000D01*
X162689285Y-96973571D01*
X162975000Y-96973571D01*
X163117857Y-97045000D01*
X163189285Y-97116428D01*
X163260714Y-97259285D01*
X163260714Y-97330714D01*
X163189285Y-97473571D01*
X163117857Y-97545000D01*
X162975000Y-97616428D01*
X162689285Y-97616428D01*
X162546428Y-97687857D01*
X162475000Y-97759285D01*
X162403571Y-97902142D01*
X162403571Y-98187857D01*
X162475000Y-98330714D01*
X162546428Y-98402142D01*
X162689285Y-98473571D01*
X162975000Y-98473571D01*
X163117857Y-98402142D01*
X163189285Y-98330714D01*
X163260714Y-98187857D01*
X163260714Y-97902142D01*
X163189285Y-97759285D01*
X163117857Y-97687857D01*
X162975000Y-97616428D01*
X145189285Y-100023571D02*
X145475000Y-101023571D01*
X145760714Y-100309285D01*
X146046428Y-101023571D01*
X146332142Y-100023571D01*
X146760714Y-100023571D02*
X147046428Y-101023571D01*
X147332142Y-100309285D01*
X147617857Y-101023571D01*
X147903571Y-100023571D01*
X148332142Y-100023571D02*
X148617857Y-101023571D01*
X148903571Y-100309285D01*
X149189285Y-101023571D01*
X149475000Y-100023571D01*
X150046428Y-100880714D02*
X150117857Y-100952142D01*
X150046428Y-101023571D01*
X149975000Y-100952142D01*
X150046428Y-100880714D01*
X150046428Y-101023571D01*
X150689285Y-100952142D02*
X150832142Y-101023571D01*
X151117857Y-101023571D01*
X151260714Y-100952142D01*
X151332142Y-100809285D01*
X151332142Y-100737857D01*
X151260714Y-100595000D01*
X151117857Y-100523571D01*
X150903571Y-100523571D01*
X150760714Y-100452142D01*
X150689285Y-100309285D01*
X150689285Y-100237857D01*
X150760714Y-100095000D01*
X150903571Y-100023571D01*
X151117857Y-100023571D01*
X151260714Y-100095000D01*
X151760714Y-100023571D02*
X152332142Y-100023571D01*
X151975000Y-99523571D02*
X151975000Y-100809285D01*
X152046428Y-100952142D01*
X152189285Y-101023571D01*
X152332142Y-101023571D01*
X153475000Y-100023571D02*
X153475000Y-101023571D01*
X152832142Y-100023571D02*
X152832142Y-100809285D01*
X152903571Y-100952142D01*
X153046428Y-101023571D01*
X153260714Y-101023571D01*
X153403571Y-100952142D01*
X153475000Y-100880714D01*
X154189285Y-100023571D02*
X154189285Y-101523571D01*
X154189285Y-100095000D02*
X154332142Y-100023571D01*
X154617857Y-100023571D01*
X154760714Y-100095000D01*
X154832142Y-100166428D01*
X154903571Y-100309285D01*
X154903571Y-100737857D01*
X154832142Y-100880714D01*
X154760714Y-100952142D01*
X154617857Y-101023571D01*
X154332142Y-101023571D01*
X154189285Y-100952142D01*
X155546428Y-101023571D02*
X155546428Y-100023571D01*
X155546428Y-99523571D02*
X155475000Y-99595000D01*
X155546428Y-99666428D01*
X155617857Y-99595000D01*
X155546428Y-99523571D01*
X155546428Y-99666428D01*
X156903571Y-101023571D02*
X156903571Y-99523571D01*
X156903571Y-100952142D02*
X156760714Y-101023571D01*
X156475000Y-101023571D01*
X156332142Y-100952142D01*
X156260714Y-100880714D01*
X156189285Y-100737857D01*
X156189285Y-100309285D01*
X156260714Y-100166428D01*
X156332142Y-100095000D01*
X156475000Y-100023571D01*
X156760714Y-100023571D01*
X156903571Y-100095000D01*
X157617857Y-100452142D02*
X158760714Y-100452142D01*
X159475000Y-100023571D02*
X159475000Y-101523571D01*
X159475000Y-100095000D02*
X159617857Y-100023571D01*
X159903571Y-100023571D01*
X160046428Y-100095000D01*
X160117857Y-100166428D01*
X160189285Y-100309285D01*
X160189285Y-100737857D01*
X160117857Y-100880714D01*
X160046428Y-100952142D01*
X159903571Y-101023571D01*
X159617857Y-101023571D01*
X159475000Y-100952142D01*
X160832142Y-101023571D02*
X160832142Y-100023571D01*
X160832142Y-100309285D02*
X160903571Y-100166428D01*
X160975000Y-100095000D01*
X161117857Y-100023571D01*
X161260714Y-100023571D01*
X161975000Y-101023571D02*
X161832142Y-100952142D01*
X161760714Y-100880714D01*
X161689285Y-100737857D01*
X161689285Y-100309285D01*
X161760714Y-100166428D01*
X161832142Y-100095000D01*
X161975000Y-100023571D01*
X162189285Y-100023571D01*
X162332142Y-100095000D01*
X162403571Y-100166428D01*
X162475000Y-100309285D01*
X162475000Y-100737857D01*
X162403571Y-100880714D01*
X162332142Y-100952142D01*
X162189285Y-101023571D01*
X161975000Y-101023571D01*
X163117857Y-100023571D02*
X163117857Y-101309285D01*
X163046428Y-101452142D01*
X162903571Y-101523571D01*
X162832142Y-101523571D01*
X163117857Y-99523571D02*
X163046428Y-99595000D01*
X163117857Y-99666428D01*
X163189285Y-99595000D01*
X163117857Y-99523571D01*
X163117857Y-99666428D01*
X164403571Y-100952142D02*
X164260714Y-101023571D01*
X163975000Y-101023571D01*
X163832142Y-100952142D01*
X163760714Y-100809285D01*
X163760714Y-100237857D01*
X163832142Y-100095000D01*
X163975000Y-100023571D01*
X164260714Y-100023571D01*
X164403571Y-100095000D01*
X164475000Y-100237857D01*
X164475000Y-100380714D01*
X163760714Y-100523571D01*
X165760714Y-100952142D02*
X165617857Y-101023571D01*
X165332142Y-101023571D01*
X165189285Y-100952142D01*
X165117857Y-100880714D01*
X165046428Y-100737857D01*
X165046428Y-100309285D01*
X165117857Y-100166428D01*
X165189285Y-100095000D01*
X165332142Y-100023571D01*
X165617857Y-100023571D01*
X165760714Y-100095000D01*
X166189285Y-100023571D02*
X166760714Y-100023571D01*
X166403571Y-99523571D02*
X166403571Y-100809285D01*
X166475000Y-100952142D01*
X166617857Y-101023571D01*
X166760714Y-101023571D01*
X167189285Y-100952142D02*
X167332142Y-101023571D01*
X167617857Y-101023571D01*
X167760714Y-100952142D01*
X167832142Y-100809285D01*
X167832142Y-100737857D01*
X167760714Y-100595000D01*
X167617857Y-100523571D01*
X167403571Y-100523571D01*
X167260714Y-100452142D01*
X167189285Y-100309285D01*
X167189285Y-100237857D01*
X167260714Y-100095000D01*
X167403571Y-100023571D01*
X167617857Y-100023571D01*
X167760714Y-100095000D01*
X168475000Y-100880714D02*
X168546428Y-100952142D01*
X168475000Y-101023571D01*
X168403571Y-100952142D01*
X168475000Y-100880714D01*
X168475000Y-101023571D01*
X169832142Y-100952142D02*
X169689285Y-101023571D01*
X169403571Y-101023571D01*
X169260714Y-100952142D01*
X169189285Y-100880714D01*
X169117857Y-100737857D01*
X169117857Y-100309285D01*
X169189285Y-100166428D01*
X169260714Y-100095000D01*
X169403571Y-100023571D01*
X169689285Y-100023571D01*
X169832142Y-100095000D01*
X170689285Y-101023571D02*
X170546428Y-100952142D01*
X170475000Y-100880714D01*
X170403571Y-100737857D01*
X170403571Y-100309285D01*
X170475000Y-100166428D01*
X170546428Y-100095000D01*
X170689285Y-100023571D01*
X170903571Y-100023571D01*
X171046428Y-100095000D01*
X171117857Y-100166428D01*
X171189285Y-100309285D01*
X171189285Y-100737857D01*
X171117857Y-100880714D01*
X171046428Y-100952142D01*
X170903571Y-101023571D01*
X170689285Y-101023571D01*
X171832142Y-101023571D02*
X171832142Y-100023571D01*
X171832142Y-100166428D02*
X171903571Y-100095000D01*
X172046428Y-100023571D01*
X172260714Y-100023571D01*
X172403571Y-100095000D01*
X172475000Y-100237857D01*
X172475000Y-101023571D01*
X172475000Y-100237857D02*
X172546428Y-100095000D01*
X172689285Y-100023571D01*
X172903571Y-100023571D01*
X173046428Y-100095000D01*
X173117857Y-100237857D01*
X173117857Y-101023571D01*
D11*
G04 #@! TO.C,J301*
X157850840Y-151858980D02*
X166253160Y-151858980D01*
X157850840Y-151960580D02*
X166253160Y-151960580D01*
X166253160Y-151960580D02*
X166253160Y-151759920D01*
X166253160Y-151759920D02*
X157850840Y-151759920D01*
X157850840Y-151759920D02*
X157850840Y-151960580D01*
X158153100Y-151960580D02*
X158153100Y-146959320D01*
X158153100Y-146959320D02*
X165950900Y-146959320D01*
X165950900Y-146959320D02*
X165950900Y-151960580D01*
D12*
G04 #@! TO.C,R508*
X107950000Y-145940000D02*
X107950000Y-142140000D01*
X107950000Y-118220000D02*
X107950000Y-122020000D01*
X111210000Y-142140000D02*
X111210000Y-122020000D01*
X104690000Y-142140000D02*
X111210000Y-142140000D01*
X104690000Y-122020000D02*
X104690000Y-142140000D01*
X111210000Y-122020000D02*
X104690000Y-122020000D01*
G04 #@! TO.C,C405*
X157646000Y-136025000D02*
X157646000Y-137025000D01*
X159346000Y-137025000D02*
X159346000Y-136025000D01*
D13*
G04 #@! TO.C,HS501*
X67818000Y-116459000D02*
X62230000Y-116459000D01*
X67818000Y-124460000D02*
X67818000Y-116459000D01*
X67818000Y-132461000D02*
X62230000Y-132461000D01*
X67818000Y-124460000D02*
X67818000Y-132461000D01*
X69342000Y-116459000D02*
X74930000Y-116459000D01*
X69342000Y-124460000D02*
X69342000Y-116459000D01*
X69342000Y-132461000D02*
X74930000Y-132461000D01*
X69342000Y-124460000D02*
X69342000Y-132461000D01*
X65278000Y-141986000D02*
X66040000Y-139700000D01*
X71882000Y-141986000D02*
X71120000Y-139700000D01*
X65278000Y-142113000D02*
X66802000Y-140335000D01*
X71882000Y-141986000D02*
X70485000Y-140208000D01*
X62230000Y-132969000D02*
X65913000Y-134493000D01*
X62230000Y-132461000D02*
X62230000Y-132969000D01*
X74930000Y-132969000D02*
X71120000Y-134620000D01*
X62230000Y-115951000D02*
X65913000Y-114300000D01*
X74930000Y-115951000D02*
X71247000Y-114427000D01*
X65913000Y-114300000D02*
X62230000Y-111760000D01*
X62230000Y-106934000D02*
X66040000Y-109220000D01*
X65278000Y-107061000D02*
X66802000Y-108585000D01*
X66040000Y-109220000D02*
X65278000Y-107061000D01*
X74930000Y-106934000D02*
X70993000Y-109220000D01*
X71882000Y-106934000D02*
X70104000Y-108458000D01*
X70993000Y-109220000D02*
X71882000Y-106934000D01*
X72136000Y-112395000D02*
X74930000Y-106934000D01*
X74930000Y-111760000D02*
X72136000Y-112395000D01*
X71247000Y-114427000D02*
X74930000Y-111760000D01*
X74930000Y-116459000D02*
X74930000Y-115951000D01*
X62230000Y-116459000D02*
X62230000Y-116078000D01*
X66040000Y-139700000D02*
X62230000Y-141986000D01*
X71120000Y-139700000D02*
X74930000Y-141986000D01*
X72263000Y-136652000D02*
X74930000Y-141986000D01*
X74930000Y-137160000D02*
X72263000Y-136652000D01*
X71247000Y-134620000D02*
X74930000Y-137160000D01*
X65024000Y-136652000D02*
X62230000Y-141986000D01*
X62230000Y-137160000D02*
X65024000Y-136652000D01*
X65913000Y-134493000D02*
X62230000Y-137160000D01*
X65024000Y-112395000D02*
X62230000Y-111760000D01*
X62230000Y-106934000D02*
X65024000Y-112395000D01*
X74930000Y-132969000D02*
X74930000Y-132461000D01*
X67818000Y-122682000D02*
X69342000Y-122682000D01*
X67818000Y-126238000D02*
X69342000Y-126238000D01*
D12*
G04 #@! TO.C,C201*
X113038000Y-87718000D02*
X114038000Y-87718000D01*
X114038000Y-86018000D02*
X113038000Y-86018000D01*
G04 #@! TO.C,C202*
X114038000Y-88304000D02*
X113038000Y-88304000D01*
X113038000Y-90004000D02*
X114038000Y-90004000D01*
G04 #@! TO.C,C301*
X169125000Y-127500000D02*
X169125000Y-126500000D01*
X167425000Y-126500000D02*
X167425000Y-127500000D01*
G04 #@! TO.C,C401*
X153582000Y-146820000D02*
X153582000Y-147820000D01*
X155282000Y-147820000D02*
X155282000Y-146820000D01*
G04 #@! TO.C,C402*
X146900000Y-133850000D02*
X146900000Y-132850000D01*
X145200000Y-132850000D02*
X145200000Y-133850000D01*
G04 #@! TO.C,C403*
X157314000Y-137025000D02*
X157314000Y-136025000D01*
X155614000Y-136025000D02*
X155614000Y-137025000D01*
G04 #@! TO.C,C406*
X158631000Y-121246000D02*
X159631000Y-121246000D01*
X159631000Y-119546000D02*
X158631000Y-119546000D01*
G04 #@! TO.C,C407*
X79336000Y-93591000D02*
X79336000Y-92591000D01*
X77636000Y-92591000D02*
X77636000Y-93591000D01*
G04 #@! TO.C,C408*
X86780000Y-92591000D02*
X86780000Y-93591000D01*
X88480000Y-93591000D02*
X88480000Y-92591000D01*
G04 #@! TO.C,C601*
X102450000Y-104640000D02*
X102450000Y-103640000D01*
X100750000Y-103640000D02*
X100750000Y-104640000D01*
G04 #@! TO.C,C602*
X98210000Y-103640000D02*
X98210000Y-104640000D01*
X99910000Y-104640000D02*
X99910000Y-103640000D01*
G04 #@! TO.C,D201*
X115738000Y-94984000D02*
X115738000Y-93484000D01*
X115738000Y-94984000D02*
X112538000Y-94984000D01*
X112538000Y-93484000D02*
X115738000Y-93484000D01*
G04 #@! TO.C,D301*
X170065000Y-133080000D02*
X170065000Y-129880000D01*
X171565000Y-129880000D02*
X171565000Y-133080000D01*
X171565000Y-129880000D02*
X170065000Y-129880000D01*
G04 #@! TO.C,D302*
X169025000Y-129880000D02*
X167525000Y-129880000D01*
X169025000Y-129880000D02*
X169025000Y-133080000D01*
X167525000Y-133080000D02*
X167525000Y-129880000D01*
G04 #@! TO.C,D401*
X150240000Y-140380000D02*
X150240000Y-147280000D01*
X146940000Y-140380000D02*
X146940000Y-147280000D01*
X150240000Y-140380000D02*
X146940000Y-140380000D01*
G04 #@! TO.C,FB401*
X152946000Y-146228000D02*
X152946000Y-148828000D01*
X151346000Y-146228000D02*
X151346000Y-148828000D01*
X152946000Y-146228000D02*
X151346000Y-146228000D01*
G04 #@! TO.C,J201*
X149666000Y-110550000D02*
X149666000Y-107890000D01*
X114046000Y-110550000D02*
X149666000Y-110550000D01*
X114046000Y-107890000D02*
X149666000Y-107890000D01*
X114046000Y-110550000D02*
X114046000Y-107890000D01*
X112776000Y-110550000D02*
X111446000Y-110550000D01*
X111446000Y-110550000D02*
X111446000Y-109220000D01*
G04 #@! TO.C,J202*
X110430000Y-85150000D02*
X110430000Y-83820000D01*
X111760000Y-85150000D02*
X110430000Y-85150000D01*
X113030000Y-85150000D02*
X113030000Y-82490000D01*
X113030000Y-82490000D02*
X148650000Y-82490000D01*
X113030000Y-85150000D02*
X148650000Y-85150000D01*
X148650000Y-85150000D02*
X148650000Y-82490000D01*
G04 #@! TO.C,J501*
X63550000Y-93400000D02*
X63550000Y-104250000D01*
X68650000Y-93400000D02*
X63550000Y-93400000D01*
X68350000Y-93900000D02*
X68650000Y-93400000D01*
X73750000Y-93900000D02*
X68350000Y-93900000D01*
X73500000Y-93400000D02*
X73750000Y-93900000D01*
X73550000Y-93400000D02*
X73500000Y-93400000D01*
X75450000Y-93400000D02*
X73550000Y-93400000D01*
X75200000Y-93900000D02*
X75450000Y-93400000D01*
X76150000Y-93900000D02*
X75200000Y-93900000D01*
X76150000Y-104250000D02*
X76150000Y-93900000D01*
X63550000Y-104250000D02*
X76150000Y-104250000D01*
G04 #@! TO.C,Q301*
X170890000Y-114810000D02*
X169960000Y-114810000D01*
X167730000Y-114810000D02*
X168660000Y-114810000D01*
X167730000Y-114810000D02*
X167730000Y-117970000D01*
X170890000Y-114810000D02*
X170890000Y-116270000D01*
G04 #@! TO.C,Q302*
X162650000Y-112520000D02*
X162650000Y-111060000D01*
X165810000Y-112520000D02*
X165810000Y-109360000D01*
X165810000Y-112520000D02*
X164880000Y-112520000D01*
X162650000Y-112520000D02*
X163580000Y-112520000D01*
D13*
G04 #@! TO.C,Q501*
X69342000Y-119126000D02*
X69342000Y-129794000D01*
X69342000Y-119126000D02*
X74168000Y-119126000D01*
X69342000Y-129794000D02*
X74168000Y-129794000D01*
X74168000Y-119126000D02*
X74168000Y-129794000D01*
X70739000Y-129794000D02*
X70739000Y-119126000D01*
X70612000Y-126238000D02*
X69342000Y-126238000D01*
X70612000Y-122682000D02*
X69342000Y-122682000D01*
X69596000Y-119126000D02*
X69596000Y-129794000D01*
X70739000Y-129286000D02*
X74168000Y-129286000D01*
X70739000Y-119634000D02*
X74168000Y-119634000D01*
D12*
G04 #@! TO.C,R201*
X114138000Y-92320000D02*
X112938000Y-92320000D01*
X112938000Y-90560000D02*
X114138000Y-90560000D01*
G04 #@! TO.C,R202*
X112938000Y-95894000D02*
X114138000Y-95894000D01*
X114138000Y-97654000D02*
X112938000Y-97654000D01*
G04 #@! TO.C,R203*
X112938000Y-98180000D02*
X114138000Y-98180000D01*
X114138000Y-99940000D02*
X112938000Y-99940000D01*
G04 #@! TO.C,R204*
X105044800Y-85919200D02*
X103844800Y-85919200D01*
X103844800Y-84159200D02*
X105044800Y-84159200D01*
G04 #@! TO.C,R205*
X103844800Y-81924000D02*
X105044800Y-81924000D01*
X105044800Y-83684000D02*
X103844800Y-83684000D01*
G04 #@! TO.C,R206*
X112938000Y-100466000D02*
X114138000Y-100466000D01*
X114138000Y-102226000D02*
X112938000Y-102226000D01*
G04 #@! TO.C,R207*
X112938000Y-102752000D02*
X114138000Y-102752000D01*
X114138000Y-104512000D02*
X112938000Y-104512000D01*
G04 #@! TO.C,R208*
X105274000Y-103641600D02*
X105274000Y-104841600D01*
X103514000Y-104841600D02*
X103514000Y-103641600D01*
G04 #@! TO.C,R209*
X114138000Y-106798000D02*
X112938000Y-106798000D01*
X112938000Y-105038000D02*
X114138000Y-105038000D01*
G04 #@! TO.C,R301*
X159750000Y-115180000D02*
X158550000Y-115180000D01*
X158550000Y-113420000D02*
X159750000Y-113420000D01*
G04 #@! TO.C,R302*
X163630000Y-115960000D02*
X164830000Y-115960000D01*
X164830000Y-117720000D02*
X163630000Y-117720000D01*
G04 #@! TO.C,R303*
X158550000Y-117230000D02*
X159750000Y-117230000D01*
X159750000Y-118990000D02*
X158550000Y-118990000D01*
G04 #@! TO.C,R304*
X170145000Y-136770000D02*
X168945000Y-136770000D01*
X168945000Y-135010000D02*
X170145000Y-135010000D01*
G04 #@! TO.C,R305*
X171695000Y-126400000D02*
X171695000Y-127600000D01*
X169935000Y-127600000D02*
X169935000Y-126400000D01*
G04 #@! TO.C,R501*
X79308400Y-97926000D02*
X80508400Y-97926000D01*
X80508400Y-99686000D02*
X79308400Y-99686000D01*
G04 #@! TO.C,R502*
X80508400Y-101616400D02*
X79308400Y-101616400D01*
X79308400Y-99856400D02*
X80508400Y-99856400D01*
G04 #@! TO.C,R503*
X90306000Y-107280000D02*
X90306000Y-106080000D01*
X92066000Y-106080000D02*
X92066000Y-107280000D01*
G04 #@! TO.C,R504*
X88020000Y-107280000D02*
X88020000Y-106080000D01*
X89780000Y-106080000D02*
X89780000Y-107280000D01*
G04 #@! TO.C,R505*
X142960000Y-122020000D02*
X136440000Y-122020000D01*
X136440000Y-122020000D02*
X136440000Y-142140000D01*
X136440000Y-142140000D02*
X142960000Y-142140000D01*
X142960000Y-142140000D02*
X142960000Y-122020000D01*
X139700000Y-118220000D02*
X139700000Y-122020000D01*
X139700000Y-145940000D02*
X139700000Y-142140000D01*
G04 #@! TO.C,R506*
X82550000Y-145940000D02*
X82550000Y-142140000D01*
X82550000Y-118220000D02*
X82550000Y-122020000D01*
X85810000Y-142140000D02*
X85810000Y-122020000D01*
X79290000Y-142140000D02*
X85810000Y-142140000D01*
X79290000Y-122020000D02*
X79290000Y-142140000D01*
X85810000Y-122020000D02*
X79290000Y-122020000D01*
G04 #@! TO.C,R507*
X92160000Y-122020000D02*
X85640000Y-122020000D01*
X85640000Y-122020000D02*
X85640000Y-142140000D01*
X85640000Y-142140000D02*
X92160000Y-142140000D01*
X92160000Y-142140000D02*
X92160000Y-122020000D01*
X88900000Y-118220000D02*
X88900000Y-122020000D01*
X88900000Y-145940000D02*
X88900000Y-142140000D01*
G04 #@! TO.C,R509*
X117560000Y-122020000D02*
X111040000Y-122020000D01*
X111040000Y-122020000D02*
X111040000Y-142140000D01*
X111040000Y-142140000D02*
X117560000Y-142140000D01*
X117560000Y-142140000D02*
X117560000Y-122020000D01*
X114300000Y-118220000D02*
X114300000Y-122020000D01*
X114300000Y-145940000D02*
X114300000Y-142140000D01*
G04 #@! TO.C,R510*
X120650000Y-145940000D02*
X120650000Y-142140000D01*
X120650000Y-118220000D02*
X120650000Y-122020000D01*
X123910000Y-142140000D02*
X123910000Y-122020000D01*
X117390000Y-142140000D02*
X123910000Y-142140000D01*
X117390000Y-122020000D02*
X117390000Y-142140000D01*
X123910000Y-122020000D02*
X117390000Y-122020000D01*
G04 #@! TO.C,R511*
X98510000Y-122020000D02*
X91990000Y-122020000D01*
X91990000Y-122020000D02*
X91990000Y-142140000D01*
X91990000Y-142140000D02*
X98510000Y-142140000D01*
X98510000Y-142140000D02*
X98510000Y-122020000D01*
X95250000Y-118220000D02*
X95250000Y-122020000D01*
X95250000Y-145940000D02*
X95250000Y-142140000D01*
G04 #@! TO.C,R512*
X127000000Y-145940000D02*
X127000000Y-142140000D01*
X127000000Y-118220000D02*
X127000000Y-122020000D01*
X130260000Y-142140000D02*
X130260000Y-122020000D01*
X123740000Y-142140000D02*
X130260000Y-142140000D01*
X123740000Y-122020000D02*
X123740000Y-142140000D01*
X130260000Y-122020000D02*
X123740000Y-122020000D01*
G04 #@! TO.C,R513*
X101600000Y-145940000D02*
X101600000Y-142140000D01*
X101600000Y-118220000D02*
X101600000Y-122020000D01*
X104860000Y-142140000D02*
X104860000Y-122020000D01*
X98340000Y-142140000D02*
X104860000Y-142140000D01*
X98340000Y-122020000D02*
X98340000Y-142140000D01*
X104860000Y-122020000D02*
X98340000Y-122020000D01*
G04 #@! TO.C,R514*
X136610000Y-122020000D02*
X130090000Y-122020000D01*
X130090000Y-122020000D02*
X130090000Y-142140000D01*
X130090000Y-142140000D02*
X136610000Y-142140000D01*
X136610000Y-142140000D02*
X136610000Y-122020000D01*
X133350000Y-118220000D02*
X133350000Y-122020000D01*
X133350000Y-145940000D02*
X133350000Y-142140000D01*
G04 #@! TO.C,R601*
X100930000Y-108830000D02*
X99730000Y-108830000D01*
X99730000Y-107070000D02*
X100930000Y-107070000D01*
G04 #@! TO.C,R602*
X99730000Y-109610000D02*
X100930000Y-109610000D01*
X100930000Y-111370000D02*
X99730000Y-111370000D01*
D14*
G04 #@! TO.C,SW201*
X99029520Y-92141040D02*
X97729040Y-92839540D01*
X99029520Y-90738960D02*
X97729040Y-90040460D01*
X101630480Y-90738960D02*
X102930960Y-90040460D01*
X102930960Y-92839540D02*
X101630480Y-92141040D01*
X102930960Y-92839540D02*
X97729040Y-92839540D01*
X97729040Y-92839540D02*
X97729040Y-90040460D01*
X97729040Y-90040460D02*
X102930960Y-90040460D01*
X102930960Y-90040460D02*
X102930960Y-92839540D01*
X101630480Y-92141040D02*
X99029520Y-92141040D01*
X99029520Y-92141040D02*
X99029520Y-90738960D01*
X99029520Y-90738960D02*
X101630480Y-90738960D01*
X101630480Y-90738960D02*
X101630480Y-92141040D01*
X103329740Y-93240860D02*
X97330260Y-93240860D01*
X97330260Y-93240860D02*
X97330260Y-89639140D01*
X97330260Y-89639140D02*
X103329740Y-89639140D01*
X103329740Y-89639140D02*
X103329740Y-93240860D01*
G04 #@! TO.C,SW202*
X103329740Y-95989140D02*
X103329740Y-99590860D01*
X97330260Y-95989140D02*
X103329740Y-95989140D01*
X97330260Y-99590860D02*
X97330260Y-95989140D01*
X103329740Y-99590860D02*
X97330260Y-99590860D01*
X101630480Y-97088960D02*
X101630480Y-98491040D01*
X99029520Y-97088960D02*
X101630480Y-97088960D01*
X99029520Y-98491040D02*
X99029520Y-97088960D01*
X101630480Y-98491040D02*
X99029520Y-98491040D01*
X102930960Y-96390460D02*
X102930960Y-99189540D01*
X97729040Y-96390460D02*
X102930960Y-96390460D01*
X97729040Y-99189540D02*
X97729040Y-96390460D01*
X102930960Y-99189540D02*
X97729040Y-99189540D01*
X102930960Y-99189540D02*
X101630480Y-98491040D01*
X101630480Y-97088960D02*
X102930960Y-96390460D01*
X99029520Y-97088960D02*
X97729040Y-96390460D01*
X99029520Y-98491040D02*
X97729040Y-99189540D01*
D12*
G04 #@! TO.C,U201*
X135310000Y-88400000D02*
X135310000Y-87790000D01*
X135310000Y-88400000D02*
X142930000Y-88400000D01*
X118690000Y-88400000D02*
X119310000Y-88400000D01*
X118690000Y-90520000D02*
X118690000Y-88400000D01*
X118690000Y-104640000D02*
X118690000Y-102520000D01*
X119310000Y-104640000D02*
X118690000Y-104640000D01*
X142930000Y-104640000D02*
X135310000Y-104640000D01*
X142930000Y-88400000D02*
X142930000Y-104640000D01*
D13*
G04 #@! TO.C,U301*
X158669000Y-123520000D02*
X157069000Y-123520000D01*
X158669000Y-133595000D02*
X164419000Y-133595000D01*
X158669000Y-122945000D02*
X164419000Y-122945000D01*
X158669000Y-133595000D02*
X158669000Y-132945000D01*
X164419000Y-133595000D02*
X164419000Y-132945000D01*
X164419000Y-122945000D02*
X164419000Y-123595000D01*
X158669000Y-122945000D02*
X158669000Y-123520000D01*
D12*
G04 #@! TO.C,U401*
X154540000Y-129250000D02*
X154540000Y-135260000D01*
X147720000Y-131500000D02*
X147720000Y-135260000D01*
X154540000Y-135260000D02*
X153280000Y-135260000D01*
X147720000Y-135260000D02*
X148980000Y-135260000D01*
D13*
G04 #@! TO.C,U402*
X81383000Y-91718000D02*
X80133000Y-91718000D01*
X81383000Y-94893000D02*
X84733000Y-94893000D01*
X81383000Y-91543000D02*
X84733000Y-91543000D01*
X81383000Y-94893000D02*
X81383000Y-94643000D01*
X84733000Y-94893000D02*
X84733000Y-94643000D01*
X84733000Y-91543000D02*
X84733000Y-91793000D01*
X81383000Y-91543000D02*
X81383000Y-91718000D01*
G04 #@! TO.C,U601*
X97282000Y-106172000D02*
X97790000Y-106172000D01*
X97282000Y-107442000D02*
X97282000Y-106172000D01*
X97790000Y-107442000D02*
X97282000Y-107442000D01*
X97790000Y-104394000D02*
X97790000Y-108966000D01*
X92710000Y-104394000D02*
X97790000Y-104394000D01*
X92710000Y-108966000D02*
X92710000Y-104394000D01*
X97790000Y-108966000D02*
X92710000Y-108966000D01*
G04 #@! TO.C,U501*
X86995000Y-105918000D02*
X87630000Y-105918000D01*
X86995000Y-107188000D02*
X86995000Y-105918000D01*
X87630000Y-107188000D02*
X86995000Y-107188000D01*
X87630000Y-108966000D02*
X77470000Y-108966000D01*
X87630000Y-104140000D02*
X87630000Y-108966000D01*
X77470000Y-104140000D02*
X87630000Y-104140000D01*
X77470000Y-108966000D02*
X77470000Y-104140000D01*
D12*
G04 #@! TO.C,C501*
X85239401Y-99656000D02*
X86239401Y-99656000D01*
X86239401Y-97956000D02*
X85239401Y-97956000D01*
G04 #@! TO.C,C502*
X86239401Y-99949401D02*
X85239401Y-99949401D01*
X85239401Y-101649401D02*
X86239401Y-101649401D01*
G04 #@! TO.C,C302*
X171665000Y-122420000D02*
X171665000Y-121420000D01*
X169965000Y-121420000D02*
X169965000Y-122420000D01*
G04 #@! TO.C,C303*
X167425000Y-121420000D02*
X167425000Y-122420000D01*
X169125000Y-122420000D02*
X169125000Y-121420000D01*
G04 #@! TO.C,C404*
X149210000Y-124790000D02*
X150510000Y-124790000D01*
X149860000Y-125390000D02*
X149860000Y-124190000D01*
X149581000Y-116859000D02*
X150139000Y-116859000D01*
X149188000Y-116899000D02*
X150532000Y-116899000D01*
X148947000Y-116939000D02*
X150773000Y-116939000D01*
X148756000Y-116979000D02*
X150964000Y-116979000D01*
X148595000Y-117019000D02*
X151125000Y-117019000D01*
X148453000Y-117059000D02*
X151267000Y-117059000D01*
X148324000Y-117099000D02*
X151396000Y-117099000D01*
X148206000Y-117139000D02*
X151514000Y-117139000D01*
X148097000Y-117179000D02*
X151623000Y-117179000D01*
X147994000Y-117219000D02*
X151726000Y-117219000D01*
X147898000Y-117259000D02*
X151822000Y-117259000D01*
X147807000Y-117299000D02*
X151913000Y-117299000D01*
X147720000Y-117339000D02*
X152000000Y-117339000D01*
X147638000Y-117379000D02*
X152082000Y-117379000D01*
X147559000Y-117419000D02*
X152161000Y-117419000D01*
X147483000Y-117459000D02*
X152237000Y-117459000D01*
X147411000Y-117499000D02*
X152309000Y-117499000D01*
X147341000Y-117539000D02*
X152379000Y-117539000D01*
X147273000Y-117579000D02*
X152447000Y-117579000D01*
X147208000Y-117619000D02*
X152512000Y-117619000D01*
X147145000Y-117659000D02*
X152575000Y-117659000D01*
X147083000Y-117699000D02*
X152637000Y-117699000D01*
X147024000Y-117739000D02*
X152696000Y-117739000D01*
X146966000Y-117779000D02*
X152754000Y-117779000D01*
X146911000Y-117819000D02*
X152809000Y-117819000D01*
X146856000Y-117859000D02*
X152864000Y-117859000D01*
X146803000Y-117899000D02*
X152917000Y-117899000D01*
X146752000Y-117939000D02*
X152968000Y-117939000D01*
X146702000Y-117979000D02*
X153018000Y-117979000D01*
X146653000Y-118019000D02*
X153067000Y-118019000D01*
X146605000Y-118059000D02*
X153115000Y-118059000D01*
X146558000Y-118099000D02*
X153162000Y-118099000D01*
X146513000Y-118139000D02*
X153207000Y-118139000D01*
X146469000Y-118179000D02*
X153251000Y-118179000D01*
X146425000Y-118219000D02*
X153295000Y-118219000D01*
X146383000Y-118259000D02*
X153337000Y-118259000D01*
X146342000Y-118299000D02*
X153378000Y-118299000D01*
X146301000Y-118339000D02*
X153419000Y-118339000D01*
X146262000Y-118379000D02*
X153458000Y-118379000D01*
X146223000Y-118419000D02*
X153497000Y-118419000D01*
X146185000Y-118459000D02*
X153535000Y-118459000D01*
X146148000Y-118499000D02*
X153572000Y-118499000D01*
X146112000Y-118539000D02*
X153608000Y-118539000D01*
X146076000Y-118579000D02*
X153644000Y-118579000D01*
X146041000Y-118619000D02*
X153679000Y-118619000D01*
X146007000Y-118659000D02*
X153713000Y-118659000D01*
X145974000Y-118699000D02*
X153746000Y-118699000D01*
X145941000Y-118739000D02*
X153779000Y-118739000D01*
X145909000Y-118779000D02*
X153811000Y-118779000D01*
X145878000Y-118819000D02*
X153842000Y-118819000D01*
X145847000Y-118859000D02*
X153873000Y-118859000D01*
X145817000Y-118899000D02*
X153903000Y-118899000D01*
X145788000Y-118939000D02*
X153932000Y-118939000D01*
X145759000Y-118979000D02*
X153961000Y-118979000D01*
X145730000Y-119019000D02*
X153990000Y-119019000D01*
X145703000Y-119059000D02*
X154017000Y-119059000D01*
X145675000Y-119099000D02*
X154045000Y-119099000D01*
X145649000Y-119139000D02*
X154071000Y-119139000D01*
X145623000Y-119179000D02*
X154097000Y-119179000D01*
X145597000Y-119219000D02*
X154123000Y-119219000D01*
X145572000Y-119259000D02*
X154148000Y-119259000D01*
X145548000Y-119299000D02*
X154172000Y-119299000D01*
X145524000Y-119339000D02*
X154196000Y-119339000D01*
X145500000Y-119379000D02*
X154220000Y-119379000D01*
X145477000Y-119419000D02*
X154243000Y-119419000D01*
X145455000Y-119459000D02*
X154265000Y-119459000D01*
X145432000Y-119499000D02*
X154288000Y-119499000D01*
X145411000Y-119539000D02*
X154309000Y-119539000D01*
X145390000Y-119579000D02*
X154330000Y-119579000D01*
X145369000Y-119619000D02*
X154351000Y-119619000D01*
X145349000Y-119659000D02*
X154371000Y-119659000D01*
X145329000Y-119699000D02*
X154391000Y-119699000D01*
X150840000Y-119739000D02*
X154410000Y-119739000D01*
X145310000Y-119739000D02*
X148880000Y-119739000D01*
X150840000Y-119779000D02*
X154429000Y-119779000D01*
X145291000Y-119779000D02*
X148880000Y-119779000D01*
X150840000Y-119819000D02*
X154448000Y-119819000D01*
X145272000Y-119819000D02*
X148880000Y-119819000D01*
X150840000Y-119859000D02*
X154466000Y-119859000D01*
X145254000Y-119859000D02*
X148880000Y-119859000D01*
X150840000Y-119899000D02*
X154484000Y-119899000D01*
X145236000Y-119899000D02*
X148880000Y-119899000D01*
X150840000Y-119939000D02*
X154501000Y-119939000D01*
X145219000Y-119939000D02*
X148880000Y-119939000D01*
X150840000Y-119979000D02*
X154518000Y-119979000D01*
X145202000Y-119979000D02*
X148880000Y-119979000D01*
X150840000Y-120019000D02*
X154534000Y-120019000D01*
X145186000Y-120019000D02*
X148880000Y-120019000D01*
X150840000Y-120059000D02*
X154551000Y-120059000D01*
X145169000Y-120059000D02*
X148880000Y-120059000D01*
X150840000Y-120099000D02*
X154566000Y-120099000D01*
X145154000Y-120099000D02*
X148880000Y-120099000D01*
X150840000Y-120139000D02*
X154582000Y-120139000D01*
X145138000Y-120139000D02*
X148880000Y-120139000D01*
X150840000Y-120179000D02*
X154597000Y-120179000D01*
X145123000Y-120179000D02*
X148880000Y-120179000D01*
X150840000Y-120219000D02*
X154611000Y-120219000D01*
X145109000Y-120219000D02*
X148880000Y-120219000D01*
X150840000Y-120259000D02*
X154625000Y-120259000D01*
X145095000Y-120259000D02*
X148880000Y-120259000D01*
X150840000Y-120299000D02*
X154639000Y-120299000D01*
X145081000Y-120299000D02*
X148880000Y-120299000D01*
X150840000Y-120339000D02*
X154652000Y-120339000D01*
X145068000Y-120339000D02*
X148880000Y-120339000D01*
X150840000Y-120379000D02*
X154666000Y-120379000D01*
X145054000Y-120379000D02*
X148880000Y-120379000D01*
X150840000Y-120419000D02*
X154678000Y-120419000D01*
X145042000Y-120419000D02*
X148880000Y-120419000D01*
X150840000Y-120459000D02*
X154691000Y-120459000D01*
X145029000Y-120459000D02*
X148880000Y-120459000D01*
X150840000Y-120499000D02*
X154703000Y-120499000D01*
X145017000Y-120499000D02*
X148880000Y-120499000D01*
X150840000Y-120539000D02*
X154714000Y-120539000D01*
X145006000Y-120539000D02*
X148880000Y-120539000D01*
X150840000Y-120579000D02*
X154725000Y-120579000D01*
X144995000Y-120579000D02*
X148880000Y-120579000D01*
X150840000Y-120619000D02*
X154736000Y-120619000D01*
X144984000Y-120619000D02*
X148880000Y-120619000D01*
X150840000Y-120659000D02*
X154747000Y-120659000D01*
X144973000Y-120659000D02*
X148880000Y-120659000D01*
X150840000Y-120699000D02*
X154757000Y-120699000D01*
X144963000Y-120699000D02*
X148880000Y-120699000D01*
X150840000Y-120739000D02*
X154767000Y-120739000D01*
X144953000Y-120739000D02*
X148880000Y-120739000D01*
X150840000Y-120779000D02*
X154777000Y-120779000D01*
X144943000Y-120779000D02*
X148880000Y-120779000D01*
X150840000Y-120819000D02*
X154786000Y-120819000D01*
X144934000Y-120819000D02*
X148880000Y-120819000D01*
X150840000Y-120859000D02*
X154795000Y-120859000D01*
X144925000Y-120859000D02*
X148880000Y-120859000D01*
X150840000Y-120899000D02*
X154803000Y-120899000D01*
X144917000Y-120899000D02*
X148880000Y-120899000D01*
X150840000Y-120939000D02*
X154811000Y-120939000D01*
X144909000Y-120939000D02*
X148880000Y-120939000D01*
X150840000Y-120979000D02*
X154819000Y-120979000D01*
X144901000Y-120979000D02*
X148880000Y-120979000D01*
X150840000Y-121019000D02*
X154827000Y-121019000D01*
X144893000Y-121019000D02*
X148880000Y-121019000D01*
X150840000Y-121059000D02*
X154834000Y-121059000D01*
X144886000Y-121059000D02*
X148880000Y-121059000D01*
X150840000Y-121099000D02*
X154841000Y-121099000D01*
X144879000Y-121099000D02*
X148880000Y-121099000D01*
X150840000Y-121139000D02*
X154847000Y-121139000D01*
X144873000Y-121139000D02*
X148880000Y-121139000D01*
X150840000Y-121179000D02*
X154853000Y-121179000D01*
X144867000Y-121179000D02*
X148880000Y-121179000D01*
X150840000Y-121219000D02*
X154859000Y-121219000D01*
X144861000Y-121219000D02*
X148880000Y-121219000D01*
X150840000Y-121260000D02*
X154865000Y-121260000D01*
X144855000Y-121260000D02*
X148880000Y-121260000D01*
X150840000Y-121300000D02*
X154870000Y-121300000D01*
X144850000Y-121300000D02*
X148880000Y-121300000D01*
X150840000Y-121340000D02*
X154875000Y-121340000D01*
X144845000Y-121340000D02*
X148880000Y-121340000D01*
X150840000Y-121380000D02*
X154880000Y-121380000D01*
X144840000Y-121380000D02*
X148880000Y-121380000D01*
X150840000Y-121420000D02*
X154884000Y-121420000D01*
X144836000Y-121420000D02*
X148880000Y-121420000D01*
X150840000Y-121460000D02*
X154888000Y-121460000D01*
X144832000Y-121460000D02*
X148880000Y-121460000D01*
X150840000Y-121500000D02*
X154891000Y-121500000D01*
X144829000Y-121500000D02*
X148880000Y-121500000D01*
X150840000Y-121540000D02*
X154895000Y-121540000D01*
X144825000Y-121540000D02*
X148880000Y-121540000D01*
X150840000Y-121580000D02*
X154898000Y-121580000D01*
X144822000Y-121580000D02*
X148880000Y-121580000D01*
X150840000Y-121620000D02*
X154900000Y-121620000D01*
X144820000Y-121620000D02*
X148880000Y-121620000D01*
X150840000Y-121660000D02*
X154903000Y-121660000D01*
X144817000Y-121660000D02*
X148880000Y-121660000D01*
X144815000Y-121700000D02*
X154905000Y-121700000D01*
X144813000Y-121740000D02*
X154907000Y-121740000D01*
X144812000Y-121780000D02*
X154908000Y-121780000D01*
X144811000Y-121820000D02*
X154909000Y-121820000D01*
X144810000Y-121860000D02*
X154910000Y-121860000D01*
X144810000Y-121900000D02*
X154910000Y-121900000D01*
X144810000Y-121940000D02*
X154910000Y-121940000D01*
X154950000Y-121940000D02*
G75*
G03X154950000Y-121940000I-5090000J0D01*
G01*
G04 #@! TO.C,C503*
X85250400Y-97725600D02*
X86250400Y-97725600D01*
X86250400Y-96025600D02*
X85250400Y-96025600D01*
G04 #@! TO.C,R515*
X80508400Y-97755600D02*
X79308400Y-97755600D01*
X79308400Y-95995600D02*
X80508400Y-95995600D01*
G04 #@! TO.C,R508*
D13*
X106624380Y-133199047D02*
X106148190Y-133532380D01*
X106624380Y-133770476D02*
X105624380Y-133770476D01*
X105624380Y-133389523D01*
X105672000Y-133294285D01*
X105719619Y-133246666D01*
X105814857Y-133199047D01*
X105957714Y-133199047D01*
X106052952Y-133246666D01*
X106100571Y-133294285D01*
X106148190Y-133389523D01*
X106148190Y-133770476D01*
X105624380Y-132294285D02*
X105624380Y-132770476D01*
X106100571Y-132818095D01*
X106052952Y-132770476D01*
X106005333Y-132675238D01*
X106005333Y-132437142D01*
X106052952Y-132341904D01*
X106100571Y-132294285D01*
X106195809Y-132246666D01*
X106433904Y-132246666D01*
X106529142Y-132294285D01*
X106576761Y-132341904D01*
X106624380Y-132437142D01*
X106624380Y-132675238D01*
X106576761Y-132770476D01*
X106529142Y-132818095D01*
X105624380Y-131627619D02*
X105624380Y-131532380D01*
X105672000Y-131437142D01*
X105719619Y-131389523D01*
X105814857Y-131341904D01*
X106005333Y-131294285D01*
X106243428Y-131294285D01*
X106433904Y-131341904D01*
X106529142Y-131389523D01*
X106576761Y-131437142D01*
X106624380Y-131532380D01*
X106624380Y-131627619D01*
X106576761Y-131722857D01*
X106529142Y-131770476D01*
X106433904Y-131818095D01*
X106243428Y-131865714D01*
X106005333Y-131865714D01*
X105814857Y-131818095D01*
X105719619Y-131770476D01*
X105672000Y-131722857D01*
X105624380Y-131627619D01*
X106052952Y-130722857D02*
X106005333Y-130818095D01*
X105957714Y-130865714D01*
X105862476Y-130913333D01*
X105814857Y-130913333D01*
X105719619Y-130865714D01*
X105672000Y-130818095D01*
X105624380Y-130722857D01*
X105624380Y-130532380D01*
X105672000Y-130437142D01*
X105719619Y-130389523D01*
X105814857Y-130341904D01*
X105862476Y-130341904D01*
X105957714Y-130389523D01*
X106005333Y-130437142D01*
X106052952Y-130532380D01*
X106052952Y-130722857D01*
X106100571Y-130818095D01*
X106148190Y-130865714D01*
X106243428Y-130913333D01*
X106433904Y-130913333D01*
X106529142Y-130865714D01*
X106576761Y-130818095D01*
X106624380Y-130722857D01*
X106624380Y-130532380D01*
X106576761Y-130437142D01*
X106529142Y-130389523D01*
X106433904Y-130341904D01*
X106243428Y-130341904D01*
X106148190Y-130389523D01*
X106100571Y-130437142D01*
X106052952Y-130532380D01*
G04 #@! TO.C,C405*
X158853142Y-141835047D02*
X158900761Y-141882666D01*
X158948380Y-142025523D01*
X158948380Y-142120761D01*
X158900761Y-142263619D01*
X158805523Y-142358857D01*
X158710285Y-142406476D01*
X158519809Y-142454095D01*
X158376952Y-142454095D01*
X158186476Y-142406476D01*
X158091238Y-142358857D01*
X157996000Y-142263619D01*
X157948380Y-142120761D01*
X157948380Y-142025523D01*
X157996000Y-141882666D01*
X158043619Y-141835047D01*
X158281714Y-140977904D02*
X158948380Y-140977904D01*
X157900761Y-141216000D02*
X158615047Y-141454095D01*
X158615047Y-140835047D01*
X157948380Y-140263619D02*
X157948380Y-140168380D01*
X157996000Y-140073142D01*
X158043619Y-140025523D01*
X158138857Y-139977904D01*
X158329333Y-139930285D01*
X158567428Y-139930285D01*
X158757904Y-139977904D01*
X158853142Y-140025523D01*
X158900761Y-140073142D01*
X158948380Y-140168380D01*
X158948380Y-140263619D01*
X158900761Y-140358857D01*
X158853142Y-140406476D01*
X158757904Y-140454095D01*
X158567428Y-140501714D01*
X158329333Y-140501714D01*
X158138857Y-140454095D01*
X158043619Y-140406476D01*
X157996000Y-140358857D01*
X157948380Y-140263619D01*
X157948380Y-139025523D02*
X157948380Y-139501714D01*
X158424571Y-139549333D01*
X158376952Y-139501714D01*
X158329333Y-139406476D01*
X158329333Y-139168380D01*
X158376952Y-139073142D01*
X158424571Y-139025523D01*
X158519809Y-138977904D01*
X158757904Y-138977904D01*
X158853142Y-139025523D01*
X158900761Y-139073142D01*
X158948380Y-139168380D01*
X158948380Y-139406476D01*
X158900761Y-139501714D01*
X158853142Y-139549333D01*
G04 #@! TO.C,C201*
X108080952Y-87479142D02*
X108033333Y-87526761D01*
X107890476Y-87574380D01*
X107795238Y-87574380D01*
X107652380Y-87526761D01*
X107557142Y-87431523D01*
X107509523Y-87336285D01*
X107461904Y-87145809D01*
X107461904Y-87002952D01*
X107509523Y-86812476D01*
X107557142Y-86717238D01*
X107652380Y-86622000D01*
X107795238Y-86574380D01*
X107890476Y-86574380D01*
X108033333Y-86622000D01*
X108080952Y-86669619D01*
X108461904Y-86669619D02*
X108509523Y-86622000D01*
X108604761Y-86574380D01*
X108842857Y-86574380D01*
X108938095Y-86622000D01*
X108985714Y-86669619D01*
X109033333Y-86764857D01*
X109033333Y-86860095D01*
X108985714Y-87002952D01*
X108414285Y-87574380D01*
X109033333Y-87574380D01*
X109652380Y-86574380D02*
X109747619Y-86574380D01*
X109842857Y-86622000D01*
X109890476Y-86669619D01*
X109938095Y-86764857D01*
X109985714Y-86955333D01*
X109985714Y-87193428D01*
X109938095Y-87383904D01*
X109890476Y-87479142D01*
X109842857Y-87526761D01*
X109747619Y-87574380D01*
X109652380Y-87574380D01*
X109557142Y-87526761D01*
X109509523Y-87479142D01*
X109461904Y-87383904D01*
X109414285Y-87193428D01*
X109414285Y-86955333D01*
X109461904Y-86764857D01*
X109509523Y-86669619D01*
X109557142Y-86622000D01*
X109652380Y-86574380D01*
X110938095Y-87574380D02*
X110366666Y-87574380D01*
X110652380Y-87574380D02*
X110652380Y-86574380D01*
X110557142Y-86717238D01*
X110461904Y-86812476D01*
X110366666Y-86860095D01*
G04 #@! TO.C,C202*
X108100952Y-89765142D02*
X108053333Y-89812761D01*
X107910476Y-89860380D01*
X107815238Y-89860380D01*
X107672380Y-89812761D01*
X107577142Y-89717523D01*
X107529523Y-89622285D01*
X107481904Y-89431809D01*
X107481904Y-89288952D01*
X107529523Y-89098476D01*
X107577142Y-89003238D01*
X107672380Y-88908000D01*
X107815238Y-88860380D01*
X107910476Y-88860380D01*
X108053333Y-88908000D01*
X108100952Y-88955619D01*
X108481904Y-88955619D02*
X108529523Y-88908000D01*
X108624761Y-88860380D01*
X108862857Y-88860380D01*
X108958095Y-88908000D01*
X109005714Y-88955619D01*
X109053333Y-89050857D01*
X109053333Y-89146095D01*
X109005714Y-89288952D01*
X108434285Y-89860380D01*
X109053333Y-89860380D01*
X109672380Y-88860380D02*
X109767619Y-88860380D01*
X109862857Y-88908000D01*
X109910476Y-88955619D01*
X109958095Y-89050857D01*
X110005714Y-89241333D01*
X110005714Y-89479428D01*
X109958095Y-89669904D01*
X109910476Y-89765142D01*
X109862857Y-89812761D01*
X109767619Y-89860380D01*
X109672380Y-89860380D01*
X109577142Y-89812761D01*
X109529523Y-89765142D01*
X109481904Y-89669904D01*
X109434285Y-89479428D01*
X109434285Y-89241333D01*
X109481904Y-89050857D01*
X109529523Y-88955619D01*
X109577142Y-88908000D01*
X109672380Y-88860380D01*
X110386666Y-88955619D02*
X110434285Y-88908000D01*
X110529523Y-88860380D01*
X110767619Y-88860380D01*
X110862857Y-88908000D01*
X110910476Y-88955619D01*
X110958095Y-89050857D01*
X110958095Y-89146095D01*
X110910476Y-89288952D01*
X110339047Y-89860380D01*
X110958095Y-89860380D01*
G04 #@! TO.C,C301*
X173077142Y-128119047D02*
X173124761Y-128166666D01*
X173172380Y-128309523D01*
X173172380Y-128404761D01*
X173124761Y-128547619D01*
X173029523Y-128642857D01*
X172934285Y-128690476D01*
X172743809Y-128738095D01*
X172600952Y-128738095D01*
X172410476Y-128690476D01*
X172315238Y-128642857D01*
X172220000Y-128547619D01*
X172172380Y-128404761D01*
X172172380Y-128309523D01*
X172220000Y-128166666D01*
X172267619Y-128119047D01*
X172172380Y-127785714D02*
X172172380Y-127166666D01*
X172553333Y-127500000D01*
X172553333Y-127357142D01*
X172600952Y-127261904D01*
X172648571Y-127214285D01*
X172743809Y-127166666D01*
X172981904Y-127166666D01*
X173077142Y-127214285D01*
X173124761Y-127261904D01*
X173172380Y-127357142D01*
X173172380Y-127642857D01*
X173124761Y-127738095D01*
X173077142Y-127785714D01*
X172172380Y-126547619D02*
X172172380Y-126452380D01*
X172220000Y-126357142D01*
X172267619Y-126309523D01*
X172362857Y-126261904D01*
X172553333Y-126214285D01*
X172791428Y-126214285D01*
X172981904Y-126261904D01*
X173077142Y-126309523D01*
X173124761Y-126357142D01*
X173172380Y-126452380D01*
X173172380Y-126547619D01*
X173124761Y-126642857D01*
X173077142Y-126690476D01*
X172981904Y-126738095D01*
X172791428Y-126785714D01*
X172553333Y-126785714D01*
X172362857Y-126738095D01*
X172267619Y-126690476D01*
X172220000Y-126642857D01*
X172172380Y-126547619D01*
X173172380Y-125261904D02*
X173172380Y-125833333D01*
X173172380Y-125547619D02*
X172172380Y-125547619D01*
X172315238Y-125642857D01*
X172410476Y-125738095D01*
X172458095Y-125833333D01*
G04 #@! TO.C,C401*
X154789142Y-143867047D02*
X154836761Y-143914666D01*
X154884380Y-144057523D01*
X154884380Y-144152761D01*
X154836761Y-144295619D01*
X154741523Y-144390857D01*
X154646285Y-144438476D01*
X154455809Y-144486095D01*
X154312952Y-144486095D01*
X154122476Y-144438476D01*
X154027238Y-144390857D01*
X153932000Y-144295619D01*
X153884380Y-144152761D01*
X153884380Y-144057523D01*
X153932000Y-143914666D01*
X153979619Y-143867047D01*
X154217714Y-143009904D02*
X154884380Y-143009904D01*
X153836761Y-143248000D02*
X154551047Y-143486095D01*
X154551047Y-142867047D01*
X153884380Y-142295619D02*
X153884380Y-142200380D01*
X153932000Y-142105142D01*
X153979619Y-142057523D01*
X154074857Y-142009904D01*
X154265333Y-141962285D01*
X154503428Y-141962285D01*
X154693904Y-142009904D01*
X154789142Y-142057523D01*
X154836761Y-142105142D01*
X154884380Y-142200380D01*
X154884380Y-142295619D01*
X154836761Y-142390857D01*
X154789142Y-142438476D01*
X154693904Y-142486095D01*
X154503428Y-142533714D01*
X154265333Y-142533714D01*
X154074857Y-142486095D01*
X153979619Y-142438476D01*
X153932000Y-142390857D01*
X153884380Y-142295619D01*
X154884380Y-141009904D02*
X154884380Y-141581333D01*
X154884380Y-141295619D02*
X153884380Y-141295619D01*
X154027238Y-141390857D01*
X154122476Y-141486095D01*
X154170095Y-141581333D01*
G04 #@! TO.C,C402*
X146661142Y-138787047D02*
X146708761Y-138834666D01*
X146756380Y-138977523D01*
X146756380Y-139072761D01*
X146708761Y-139215619D01*
X146613523Y-139310857D01*
X146518285Y-139358476D01*
X146327809Y-139406095D01*
X146184952Y-139406095D01*
X145994476Y-139358476D01*
X145899238Y-139310857D01*
X145804000Y-139215619D01*
X145756380Y-139072761D01*
X145756380Y-138977523D01*
X145804000Y-138834666D01*
X145851619Y-138787047D01*
X146089714Y-137929904D02*
X146756380Y-137929904D01*
X145708761Y-138168000D02*
X146423047Y-138406095D01*
X146423047Y-137787047D01*
X145756380Y-137215619D02*
X145756380Y-137120380D01*
X145804000Y-137025142D01*
X145851619Y-136977523D01*
X145946857Y-136929904D01*
X146137333Y-136882285D01*
X146375428Y-136882285D01*
X146565904Y-136929904D01*
X146661142Y-136977523D01*
X146708761Y-137025142D01*
X146756380Y-137120380D01*
X146756380Y-137215619D01*
X146708761Y-137310857D01*
X146661142Y-137358476D01*
X146565904Y-137406095D01*
X146375428Y-137453714D01*
X146137333Y-137453714D01*
X145946857Y-137406095D01*
X145851619Y-137358476D01*
X145804000Y-137310857D01*
X145756380Y-137215619D01*
X145851619Y-136501333D02*
X145804000Y-136453714D01*
X145756380Y-136358476D01*
X145756380Y-136120380D01*
X145804000Y-136025142D01*
X145851619Y-135977523D01*
X145946857Y-135929904D01*
X146042095Y-135929904D01*
X146184952Y-135977523D01*
X146756380Y-136548952D01*
X146756380Y-135929904D01*
G04 #@! TO.C,C403*
X156821142Y-141835047D02*
X156868761Y-141882666D01*
X156916380Y-142025523D01*
X156916380Y-142120761D01*
X156868761Y-142263619D01*
X156773523Y-142358857D01*
X156678285Y-142406476D01*
X156487809Y-142454095D01*
X156344952Y-142454095D01*
X156154476Y-142406476D01*
X156059238Y-142358857D01*
X155964000Y-142263619D01*
X155916380Y-142120761D01*
X155916380Y-142025523D01*
X155964000Y-141882666D01*
X156011619Y-141835047D01*
X156249714Y-140977904D02*
X156916380Y-140977904D01*
X155868761Y-141216000D02*
X156583047Y-141454095D01*
X156583047Y-140835047D01*
X155916380Y-140263619D02*
X155916380Y-140168380D01*
X155964000Y-140073142D01*
X156011619Y-140025523D01*
X156106857Y-139977904D01*
X156297333Y-139930285D01*
X156535428Y-139930285D01*
X156725904Y-139977904D01*
X156821142Y-140025523D01*
X156868761Y-140073142D01*
X156916380Y-140168380D01*
X156916380Y-140263619D01*
X156868761Y-140358857D01*
X156821142Y-140406476D01*
X156725904Y-140454095D01*
X156535428Y-140501714D01*
X156297333Y-140501714D01*
X156106857Y-140454095D01*
X156011619Y-140406476D01*
X155964000Y-140358857D01*
X155916380Y-140263619D01*
X155916380Y-139596952D02*
X155916380Y-138977904D01*
X156297333Y-139311238D01*
X156297333Y-139168380D01*
X156344952Y-139073142D01*
X156392571Y-139025523D01*
X156487809Y-138977904D01*
X156725904Y-138977904D01*
X156821142Y-139025523D01*
X156868761Y-139073142D01*
X156916380Y-139168380D01*
X156916380Y-139454095D01*
X156868761Y-139549333D01*
X156821142Y-139596952D01*
G04 #@! TO.C,C406*
X158011952Y-122404142D02*
X157964333Y-122451761D01*
X157821476Y-122499380D01*
X157726238Y-122499380D01*
X157583380Y-122451761D01*
X157488142Y-122356523D01*
X157440523Y-122261285D01*
X157392904Y-122070809D01*
X157392904Y-121927952D01*
X157440523Y-121737476D01*
X157488142Y-121642238D01*
X157583380Y-121547000D01*
X157726238Y-121499380D01*
X157821476Y-121499380D01*
X157964333Y-121547000D01*
X158011952Y-121594619D01*
X158869095Y-121832714D02*
X158869095Y-122499380D01*
X158631000Y-121451761D02*
X158392904Y-122166047D01*
X159011952Y-122166047D01*
X159583380Y-121499380D02*
X159678619Y-121499380D01*
X159773857Y-121547000D01*
X159821476Y-121594619D01*
X159869095Y-121689857D01*
X159916714Y-121880333D01*
X159916714Y-122118428D01*
X159869095Y-122308904D01*
X159821476Y-122404142D01*
X159773857Y-122451761D01*
X159678619Y-122499380D01*
X159583380Y-122499380D01*
X159488142Y-122451761D01*
X159440523Y-122404142D01*
X159392904Y-122308904D01*
X159345285Y-122118428D01*
X159345285Y-121880333D01*
X159392904Y-121689857D01*
X159440523Y-121594619D01*
X159488142Y-121547000D01*
X159583380Y-121499380D01*
X160773857Y-121499380D02*
X160583380Y-121499380D01*
X160488142Y-121547000D01*
X160440523Y-121594619D01*
X160345285Y-121737476D01*
X160297666Y-121927952D01*
X160297666Y-122308904D01*
X160345285Y-122404142D01*
X160392904Y-122451761D01*
X160488142Y-122499380D01*
X160678619Y-122499380D01*
X160773857Y-122451761D01*
X160821476Y-122404142D01*
X160869095Y-122308904D01*
X160869095Y-122070809D01*
X160821476Y-121975571D01*
X160773857Y-121927952D01*
X160678619Y-121880333D01*
X160488142Y-121880333D01*
X160392904Y-121927952D01*
X160345285Y-121975571D01*
X160297666Y-122070809D01*
G04 #@! TO.C,C407*
X77065142Y-94083047D02*
X77112761Y-94130666D01*
X77160380Y-94273523D01*
X77160380Y-94368761D01*
X77112761Y-94511619D01*
X77017523Y-94606857D01*
X76922285Y-94654476D01*
X76731809Y-94702095D01*
X76588952Y-94702095D01*
X76398476Y-94654476D01*
X76303238Y-94606857D01*
X76208000Y-94511619D01*
X76160380Y-94368761D01*
X76160380Y-94273523D01*
X76208000Y-94130666D01*
X76255619Y-94083047D01*
X76493714Y-93225904D02*
X77160380Y-93225904D01*
X76112761Y-93464000D02*
X76827047Y-93702095D01*
X76827047Y-93083047D01*
X76160380Y-92511619D02*
X76160380Y-92416380D01*
X76208000Y-92321142D01*
X76255619Y-92273523D01*
X76350857Y-92225904D01*
X76541333Y-92178285D01*
X76779428Y-92178285D01*
X76969904Y-92225904D01*
X77065142Y-92273523D01*
X77112761Y-92321142D01*
X77160380Y-92416380D01*
X77160380Y-92511619D01*
X77112761Y-92606857D01*
X77065142Y-92654476D01*
X76969904Y-92702095D01*
X76779428Y-92749714D01*
X76541333Y-92749714D01*
X76350857Y-92702095D01*
X76255619Y-92654476D01*
X76208000Y-92606857D01*
X76160380Y-92511619D01*
X76160380Y-91844952D02*
X76160380Y-91178285D01*
X77160380Y-91606857D01*
G04 #@! TO.C,C408*
X89765142Y-94210047D02*
X89812761Y-94257666D01*
X89860380Y-94400523D01*
X89860380Y-94495761D01*
X89812761Y-94638619D01*
X89717523Y-94733857D01*
X89622285Y-94781476D01*
X89431809Y-94829095D01*
X89288952Y-94829095D01*
X89098476Y-94781476D01*
X89003238Y-94733857D01*
X88908000Y-94638619D01*
X88860380Y-94495761D01*
X88860380Y-94400523D01*
X88908000Y-94257666D01*
X88955619Y-94210047D01*
X89193714Y-93352904D02*
X89860380Y-93352904D01*
X88812761Y-93591000D02*
X89527047Y-93829095D01*
X89527047Y-93210047D01*
X88860380Y-92638619D02*
X88860380Y-92543380D01*
X88908000Y-92448142D01*
X88955619Y-92400523D01*
X89050857Y-92352904D01*
X89241333Y-92305285D01*
X89479428Y-92305285D01*
X89669904Y-92352904D01*
X89765142Y-92400523D01*
X89812761Y-92448142D01*
X89860380Y-92543380D01*
X89860380Y-92638619D01*
X89812761Y-92733857D01*
X89765142Y-92781476D01*
X89669904Y-92829095D01*
X89479428Y-92876714D01*
X89241333Y-92876714D01*
X89050857Y-92829095D01*
X88955619Y-92781476D01*
X88908000Y-92733857D01*
X88860380Y-92638619D01*
X89288952Y-91733857D02*
X89241333Y-91829095D01*
X89193714Y-91876714D01*
X89098476Y-91924333D01*
X89050857Y-91924333D01*
X88955619Y-91876714D01*
X88908000Y-91829095D01*
X88860380Y-91733857D01*
X88860380Y-91543380D01*
X88908000Y-91448142D01*
X88955619Y-91400523D01*
X89050857Y-91352904D01*
X89098476Y-91352904D01*
X89193714Y-91400523D01*
X89241333Y-91448142D01*
X89288952Y-91543380D01*
X89288952Y-91733857D01*
X89336571Y-91829095D01*
X89384190Y-91876714D01*
X89479428Y-91924333D01*
X89669904Y-91924333D01*
X89765142Y-91876714D01*
X89812761Y-91829095D01*
X89860380Y-91733857D01*
X89860380Y-91543380D01*
X89812761Y-91448142D01*
X89765142Y-91400523D01*
X89669904Y-91352904D01*
X89479428Y-91352904D01*
X89384190Y-91400523D01*
X89336571Y-91448142D01*
X89288952Y-91543380D01*
G04 #@! TO.C,C601*
X101293752Y-101398342D02*
X101246133Y-101445961D01*
X101103276Y-101493580D01*
X101008038Y-101493580D01*
X100865180Y-101445961D01*
X100769942Y-101350723D01*
X100722323Y-101255485D01*
X100674704Y-101065009D01*
X100674704Y-100922152D01*
X100722323Y-100731676D01*
X100769942Y-100636438D01*
X100865180Y-100541200D01*
X101008038Y-100493580D01*
X101103276Y-100493580D01*
X101246133Y-100541200D01*
X101293752Y-100588819D01*
X102150895Y-100493580D02*
X101960419Y-100493580D01*
X101865180Y-100541200D01*
X101817561Y-100588819D01*
X101722323Y-100731676D01*
X101674704Y-100922152D01*
X101674704Y-101303104D01*
X101722323Y-101398342D01*
X101769942Y-101445961D01*
X101865180Y-101493580D01*
X102055657Y-101493580D01*
X102150895Y-101445961D01*
X102198514Y-101398342D01*
X102246133Y-101303104D01*
X102246133Y-101065009D01*
X102198514Y-100969771D01*
X102150895Y-100922152D01*
X102055657Y-100874533D01*
X101865180Y-100874533D01*
X101769942Y-100922152D01*
X101722323Y-100969771D01*
X101674704Y-101065009D01*
X102865180Y-100493580D02*
X102960419Y-100493580D01*
X103055657Y-100541200D01*
X103103276Y-100588819D01*
X103150895Y-100684057D01*
X103198514Y-100874533D01*
X103198514Y-101112628D01*
X103150895Y-101303104D01*
X103103276Y-101398342D01*
X103055657Y-101445961D01*
X102960419Y-101493580D01*
X102865180Y-101493580D01*
X102769942Y-101445961D01*
X102722323Y-101398342D01*
X102674704Y-101303104D01*
X102627085Y-101112628D01*
X102627085Y-100874533D01*
X102674704Y-100684057D01*
X102722323Y-100588819D01*
X102769942Y-100541200D01*
X102865180Y-100493580D01*
X104150895Y-101493580D02*
X103579466Y-101493580D01*
X103865180Y-101493580D02*
X103865180Y-100493580D01*
X103769942Y-100636438D01*
X103674704Y-100731676D01*
X103579466Y-100779295D01*
G04 #@! TO.C,C602*
X97077352Y-101398342D02*
X97029733Y-101445961D01*
X96886876Y-101493580D01*
X96791638Y-101493580D01*
X96648780Y-101445961D01*
X96553542Y-101350723D01*
X96505923Y-101255485D01*
X96458304Y-101065009D01*
X96458304Y-100922152D01*
X96505923Y-100731676D01*
X96553542Y-100636438D01*
X96648780Y-100541200D01*
X96791638Y-100493580D01*
X96886876Y-100493580D01*
X97029733Y-100541200D01*
X97077352Y-100588819D01*
X97934495Y-100493580D02*
X97744019Y-100493580D01*
X97648780Y-100541200D01*
X97601161Y-100588819D01*
X97505923Y-100731676D01*
X97458304Y-100922152D01*
X97458304Y-101303104D01*
X97505923Y-101398342D01*
X97553542Y-101445961D01*
X97648780Y-101493580D01*
X97839257Y-101493580D01*
X97934495Y-101445961D01*
X97982114Y-101398342D01*
X98029733Y-101303104D01*
X98029733Y-101065009D01*
X97982114Y-100969771D01*
X97934495Y-100922152D01*
X97839257Y-100874533D01*
X97648780Y-100874533D01*
X97553542Y-100922152D01*
X97505923Y-100969771D01*
X97458304Y-101065009D01*
X98648780Y-100493580D02*
X98744019Y-100493580D01*
X98839257Y-100541200D01*
X98886876Y-100588819D01*
X98934495Y-100684057D01*
X98982114Y-100874533D01*
X98982114Y-101112628D01*
X98934495Y-101303104D01*
X98886876Y-101398342D01*
X98839257Y-101445961D01*
X98744019Y-101493580D01*
X98648780Y-101493580D01*
X98553542Y-101445961D01*
X98505923Y-101398342D01*
X98458304Y-101303104D01*
X98410685Y-101112628D01*
X98410685Y-100874533D01*
X98458304Y-100684057D01*
X98505923Y-100588819D01*
X98553542Y-100541200D01*
X98648780Y-100493580D01*
X99363066Y-100588819D02*
X99410685Y-100541200D01*
X99505923Y-100493580D01*
X99744019Y-100493580D01*
X99839257Y-100541200D01*
X99886876Y-100588819D01*
X99934495Y-100684057D01*
X99934495Y-100779295D01*
X99886876Y-100922152D01*
X99315447Y-101493580D01*
X99934495Y-101493580D01*
G04 #@! TO.C,D201*
X107529523Y-94686380D02*
X107529523Y-93686380D01*
X107767619Y-93686380D01*
X107910476Y-93734000D01*
X108005714Y-93829238D01*
X108053333Y-93924476D01*
X108100952Y-94114952D01*
X108100952Y-94257809D01*
X108053333Y-94448285D01*
X108005714Y-94543523D01*
X107910476Y-94638761D01*
X107767619Y-94686380D01*
X107529523Y-94686380D01*
X108481904Y-93781619D02*
X108529523Y-93734000D01*
X108624761Y-93686380D01*
X108862857Y-93686380D01*
X108958095Y-93734000D01*
X109005714Y-93781619D01*
X109053333Y-93876857D01*
X109053333Y-93972095D01*
X109005714Y-94114952D01*
X108434285Y-94686380D01*
X109053333Y-94686380D01*
X109672380Y-93686380D02*
X109767619Y-93686380D01*
X109862857Y-93734000D01*
X109910476Y-93781619D01*
X109958095Y-93876857D01*
X110005714Y-94067333D01*
X110005714Y-94305428D01*
X109958095Y-94495904D01*
X109910476Y-94591142D01*
X109862857Y-94638761D01*
X109767619Y-94686380D01*
X109672380Y-94686380D01*
X109577142Y-94638761D01*
X109529523Y-94591142D01*
X109481904Y-94495904D01*
X109434285Y-94305428D01*
X109434285Y-94067333D01*
X109481904Y-93876857D01*
X109529523Y-93781619D01*
X109577142Y-93734000D01*
X109672380Y-93686380D01*
X110958095Y-94686380D02*
X110386666Y-94686380D01*
X110672380Y-94686380D02*
X110672380Y-93686380D01*
X110577142Y-93829238D01*
X110481904Y-93924476D01*
X110386666Y-93972095D01*
G04 #@! TO.C,D301*
X174442380Y-133770476D02*
X173442380Y-133770476D01*
X173442380Y-133532380D01*
X173490000Y-133389523D01*
X173585238Y-133294285D01*
X173680476Y-133246666D01*
X173870952Y-133199047D01*
X174013809Y-133199047D01*
X174204285Y-133246666D01*
X174299523Y-133294285D01*
X174394761Y-133389523D01*
X174442380Y-133532380D01*
X174442380Y-133770476D01*
X173442380Y-132865714D02*
X173442380Y-132246666D01*
X173823333Y-132580000D01*
X173823333Y-132437142D01*
X173870952Y-132341904D01*
X173918571Y-132294285D01*
X174013809Y-132246666D01*
X174251904Y-132246666D01*
X174347142Y-132294285D01*
X174394761Y-132341904D01*
X174442380Y-132437142D01*
X174442380Y-132722857D01*
X174394761Y-132818095D01*
X174347142Y-132865714D01*
X173442380Y-131627619D02*
X173442380Y-131532380D01*
X173490000Y-131437142D01*
X173537619Y-131389523D01*
X173632857Y-131341904D01*
X173823333Y-131294285D01*
X174061428Y-131294285D01*
X174251904Y-131341904D01*
X174347142Y-131389523D01*
X174394761Y-131437142D01*
X174442380Y-131532380D01*
X174442380Y-131627619D01*
X174394761Y-131722857D01*
X174347142Y-131770476D01*
X174251904Y-131818095D01*
X174061428Y-131865714D01*
X173823333Y-131865714D01*
X173632857Y-131818095D01*
X173537619Y-131770476D01*
X173490000Y-131722857D01*
X173442380Y-131627619D01*
X174442380Y-130341904D02*
X174442380Y-130913333D01*
X174442380Y-130627619D02*
X173442380Y-130627619D01*
X173585238Y-130722857D01*
X173680476Y-130818095D01*
X173728095Y-130913333D01*
G04 #@! TO.C,D302*
X173172380Y-133770476D02*
X172172380Y-133770476D01*
X172172380Y-133532380D01*
X172220000Y-133389523D01*
X172315238Y-133294285D01*
X172410476Y-133246666D01*
X172600952Y-133199047D01*
X172743809Y-133199047D01*
X172934285Y-133246666D01*
X173029523Y-133294285D01*
X173124761Y-133389523D01*
X173172380Y-133532380D01*
X173172380Y-133770476D01*
X172172380Y-132865714D02*
X172172380Y-132246666D01*
X172553333Y-132580000D01*
X172553333Y-132437142D01*
X172600952Y-132341904D01*
X172648571Y-132294285D01*
X172743809Y-132246666D01*
X172981904Y-132246666D01*
X173077142Y-132294285D01*
X173124761Y-132341904D01*
X173172380Y-132437142D01*
X173172380Y-132722857D01*
X173124761Y-132818095D01*
X173077142Y-132865714D01*
X172172380Y-131627619D02*
X172172380Y-131532380D01*
X172220000Y-131437142D01*
X172267619Y-131389523D01*
X172362857Y-131341904D01*
X172553333Y-131294285D01*
X172791428Y-131294285D01*
X172981904Y-131341904D01*
X173077142Y-131389523D01*
X173124761Y-131437142D01*
X173172380Y-131532380D01*
X173172380Y-131627619D01*
X173124761Y-131722857D01*
X173077142Y-131770476D01*
X172981904Y-131818095D01*
X172791428Y-131865714D01*
X172553333Y-131865714D01*
X172362857Y-131818095D01*
X172267619Y-131770476D01*
X172220000Y-131722857D01*
X172172380Y-131627619D01*
X172267619Y-130913333D02*
X172220000Y-130865714D01*
X172172380Y-130770476D01*
X172172380Y-130532380D01*
X172220000Y-130437142D01*
X172267619Y-130389523D01*
X172362857Y-130341904D01*
X172458095Y-130341904D01*
X172600952Y-130389523D01*
X173172380Y-130960952D01*
X173172380Y-130341904D01*
G04 #@! TO.C,D401*
X146502380Y-146470476D02*
X145502380Y-146470476D01*
X145502380Y-146232380D01*
X145550000Y-146089523D01*
X145645238Y-145994285D01*
X145740476Y-145946666D01*
X145930952Y-145899047D01*
X146073809Y-145899047D01*
X146264285Y-145946666D01*
X146359523Y-145994285D01*
X146454761Y-146089523D01*
X146502380Y-146232380D01*
X146502380Y-146470476D01*
X145835714Y-145041904D02*
X146502380Y-145041904D01*
X145454761Y-145280000D02*
X146169047Y-145518095D01*
X146169047Y-144899047D01*
X145502380Y-144327619D02*
X145502380Y-144232380D01*
X145550000Y-144137142D01*
X145597619Y-144089523D01*
X145692857Y-144041904D01*
X145883333Y-143994285D01*
X146121428Y-143994285D01*
X146311904Y-144041904D01*
X146407142Y-144089523D01*
X146454761Y-144137142D01*
X146502380Y-144232380D01*
X146502380Y-144327619D01*
X146454761Y-144422857D01*
X146407142Y-144470476D01*
X146311904Y-144518095D01*
X146121428Y-144565714D01*
X145883333Y-144565714D01*
X145692857Y-144518095D01*
X145597619Y-144470476D01*
X145550000Y-144422857D01*
X145502380Y-144327619D01*
X146502380Y-143041904D02*
X146502380Y-143613333D01*
X146502380Y-143327619D02*
X145502380Y-143327619D01*
X145645238Y-143422857D01*
X145740476Y-143518095D01*
X145788095Y-143613333D01*
G04 #@! TO.C,FB401*
X152328571Y-145041714D02*
X152328571Y-145375047D01*
X152852380Y-145375047D02*
X151852380Y-145375047D01*
X151852380Y-144898857D01*
X152328571Y-144184571D02*
X152376190Y-144041714D01*
X152423809Y-143994095D01*
X152519047Y-143946476D01*
X152661904Y-143946476D01*
X152757142Y-143994095D01*
X152804761Y-144041714D01*
X152852380Y-144136952D01*
X152852380Y-144517904D01*
X151852380Y-144517904D01*
X151852380Y-144184571D01*
X151900000Y-144089333D01*
X151947619Y-144041714D01*
X152042857Y-143994095D01*
X152138095Y-143994095D01*
X152233333Y-144041714D01*
X152280952Y-144089333D01*
X152328571Y-144184571D01*
X152328571Y-144517904D01*
X152185714Y-143089333D02*
X152852380Y-143089333D01*
X151804761Y-143327428D02*
X152519047Y-143565523D01*
X152519047Y-142946476D01*
X151852380Y-142375047D02*
X151852380Y-142279809D01*
X151900000Y-142184571D01*
X151947619Y-142136952D01*
X152042857Y-142089333D01*
X152233333Y-142041714D01*
X152471428Y-142041714D01*
X152661904Y-142089333D01*
X152757142Y-142136952D01*
X152804761Y-142184571D01*
X152852380Y-142279809D01*
X152852380Y-142375047D01*
X152804761Y-142470285D01*
X152757142Y-142517904D01*
X152661904Y-142565523D01*
X152471428Y-142613142D01*
X152233333Y-142613142D01*
X152042857Y-142565523D01*
X151947619Y-142517904D01*
X151900000Y-142470285D01*
X151852380Y-142375047D01*
X152852380Y-141089333D02*
X152852380Y-141660761D01*
X152852380Y-141375047D02*
X151852380Y-141375047D01*
X151995238Y-141470285D01*
X152090476Y-141565523D01*
X152138095Y-141660761D01*
G04 #@! TO.C,Q301*
X168497380Y-112307619D02*
X168402142Y-112260000D01*
X168306904Y-112164761D01*
X168164047Y-112021904D01*
X168068809Y-111974285D01*
X167973571Y-111974285D01*
X168021190Y-112212380D02*
X167925952Y-112164761D01*
X167830714Y-112069523D01*
X167783095Y-111879047D01*
X167783095Y-111545714D01*
X167830714Y-111355238D01*
X167925952Y-111260000D01*
X168021190Y-111212380D01*
X168211666Y-111212380D01*
X168306904Y-111260000D01*
X168402142Y-111355238D01*
X168449761Y-111545714D01*
X168449761Y-111879047D01*
X168402142Y-112069523D01*
X168306904Y-112164761D01*
X168211666Y-112212380D01*
X168021190Y-112212380D01*
X168783095Y-111212380D02*
X169402142Y-111212380D01*
X169068809Y-111593333D01*
X169211666Y-111593333D01*
X169306904Y-111640952D01*
X169354523Y-111688571D01*
X169402142Y-111783809D01*
X169402142Y-112021904D01*
X169354523Y-112117142D01*
X169306904Y-112164761D01*
X169211666Y-112212380D01*
X168925952Y-112212380D01*
X168830714Y-112164761D01*
X168783095Y-112117142D01*
X170021190Y-111212380D02*
X170116428Y-111212380D01*
X170211666Y-111260000D01*
X170259285Y-111307619D01*
X170306904Y-111402857D01*
X170354523Y-111593333D01*
X170354523Y-111831428D01*
X170306904Y-112021904D01*
X170259285Y-112117142D01*
X170211666Y-112164761D01*
X170116428Y-112212380D01*
X170021190Y-112212380D01*
X169925952Y-112164761D01*
X169878333Y-112117142D01*
X169830714Y-112021904D01*
X169783095Y-111831428D01*
X169783095Y-111593333D01*
X169830714Y-111402857D01*
X169878333Y-111307619D01*
X169925952Y-111260000D01*
X170021190Y-111212380D01*
X171306904Y-112212380D02*
X170735476Y-112212380D01*
X171021190Y-112212380D02*
X171021190Y-111212380D01*
X170925952Y-111355238D01*
X170830714Y-111450476D01*
X170735476Y-111498095D01*
G04 #@! TO.C,Q302*
X162782380Y-108497619D02*
X162687142Y-108450000D01*
X162591904Y-108354761D01*
X162449047Y-108211904D01*
X162353809Y-108164285D01*
X162258571Y-108164285D01*
X162306190Y-108402380D02*
X162210952Y-108354761D01*
X162115714Y-108259523D01*
X162068095Y-108069047D01*
X162068095Y-107735714D01*
X162115714Y-107545238D01*
X162210952Y-107450000D01*
X162306190Y-107402380D01*
X162496666Y-107402380D01*
X162591904Y-107450000D01*
X162687142Y-107545238D01*
X162734761Y-107735714D01*
X162734761Y-108069047D01*
X162687142Y-108259523D01*
X162591904Y-108354761D01*
X162496666Y-108402380D01*
X162306190Y-108402380D01*
X163068095Y-107402380D02*
X163687142Y-107402380D01*
X163353809Y-107783333D01*
X163496666Y-107783333D01*
X163591904Y-107830952D01*
X163639523Y-107878571D01*
X163687142Y-107973809D01*
X163687142Y-108211904D01*
X163639523Y-108307142D01*
X163591904Y-108354761D01*
X163496666Y-108402380D01*
X163210952Y-108402380D01*
X163115714Y-108354761D01*
X163068095Y-108307142D01*
X164306190Y-107402380D02*
X164401428Y-107402380D01*
X164496666Y-107450000D01*
X164544285Y-107497619D01*
X164591904Y-107592857D01*
X164639523Y-107783333D01*
X164639523Y-108021428D01*
X164591904Y-108211904D01*
X164544285Y-108307142D01*
X164496666Y-108354761D01*
X164401428Y-108402380D01*
X164306190Y-108402380D01*
X164210952Y-108354761D01*
X164163333Y-108307142D01*
X164115714Y-108211904D01*
X164068095Y-108021428D01*
X164068095Y-107783333D01*
X164115714Y-107592857D01*
X164163333Y-107497619D01*
X164210952Y-107450000D01*
X164306190Y-107402380D01*
X165020476Y-107497619D02*
X165068095Y-107450000D01*
X165163333Y-107402380D01*
X165401428Y-107402380D01*
X165496666Y-107450000D01*
X165544285Y-107497619D01*
X165591904Y-107592857D01*
X165591904Y-107688095D01*
X165544285Y-107830952D01*
X164972857Y-108402380D01*
X165591904Y-108402380D01*
G04 #@! TO.C,R201*
X108100952Y-92146380D02*
X107767619Y-91670190D01*
X107529523Y-92146380D02*
X107529523Y-91146380D01*
X107910476Y-91146380D01*
X108005714Y-91194000D01*
X108053333Y-91241619D01*
X108100952Y-91336857D01*
X108100952Y-91479714D01*
X108053333Y-91574952D01*
X108005714Y-91622571D01*
X107910476Y-91670190D01*
X107529523Y-91670190D01*
X108481904Y-91241619D02*
X108529523Y-91194000D01*
X108624761Y-91146380D01*
X108862857Y-91146380D01*
X108958095Y-91194000D01*
X109005714Y-91241619D01*
X109053333Y-91336857D01*
X109053333Y-91432095D01*
X109005714Y-91574952D01*
X108434285Y-92146380D01*
X109053333Y-92146380D01*
X109672380Y-91146380D02*
X109767619Y-91146380D01*
X109862857Y-91194000D01*
X109910476Y-91241619D01*
X109958095Y-91336857D01*
X110005714Y-91527333D01*
X110005714Y-91765428D01*
X109958095Y-91955904D01*
X109910476Y-92051142D01*
X109862857Y-92098761D01*
X109767619Y-92146380D01*
X109672380Y-92146380D01*
X109577142Y-92098761D01*
X109529523Y-92051142D01*
X109481904Y-91955904D01*
X109434285Y-91765428D01*
X109434285Y-91527333D01*
X109481904Y-91336857D01*
X109529523Y-91241619D01*
X109577142Y-91194000D01*
X109672380Y-91146380D01*
X110958095Y-92146380D02*
X110386666Y-92146380D01*
X110672380Y-92146380D02*
X110672380Y-91146380D01*
X110577142Y-91289238D01*
X110481904Y-91384476D01*
X110386666Y-91432095D01*
G04 #@! TO.C,R202*
X108100952Y-97480380D02*
X107767619Y-97004190D01*
X107529523Y-97480380D02*
X107529523Y-96480380D01*
X107910476Y-96480380D01*
X108005714Y-96528000D01*
X108053333Y-96575619D01*
X108100952Y-96670857D01*
X108100952Y-96813714D01*
X108053333Y-96908952D01*
X108005714Y-96956571D01*
X107910476Y-97004190D01*
X107529523Y-97004190D01*
X108481904Y-96575619D02*
X108529523Y-96528000D01*
X108624761Y-96480380D01*
X108862857Y-96480380D01*
X108958095Y-96528000D01*
X109005714Y-96575619D01*
X109053333Y-96670857D01*
X109053333Y-96766095D01*
X109005714Y-96908952D01*
X108434285Y-97480380D01*
X109053333Y-97480380D01*
X109672380Y-96480380D02*
X109767619Y-96480380D01*
X109862857Y-96528000D01*
X109910476Y-96575619D01*
X109958095Y-96670857D01*
X110005714Y-96861333D01*
X110005714Y-97099428D01*
X109958095Y-97289904D01*
X109910476Y-97385142D01*
X109862857Y-97432761D01*
X109767619Y-97480380D01*
X109672380Y-97480380D01*
X109577142Y-97432761D01*
X109529523Y-97385142D01*
X109481904Y-97289904D01*
X109434285Y-97099428D01*
X109434285Y-96861333D01*
X109481904Y-96670857D01*
X109529523Y-96575619D01*
X109577142Y-96528000D01*
X109672380Y-96480380D01*
X110386666Y-96575619D02*
X110434285Y-96528000D01*
X110529523Y-96480380D01*
X110767619Y-96480380D01*
X110862857Y-96528000D01*
X110910476Y-96575619D01*
X110958095Y-96670857D01*
X110958095Y-96766095D01*
X110910476Y-96908952D01*
X110339047Y-97480380D01*
X110958095Y-97480380D01*
G04 #@! TO.C,R203*
X108100952Y-99766380D02*
X107767619Y-99290190D01*
X107529523Y-99766380D02*
X107529523Y-98766380D01*
X107910476Y-98766380D01*
X108005714Y-98814000D01*
X108053333Y-98861619D01*
X108100952Y-98956857D01*
X108100952Y-99099714D01*
X108053333Y-99194952D01*
X108005714Y-99242571D01*
X107910476Y-99290190D01*
X107529523Y-99290190D01*
X108481904Y-98861619D02*
X108529523Y-98814000D01*
X108624761Y-98766380D01*
X108862857Y-98766380D01*
X108958095Y-98814000D01*
X109005714Y-98861619D01*
X109053333Y-98956857D01*
X109053333Y-99052095D01*
X109005714Y-99194952D01*
X108434285Y-99766380D01*
X109053333Y-99766380D01*
X109672380Y-98766380D02*
X109767619Y-98766380D01*
X109862857Y-98814000D01*
X109910476Y-98861619D01*
X109958095Y-98956857D01*
X110005714Y-99147333D01*
X110005714Y-99385428D01*
X109958095Y-99575904D01*
X109910476Y-99671142D01*
X109862857Y-99718761D01*
X109767619Y-99766380D01*
X109672380Y-99766380D01*
X109577142Y-99718761D01*
X109529523Y-99671142D01*
X109481904Y-99575904D01*
X109434285Y-99385428D01*
X109434285Y-99147333D01*
X109481904Y-98956857D01*
X109529523Y-98861619D01*
X109577142Y-98814000D01*
X109672380Y-98766380D01*
X110339047Y-98766380D02*
X110958095Y-98766380D01*
X110624761Y-99147333D01*
X110767619Y-99147333D01*
X110862857Y-99194952D01*
X110910476Y-99242571D01*
X110958095Y-99337809D01*
X110958095Y-99575904D01*
X110910476Y-99671142D01*
X110862857Y-99718761D01*
X110767619Y-99766380D01*
X110481904Y-99766380D01*
X110386666Y-99718761D01*
X110339047Y-99671142D01*
G04 #@! TO.C,R204*
X98753752Y-85593180D02*
X98420419Y-85116990D01*
X98182323Y-85593180D02*
X98182323Y-84593180D01*
X98563276Y-84593180D01*
X98658514Y-84640800D01*
X98706133Y-84688419D01*
X98753752Y-84783657D01*
X98753752Y-84926514D01*
X98706133Y-85021752D01*
X98658514Y-85069371D01*
X98563276Y-85116990D01*
X98182323Y-85116990D01*
X99134704Y-84688419D02*
X99182323Y-84640800D01*
X99277561Y-84593180D01*
X99515657Y-84593180D01*
X99610895Y-84640800D01*
X99658514Y-84688419D01*
X99706133Y-84783657D01*
X99706133Y-84878895D01*
X99658514Y-85021752D01*
X99087085Y-85593180D01*
X99706133Y-85593180D01*
X100325180Y-84593180D02*
X100420419Y-84593180D01*
X100515657Y-84640800D01*
X100563276Y-84688419D01*
X100610895Y-84783657D01*
X100658514Y-84974133D01*
X100658514Y-85212228D01*
X100610895Y-85402704D01*
X100563276Y-85497942D01*
X100515657Y-85545561D01*
X100420419Y-85593180D01*
X100325180Y-85593180D01*
X100229942Y-85545561D01*
X100182323Y-85497942D01*
X100134704Y-85402704D01*
X100087085Y-85212228D01*
X100087085Y-84974133D01*
X100134704Y-84783657D01*
X100182323Y-84688419D01*
X100229942Y-84640800D01*
X100325180Y-84593180D01*
X101515657Y-84926514D02*
X101515657Y-85593180D01*
X101277561Y-84545561D02*
X101039466Y-85259847D01*
X101658514Y-85259847D01*
G04 #@! TO.C,R205*
X98804552Y-83459580D02*
X98471219Y-82983390D01*
X98233123Y-83459580D02*
X98233123Y-82459580D01*
X98614076Y-82459580D01*
X98709314Y-82507200D01*
X98756933Y-82554819D01*
X98804552Y-82650057D01*
X98804552Y-82792914D01*
X98756933Y-82888152D01*
X98709314Y-82935771D01*
X98614076Y-82983390D01*
X98233123Y-82983390D01*
X99185504Y-82554819D02*
X99233123Y-82507200D01*
X99328361Y-82459580D01*
X99566457Y-82459580D01*
X99661695Y-82507200D01*
X99709314Y-82554819D01*
X99756933Y-82650057D01*
X99756933Y-82745295D01*
X99709314Y-82888152D01*
X99137885Y-83459580D01*
X99756933Y-83459580D01*
X100375980Y-82459580D02*
X100471219Y-82459580D01*
X100566457Y-82507200D01*
X100614076Y-82554819D01*
X100661695Y-82650057D01*
X100709314Y-82840533D01*
X100709314Y-83078628D01*
X100661695Y-83269104D01*
X100614076Y-83364342D01*
X100566457Y-83411961D01*
X100471219Y-83459580D01*
X100375980Y-83459580D01*
X100280742Y-83411961D01*
X100233123Y-83364342D01*
X100185504Y-83269104D01*
X100137885Y-83078628D01*
X100137885Y-82840533D01*
X100185504Y-82650057D01*
X100233123Y-82554819D01*
X100280742Y-82507200D01*
X100375980Y-82459580D01*
X101614076Y-82459580D02*
X101137885Y-82459580D01*
X101090266Y-82935771D01*
X101137885Y-82888152D01*
X101233123Y-82840533D01*
X101471219Y-82840533D01*
X101566457Y-82888152D01*
X101614076Y-82935771D01*
X101661695Y-83031009D01*
X101661695Y-83269104D01*
X101614076Y-83364342D01*
X101566457Y-83411961D01*
X101471219Y-83459580D01*
X101233123Y-83459580D01*
X101137885Y-83411961D01*
X101090266Y-83364342D01*
G04 #@! TO.C,R206*
X108100952Y-102052380D02*
X107767619Y-101576190D01*
X107529523Y-102052380D02*
X107529523Y-101052380D01*
X107910476Y-101052380D01*
X108005714Y-101100000D01*
X108053333Y-101147619D01*
X108100952Y-101242857D01*
X108100952Y-101385714D01*
X108053333Y-101480952D01*
X108005714Y-101528571D01*
X107910476Y-101576190D01*
X107529523Y-101576190D01*
X108481904Y-101147619D02*
X108529523Y-101100000D01*
X108624761Y-101052380D01*
X108862857Y-101052380D01*
X108958095Y-101100000D01*
X109005714Y-101147619D01*
X109053333Y-101242857D01*
X109053333Y-101338095D01*
X109005714Y-101480952D01*
X108434285Y-102052380D01*
X109053333Y-102052380D01*
X109672380Y-101052380D02*
X109767619Y-101052380D01*
X109862857Y-101100000D01*
X109910476Y-101147619D01*
X109958095Y-101242857D01*
X110005714Y-101433333D01*
X110005714Y-101671428D01*
X109958095Y-101861904D01*
X109910476Y-101957142D01*
X109862857Y-102004761D01*
X109767619Y-102052380D01*
X109672380Y-102052380D01*
X109577142Y-102004761D01*
X109529523Y-101957142D01*
X109481904Y-101861904D01*
X109434285Y-101671428D01*
X109434285Y-101433333D01*
X109481904Y-101242857D01*
X109529523Y-101147619D01*
X109577142Y-101100000D01*
X109672380Y-101052380D01*
X110862857Y-101052380D02*
X110672380Y-101052380D01*
X110577142Y-101100000D01*
X110529523Y-101147619D01*
X110434285Y-101290476D01*
X110386666Y-101480952D01*
X110386666Y-101861904D01*
X110434285Y-101957142D01*
X110481904Y-102004761D01*
X110577142Y-102052380D01*
X110767619Y-102052380D01*
X110862857Y-102004761D01*
X110910476Y-101957142D01*
X110958095Y-101861904D01*
X110958095Y-101623809D01*
X110910476Y-101528571D01*
X110862857Y-101480952D01*
X110767619Y-101433333D01*
X110577142Y-101433333D01*
X110481904Y-101480952D01*
X110434285Y-101528571D01*
X110386666Y-101623809D01*
G04 #@! TO.C,R207*
X108100952Y-104338380D02*
X107767619Y-103862190D01*
X107529523Y-104338380D02*
X107529523Y-103338380D01*
X107910476Y-103338380D01*
X108005714Y-103386000D01*
X108053333Y-103433619D01*
X108100952Y-103528857D01*
X108100952Y-103671714D01*
X108053333Y-103766952D01*
X108005714Y-103814571D01*
X107910476Y-103862190D01*
X107529523Y-103862190D01*
X108481904Y-103433619D02*
X108529523Y-103386000D01*
X108624761Y-103338380D01*
X108862857Y-103338380D01*
X108958095Y-103386000D01*
X109005714Y-103433619D01*
X109053333Y-103528857D01*
X109053333Y-103624095D01*
X109005714Y-103766952D01*
X108434285Y-104338380D01*
X109053333Y-104338380D01*
X109672380Y-103338380D02*
X109767619Y-103338380D01*
X109862857Y-103386000D01*
X109910476Y-103433619D01*
X109958095Y-103528857D01*
X110005714Y-103719333D01*
X110005714Y-103957428D01*
X109958095Y-104147904D01*
X109910476Y-104243142D01*
X109862857Y-104290761D01*
X109767619Y-104338380D01*
X109672380Y-104338380D01*
X109577142Y-104290761D01*
X109529523Y-104243142D01*
X109481904Y-104147904D01*
X109434285Y-103957428D01*
X109434285Y-103719333D01*
X109481904Y-103528857D01*
X109529523Y-103433619D01*
X109577142Y-103386000D01*
X109672380Y-103338380D01*
X110339047Y-103338380D02*
X111005714Y-103338380D01*
X110577142Y-104338380D01*
G04 #@! TO.C,R208*
X106675180Y-105309847D02*
X106198990Y-105643180D01*
X106675180Y-105881276D02*
X105675180Y-105881276D01*
X105675180Y-105500323D01*
X105722800Y-105405085D01*
X105770419Y-105357466D01*
X105865657Y-105309847D01*
X106008514Y-105309847D01*
X106103752Y-105357466D01*
X106151371Y-105405085D01*
X106198990Y-105500323D01*
X106198990Y-105881276D01*
X105770419Y-104928895D02*
X105722800Y-104881276D01*
X105675180Y-104786038D01*
X105675180Y-104547942D01*
X105722800Y-104452704D01*
X105770419Y-104405085D01*
X105865657Y-104357466D01*
X105960895Y-104357466D01*
X106103752Y-104405085D01*
X106675180Y-104976514D01*
X106675180Y-104357466D01*
X105675180Y-103738419D02*
X105675180Y-103643180D01*
X105722800Y-103547942D01*
X105770419Y-103500323D01*
X105865657Y-103452704D01*
X106056133Y-103405085D01*
X106294228Y-103405085D01*
X106484704Y-103452704D01*
X106579942Y-103500323D01*
X106627561Y-103547942D01*
X106675180Y-103643180D01*
X106675180Y-103738419D01*
X106627561Y-103833657D01*
X106579942Y-103881276D01*
X106484704Y-103928895D01*
X106294228Y-103976514D01*
X106056133Y-103976514D01*
X105865657Y-103928895D01*
X105770419Y-103881276D01*
X105722800Y-103833657D01*
X105675180Y-103738419D01*
X106103752Y-102833657D02*
X106056133Y-102928895D01*
X106008514Y-102976514D01*
X105913276Y-103024133D01*
X105865657Y-103024133D01*
X105770419Y-102976514D01*
X105722800Y-102928895D01*
X105675180Y-102833657D01*
X105675180Y-102643180D01*
X105722800Y-102547942D01*
X105770419Y-102500323D01*
X105865657Y-102452704D01*
X105913276Y-102452704D01*
X106008514Y-102500323D01*
X106056133Y-102547942D01*
X106103752Y-102643180D01*
X106103752Y-102833657D01*
X106151371Y-102928895D01*
X106198990Y-102976514D01*
X106294228Y-103024133D01*
X106484704Y-103024133D01*
X106579942Y-102976514D01*
X106627561Y-102928895D01*
X106675180Y-102833657D01*
X106675180Y-102643180D01*
X106627561Y-102547942D01*
X106579942Y-102500323D01*
X106484704Y-102452704D01*
X106294228Y-102452704D01*
X106198990Y-102500323D01*
X106151371Y-102547942D01*
X106103752Y-102643180D01*
G04 #@! TO.C,R209*
X108100952Y-106624380D02*
X107767619Y-106148190D01*
X107529523Y-106624380D02*
X107529523Y-105624380D01*
X107910476Y-105624380D01*
X108005714Y-105672000D01*
X108053333Y-105719619D01*
X108100952Y-105814857D01*
X108100952Y-105957714D01*
X108053333Y-106052952D01*
X108005714Y-106100571D01*
X107910476Y-106148190D01*
X107529523Y-106148190D01*
X108481904Y-105719619D02*
X108529523Y-105672000D01*
X108624761Y-105624380D01*
X108862857Y-105624380D01*
X108958095Y-105672000D01*
X109005714Y-105719619D01*
X109053333Y-105814857D01*
X109053333Y-105910095D01*
X109005714Y-106052952D01*
X108434285Y-106624380D01*
X109053333Y-106624380D01*
X109672380Y-105624380D02*
X109767619Y-105624380D01*
X109862857Y-105672000D01*
X109910476Y-105719619D01*
X109958095Y-105814857D01*
X110005714Y-106005333D01*
X110005714Y-106243428D01*
X109958095Y-106433904D01*
X109910476Y-106529142D01*
X109862857Y-106576761D01*
X109767619Y-106624380D01*
X109672380Y-106624380D01*
X109577142Y-106576761D01*
X109529523Y-106529142D01*
X109481904Y-106433904D01*
X109434285Y-106243428D01*
X109434285Y-106005333D01*
X109481904Y-105814857D01*
X109529523Y-105719619D01*
X109577142Y-105672000D01*
X109672380Y-105624380D01*
X110481904Y-106624380D02*
X110672380Y-106624380D01*
X110767619Y-106576761D01*
X110815238Y-106529142D01*
X110910476Y-106386285D01*
X110958095Y-106195809D01*
X110958095Y-105814857D01*
X110910476Y-105719619D01*
X110862857Y-105672000D01*
X110767619Y-105624380D01*
X110577142Y-105624380D01*
X110481904Y-105672000D01*
X110434285Y-105719619D01*
X110386666Y-105814857D01*
X110386666Y-106052952D01*
X110434285Y-106148190D01*
X110481904Y-106195809D01*
X110577142Y-106243428D01*
X110767619Y-106243428D01*
X110862857Y-106195809D01*
X110910476Y-106148190D01*
X110958095Y-106052952D01*
G04 #@! TO.C,R301*
X158030952Y-112847380D02*
X157697619Y-112371190D01*
X157459523Y-112847380D02*
X157459523Y-111847380D01*
X157840476Y-111847380D01*
X157935714Y-111895000D01*
X157983333Y-111942619D01*
X158030952Y-112037857D01*
X158030952Y-112180714D01*
X157983333Y-112275952D01*
X157935714Y-112323571D01*
X157840476Y-112371190D01*
X157459523Y-112371190D01*
X158364285Y-111847380D02*
X158983333Y-111847380D01*
X158650000Y-112228333D01*
X158792857Y-112228333D01*
X158888095Y-112275952D01*
X158935714Y-112323571D01*
X158983333Y-112418809D01*
X158983333Y-112656904D01*
X158935714Y-112752142D01*
X158888095Y-112799761D01*
X158792857Y-112847380D01*
X158507142Y-112847380D01*
X158411904Y-112799761D01*
X158364285Y-112752142D01*
X159602380Y-111847380D02*
X159697619Y-111847380D01*
X159792857Y-111895000D01*
X159840476Y-111942619D01*
X159888095Y-112037857D01*
X159935714Y-112228333D01*
X159935714Y-112466428D01*
X159888095Y-112656904D01*
X159840476Y-112752142D01*
X159792857Y-112799761D01*
X159697619Y-112847380D01*
X159602380Y-112847380D01*
X159507142Y-112799761D01*
X159459523Y-112752142D01*
X159411904Y-112656904D01*
X159364285Y-112466428D01*
X159364285Y-112228333D01*
X159411904Y-112037857D01*
X159459523Y-111942619D01*
X159507142Y-111895000D01*
X159602380Y-111847380D01*
X160888095Y-112847380D02*
X160316666Y-112847380D01*
X160602380Y-112847380D02*
X160602380Y-111847380D01*
X160507142Y-111990238D01*
X160411904Y-112085476D01*
X160316666Y-112133095D01*
G04 #@! TO.C,R302*
X163110952Y-118992380D02*
X162777619Y-118516190D01*
X162539523Y-118992380D02*
X162539523Y-117992380D01*
X162920476Y-117992380D01*
X163015714Y-118040000D01*
X163063333Y-118087619D01*
X163110952Y-118182857D01*
X163110952Y-118325714D01*
X163063333Y-118420952D01*
X163015714Y-118468571D01*
X162920476Y-118516190D01*
X162539523Y-118516190D01*
X163444285Y-117992380D02*
X164063333Y-117992380D01*
X163730000Y-118373333D01*
X163872857Y-118373333D01*
X163968095Y-118420952D01*
X164015714Y-118468571D01*
X164063333Y-118563809D01*
X164063333Y-118801904D01*
X164015714Y-118897142D01*
X163968095Y-118944761D01*
X163872857Y-118992380D01*
X163587142Y-118992380D01*
X163491904Y-118944761D01*
X163444285Y-118897142D01*
X164682380Y-117992380D02*
X164777619Y-117992380D01*
X164872857Y-118040000D01*
X164920476Y-118087619D01*
X164968095Y-118182857D01*
X165015714Y-118373333D01*
X165015714Y-118611428D01*
X164968095Y-118801904D01*
X164920476Y-118897142D01*
X164872857Y-118944761D01*
X164777619Y-118992380D01*
X164682380Y-118992380D01*
X164587142Y-118944761D01*
X164539523Y-118897142D01*
X164491904Y-118801904D01*
X164444285Y-118611428D01*
X164444285Y-118373333D01*
X164491904Y-118182857D01*
X164539523Y-118087619D01*
X164587142Y-118040000D01*
X164682380Y-117992380D01*
X165396666Y-118087619D02*
X165444285Y-118040000D01*
X165539523Y-117992380D01*
X165777619Y-117992380D01*
X165872857Y-118040000D01*
X165920476Y-118087619D01*
X165968095Y-118182857D01*
X165968095Y-118278095D01*
X165920476Y-118420952D01*
X165349047Y-118992380D01*
X165968095Y-118992380D01*
G04 #@! TO.C,R303*
X158030952Y-116862380D02*
X157697619Y-116386190D01*
X157459523Y-116862380D02*
X157459523Y-115862380D01*
X157840476Y-115862380D01*
X157935714Y-115910000D01*
X157983333Y-115957619D01*
X158030952Y-116052857D01*
X158030952Y-116195714D01*
X157983333Y-116290952D01*
X157935714Y-116338571D01*
X157840476Y-116386190D01*
X157459523Y-116386190D01*
X158364285Y-115862380D02*
X158983333Y-115862380D01*
X158650000Y-116243333D01*
X158792857Y-116243333D01*
X158888095Y-116290952D01*
X158935714Y-116338571D01*
X158983333Y-116433809D01*
X158983333Y-116671904D01*
X158935714Y-116767142D01*
X158888095Y-116814761D01*
X158792857Y-116862380D01*
X158507142Y-116862380D01*
X158411904Y-116814761D01*
X158364285Y-116767142D01*
X159602380Y-115862380D02*
X159697619Y-115862380D01*
X159792857Y-115910000D01*
X159840476Y-115957619D01*
X159888095Y-116052857D01*
X159935714Y-116243333D01*
X159935714Y-116481428D01*
X159888095Y-116671904D01*
X159840476Y-116767142D01*
X159792857Y-116814761D01*
X159697619Y-116862380D01*
X159602380Y-116862380D01*
X159507142Y-116814761D01*
X159459523Y-116767142D01*
X159411904Y-116671904D01*
X159364285Y-116481428D01*
X159364285Y-116243333D01*
X159411904Y-116052857D01*
X159459523Y-115957619D01*
X159507142Y-115910000D01*
X159602380Y-115862380D01*
X160269047Y-115862380D02*
X160888095Y-115862380D01*
X160554761Y-116243333D01*
X160697619Y-116243333D01*
X160792857Y-116290952D01*
X160840476Y-116338571D01*
X160888095Y-116433809D01*
X160888095Y-116671904D01*
X160840476Y-116767142D01*
X160792857Y-116814761D01*
X160697619Y-116862380D01*
X160411904Y-116862380D01*
X160316666Y-116814761D01*
X160269047Y-116767142D01*
G04 #@! TO.C,R304*
X168425952Y-138247380D02*
X168092619Y-137771190D01*
X167854523Y-138247380D02*
X167854523Y-137247380D01*
X168235476Y-137247380D01*
X168330714Y-137295000D01*
X168378333Y-137342619D01*
X168425952Y-137437857D01*
X168425952Y-137580714D01*
X168378333Y-137675952D01*
X168330714Y-137723571D01*
X168235476Y-137771190D01*
X167854523Y-137771190D01*
X168759285Y-137247380D02*
X169378333Y-137247380D01*
X169045000Y-137628333D01*
X169187857Y-137628333D01*
X169283095Y-137675952D01*
X169330714Y-137723571D01*
X169378333Y-137818809D01*
X169378333Y-138056904D01*
X169330714Y-138152142D01*
X169283095Y-138199761D01*
X169187857Y-138247380D01*
X168902142Y-138247380D01*
X168806904Y-138199761D01*
X168759285Y-138152142D01*
X169997380Y-137247380D02*
X170092619Y-137247380D01*
X170187857Y-137295000D01*
X170235476Y-137342619D01*
X170283095Y-137437857D01*
X170330714Y-137628333D01*
X170330714Y-137866428D01*
X170283095Y-138056904D01*
X170235476Y-138152142D01*
X170187857Y-138199761D01*
X170092619Y-138247380D01*
X169997380Y-138247380D01*
X169902142Y-138199761D01*
X169854523Y-138152142D01*
X169806904Y-138056904D01*
X169759285Y-137866428D01*
X169759285Y-137628333D01*
X169806904Y-137437857D01*
X169854523Y-137342619D01*
X169902142Y-137295000D01*
X169997380Y-137247380D01*
X171187857Y-137580714D02*
X171187857Y-138247380D01*
X170949761Y-137199761D02*
X170711666Y-137914047D01*
X171330714Y-137914047D01*
G04 #@! TO.C,R305*
X174442380Y-128119047D02*
X173966190Y-128452380D01*
X174442380Y-128690476D02*
X173442380Y-128690476D01*
X173442380Y-128309523D01*
X173490000Y-128214285D01*
X173537619Y-128166666D01*
X173632857Y-128119047D01*
X173775714Y-128119047D01*
X173870952Y-128166666D01*
X173918571Y-128214285D01*
X173966190Y-128309523D01*
X173966190Y-128690476D01*
X173442380Y-127785714D02*
X173442380Y-127166666D01*
X173823333Y-127500000D01*
X173823333Y-127357142D01*
X173870952Y-127261904D01*
X173918571Y-127214285D01*
X174013809Y-127166666D01*
X174251904Y-127166666D01*
X174347142Y-127214285D01*
X174394761Y-127261904D01*
X174442380Y-127357142D01*
X174442380Y-127642857D01*
X174394761Y-127738095D01*
X174347142Y-127785714D01*
X173442380Y-126547619D02*
X173442380Y-126452380D01*
X173490000Y-126357142D01*
X173537619Y-126309523D01*
X173632857Y-126261904D01*
X173823333Y-126214285D01*
X174061428Y-126214285D01*
X174251904Y-126261904D01*
X174347142Y-126309523D01*
X174394761Y-126357142D01*
X174442380Y-126452380D01*
X174442380Y-126547619D01*
X174394761Y-126642857D01*
X174347142Y-126690476D01*
X174251904Y-126738095D01*
X174061428Y-126785714D01*
X173823333Y-126785714D01*
X173632857Y-126738095D01*
X173537619Y-126690476D01*
X173490000Y-126642857D01*
X173442380Y-126547619D01*
X173442380Y-125309523D02*
X173442380Y-125785714D01*
X173918571Y-125833333D01*
X173870952Y-125785714D01*
X173823333Y-125690476D01*
X173823333Y-125452380D01*
X173870952Y-125357142D01*
X173918571Y-125309523D01*
X174013809Y-125261904D01*
X174251904Y-125261904D01*
X174347142Y-125309523D01*
X174394761Y-125357142D01*
X174442380Y-125452380D01*
X174442380Y-125690476D01*
X174394761Y-125785714D01*
X174347142Y-125833333D01*
G04 #@! TO.C,R501*
X74369752Y-99309180D02*
X74036419Y-98832990D01*
X73798323Y-99309180D02*
X73798323Y-98309180D01*
X74179276Y-98309180D01*
X74274514Y-98356800D01*
X74322133Y-98404419D01*
X74369752Y-98499657D01*
X74369752Y-98642514D01*
X74322133Y-98737752D01*
X74274514Y-98785371D01*
X74179276Y-98832990D01*
X73798323Y-98832990D01*
X75274514Y-98309180D02*
X74798323Y-98309180D01*
X74750704Y-98785371D01*
X74798323Y-98737752D01*
X74893561Y-98690133D01*
X75131657Y-98690133D01*
X75226895Y-98737752D01*
X75274514Y-98785371D01*
X75322133Y-98880609D01*
X75322133Y-99118704D01*
X75274514Y-99213942D01*
X75226895Y-99261561D01*
X75131657Y-99309180D01*
X74893561Y-99309180D01*
X74798323Y-99261561D01*
X74750704Y-99213942D01*
X75941180Y-98309180D02*
X76036419Y-98309180D01*
X76131657Y-98356800D01*
X76179276Y-98404419D01*
X76226895Y-98499657D01*
X76274514Y-98690133D01*
X76274514Y-98928228D01*
X76226895Y-99118704D01*
X76179276Y-99213942D01*
X76131657Y-99261561D01*
X76036419Y-99309180D01*
X75941180Y-99309180D01*
X75845942Y-99261561D01*
X75798323Y-99213942D01*
X75750704Y-99118704D01*
X75703085Y-98928228D01*
X75703085Y-98690133D01*
X75750704Y-98499657D01*
X75798323Y-98404419D01*
X75845942Y-98356800D01*
X75941180Y-98309180D01*
X77226895Y-99309180D02*
X76655466Y-99309180D01*
X76941180Y-99309180D02*
X76941180Y-98309180D01*
X76845942Y-98452038D01*
X76750704Y-98547276D01*
X76655466Y-98594895D01*
G04 #@! TO.C,R502*
X74420552Y-101188780D02*
X74087219Y-100712590D01*
X73849123Y-101188780D02*
X73849123Y-100188780D01*
X74230076Y-100188780D01*
X74325314Y-100236400D01*
X74372933Y-100284019D01*
X74420552Y-100379257D01*
X74420552Y-100522114D01*
X74372933Y-100617352D01*
X74325314Y-100664971D01*
X74230076Y-100712590D01*
X73849123Y-100712590D01*
X75325314Y-100188780D02*
X74849123Y-100188780D01*
X74801504Y-100664971D01*
X74849123Y-100617352D01*
X74944361Y-100569733D01*
X75182457Y-100569733D01*
X75277695Y-100617352D01*
X75325314Y-100664971D01*
X75372933Y-100760209D01*
X75372933Y-100998304D01*
X75325314Y-101093542D01*
X75277695Y-101141161D01*
X75182457Y-101188780D01*
X74944361Y-101188780D01*
X74849123Y-101141161D01*
X74801504Y-101093542D01*
X75991980Y-100188780D02*
X76087219Y-100188780D01*
X76182457Y-100236400D01*
X76230076Y-100284019D01*
X76277695Y-100379257D01*
X76325314Y-100569733D01*
X76325314Y-100807828D01*
X76277695Y-100998304D01*
X76230076Y-101093542D01*
X76182457Y-101141161D01*
X76087219Y-101188780D01*
X75991980Y-101188780D01*
X75896742Y-101141161D01*
X75849123Y-101093542D01*
X75801504Y-100998304D01*
X75753885Y-100807828D01*
X75753885Y-100569733D01*
X75801504Y-100379257D01*
X75849123Y-100284019D01*
X75896742Y-100236400D01*
X75991980Y-100188780D01*
X76706266Y-100284019D02*
X76753885Y-100236400D01*
X76849123Y-100188780D01*
X77087219Y-100188780D01*
X77182457Y-100236400D01*
X77230076Y-100284019D01*
X77277695Y-100379257D01*
X77277695Y-100474495D01*
X77230076Y-100617352D01*
X76658647Y-101188780D01*
X77277695Y-101188780D01*
G04 #@! TO.C,R503*
X91638380Y-112371047D02*
X91162190Y-112704380D01*
X91638380Y-112942476D02*
X90638380Y-112942476D01*
X90638380Y-112561523D01*
X90686000Y-112466285D01*
X90733619Y-112418666D01*
X90828857Y-112371047D01*
X90971714Y-112371047D01*
X91066952Y-112418666D01*
X91114571Y-112466285D01*
X91162190Y-112561523D01*
X91162190Y-112942476D01*
X90638380Y-111466285D02*
X90638380Y-111942476D01*
X91114571Y-111990095D01*
X91066952Y-111942476D01*
X91019333Y-111847238D01*
X91019333Y-111609142D01*
X91066952Y-111513904D01*
X91114571Y-111466285D01*
X91209809Y-111418666D01*
X91447904Y-111418666D01*
X91543142Y-111466285D01*
X91590761Y-111513904D01*
X91638380Y-111609142D01*
X91638380Y-111847238D01*
X91590761Y-111942476D01*
X91543142Y-111990095D01*
X90638380Y-110799619D02*
X90638380Y-110704380D01*
X90686000Y-110609142D01*
X90733619Y-110561523D01*
X90828857Y-110513904D01*
X91019333Y-110466285D01*
X91257428Y-110466285D01*
X91447904Y-110513904D01*
X91543142Y-110561523D01*
X91590761Y-110609142D01*
X91638380Y-110704380D01*
X91638380Y-110799619D01*
X91590761Y-110894857D01*
X91543142Y-110942476D01*
X91447904Y-110990095D01*
X91257428Y-111037714D01*
X91019333Y-111037714D01*
X90828857Y-110990095D01*
X90733619Y-110942476D01*
X90686000Y-110894857D01*
X90638380Y-110799619D01*
X90638380Y-110132952D02*
X90638380Y-109513904D01*
X91019333Y-109847238D01*
X91019333Y-109704380D01*
X91066952Y-109609142D01*
X91114571Y-109561523D01*
X91209809Y-109513904D01*
X91447904Y-109513904D01*
X91543142Y-109561523D01*
X91590761Y-109609142D01*
X91638380Y-109704380D01*
X91638380Y-109990095D01*
X91590761Y-110085333D01*
X91543142Y-110132952D01*
G04 #@! TO.C,R504*
X89352380Y-112371047D02*
X88876190Y-112704380D01*
X89352380Y-112942476D02*
X88352380Y-112942476D01*
X88352380Y-112561523D01*
X88400000Y-112466285D01*
X88447619Y-112418666D01*
X88542857Y-112371047D01*
X88685714Y-112371047D01*
X88780952Y-112418666D01*
X88828571Y-112466285D01*
X88876190Y-112561523D01*
X88876190Y-112942476D01*
X88352380Y-111466285D02*
X88352380Y-111942476D01*
X88828571Y-111990095D01*
X88780952Y-111942476D01*
X88733333Y-111847238D01*
X88733333Y-111609142D01*
X88780952Y-111513904D01*
X88828571Y-111466285D01*
X88923809Y-111418666D01*
X89161904Y-111418666D01*
X89257142Y-111466285D01*
X89304761Y-111513904D01*
X89352380Y-111609142D01*
X89352380Y-111847238D01*
X89304761Y-111942476D01*
X89257142Y-111990095D01*
X88352380Y-110799619D02*
X88352380Y-110704380D01*
X88400000Y-110609142D01*
X88447619Y-110561523D01*
X88542857Y-110513904D01*
X88733333Y-110466285D01*
X88971428Y-110466285D01*
X89161904Y-110513904D01*
X89257142Y-110561523D01*
X89304761Y-110609142D01*
X89352380Y-110704380D01*
X89352380Y-110799619D01*
X89304761Y-110894857D01*
X89257142Y-110942476D01*
X89161904Y-110990095D01*
X88971428Y-111037714D01*
X88733333Y-111037714D01*
X88542857Y-110990095D01*
X88447619Y-110942476D01*
X88400000Y-110894857D01*
X88352380Y-110799619D01*
X88685714Y-109609142D02*
X89352380Y-109609142D01*
X88304761Y-109847238D02*
X89019047Y-110085333D01*
X89019047Y-109466285D01*
G04 #@! TO.C,R505*
X138120380Y-133199047D02*
X137644190Y-133532380D01*
X138120380Y-133770476D02*
X137120380Y-133770476D01*
X137120380Y-133389523D01*
X137168000Y-133294285D01*
X137215619Y-133246666D01*
X137310857Y-133199047D01*
X137453714Y-133199047D01*
X137548952Y-133246666D01*
X137596571Y-133294285D01*
X137644190Y-133389523D01*
X137644190Y-133770476D01*
X137120380Y-132294285D02*
X137120380Y-132770476D01*
X137596571Y-132818095D01*
X137548952Y-132770476D01*
X137501333Y-132675238D01*
X137501333Y-132437142D01*
X137548952Y-132341904D01*
X137596571Y-132294285D01*
X137691809Y-132246666D01*
X137929904Y-132246666D01*
X138025142Y-132294285D01*
X138072761Y-132341904D01*
X138120380Y-132437142D01*
X138120380Y-132675238D01*
X138072761Y-132770476D01*
X138025142Y-132818095D01*
X137120380Y-131627619D02*
X137120380Y-131532380D01*
X137168000Y-131437142D01*
X137215619Y-131389523D01*
X137310857Y-131341904D01*
X137501333Y-131294285D01*
X137739428Y-131294285D01*
X137929904Y-131341904D01*
X138025142Y-131389523D01*
X138072761Y-131437142D01*
X138120380Y-131532380D01*
X138120380Y-131627619D01*
X138072761Y-131722857D01*
X138025142Y-131770476D01*
X137929904Y-131818095D01*
X137739428Y-131865714D01*
X137501333Y-131865714D01*
X137310857Y-131818095D01*
X137215619Y-131770476D01*
X137168000Y-131722857D01*
X137120380Y-131627619D01*
X137120380Y-130389523D02*
X137120380Y-130865714D01*
X137596571Y-130913333D01*
X137548952Y-130865714D01*
X137501333Y-130770476D01*
X137501333Y-130532380D01*
X137548952Y-130437142D01*
X137596571Y-130389523D01*
X137691809Y-130341904D01*
X137929904Y-130341904D01*
X138025142Y-130389523D01*
X138072761Y-130437142D01*
X138120380Y-130532380D01*
X138120380Y-130770476D01*
X138072761Y-130865714D01*
X138025142Y-130913333D01*
G04 #@! TO.C,R506*
X80716380Y-133199047D02*
X80240190Y-133532380D01*
X80716380Y-133770476D02*
X79716380Y-133770476D01*
X79716380Y-133389523D01*
X79764000Y-133294285D01*
X79811619Y-133246666D01*
X79906857Y-133199047D01*
X80049714Y-133199047D01*
X80144952Y-133246666D01*
X80192571Y-133294285D01*
X80240190Y-133389523D01*
X80240190Y-133770476D01*
X79716380Y-132294285D02*
X79716380Y-132770476D01*
X80192571Y-132818095D01*
X80144952Y-132770476D01*
X80097333Y-132675238D01*
X80097333Y-132437142D01*
X80144952Y-132341904D01*
X80192571Y-132294285D01*
X80287809Y-132246666D01*
X80525904Y-132246666D01*
X80621142Y-132294285D01*
X80668761Y-132341904D01*
X80716380Y-132437142D01*
X80716380Y-132675238D01*
X80668761Y-132770476D01*
X80621142Y-132818095D01*
X79716380Y-131627619D02*
X79716380Y-131532380D01*
X79764000Y-131437142D01*
X79811619Y-131389523D01*
X79906857Y-131341904D01*
X80097333Y-131294285D01*
X80335428Y-131294285D01*
X80525904Y-131341904D01*
X80621142Y-131389523D01*
X80668761Y-131437142D01*
X80716380Y-131532380D01*
X80716380Y-131627619D01*
X80668761Y-131722857D01*
X80621142Y-131770476D01*
X80525904Y-131818095D01*
X80335428Y-131865714D01*
X80097333Y-131865714D01*
X79906857Y-131818095D01*
X79811619Y-131770476D01*
X79764000Y-131722857D01*
X79716380Y-131627619D01*
X79716380Y-130437142D02*
X79716380Y-130627619D01*
X79764000Y-130722857D01*
X79811619Y-130770476D01*
X79954476Y-130865714D01*
X80144952Y-130913333D01*
X80525904Y-130913333D01*
X80621142Y-130865714D01*
X80668761Y-130818095D01*
X80716380Y-130722857D01*
X80716380Y-130532380D01*
X80668761Y-130437142D01*
X80621142Y-130389523D01*
X80525904Y-130341904D01*
X80287809Y-130341904D01*
X80192571Y-130389523D01*
X80144952Y-130437142D01*
X80097333Y-130532380D01*
X80097333Y-130722857D01*
X80144952Y-130818095D01*
X80192571Y-130865714D01*
X80287809Y-130913333D01*
G04 #@! TO.C,R507*
X87320380Y-133199047D02*
X86844190Y-133532380D01*
X87320380Y-133770476D02*
X86320380Y-133770476D01*
X86320380Y-133389523D01*
X86368000Y-133294285D01*
X86415619Y-133246666D01*
X86510857Y-133199047D01*
X86653714Y-133199047D01*
X86748952Y-133246666D01*
X86796571Y-133294285D01*
X86844190Y-133389523D01*
X86844190Y-133770476D01*
X86320380Y-132294285D02*
X86320380Y-132770476D01*
X86796571Y-132818095D01*
X86748952Y-132770476D01*
X86701333Y-132675238D01*
X86701333Y-132437142D01*
X86748952Y-132341904D01*
X86796571Y-132294285D01*
X86891809Y-132246666D01*
X87129904Y-132246666D01*
X87225142Y-132294285D01*
X87272761Y-132341904D01*
X87320380Y-132437142D01*
X87320380Y-132675238D01*
X87272761Y-132770476D01*
X87225142Y-132818095D01*
X86320380Y-131627619D02*
X86320380Y-131532380D01*
X86368000Y-131437142D01*
X86415619Y-131389523D01*
X86510857Y-131341904D01*
X86701333Y-131294285D01*
X86939428Y-131294285D01*
X87129904Y-131341904D01*
X87225142Y-131389523D01*
X87272761Y-131437142D01*
X87320380Y-131532380D01*
X87320380Y-131627619D01*
X87272761Y-131722857D01*
X87225142Y-131770476D01*
X87129904Y-131818095D01*
X86939428Y-131865714D01*
X86701333Y-131865714D01*
X86510857Y-131818095D01*
X86415619Y-131770476D01*
X86368000Y-131722857D01*
X86320380Y-131627619D01*
X86320380Y-130960952D02*
X86320380Y-130294285D01*
X87320380Y-130722857D01*
G04 #@! TO.C,R509*
X112720380Y-133199047D02*
X112244190Y-133532380D01*
X112720380Y-133770476D02*
X111720380Y-133770476D01*
X111720380Y-133389523D01*
X111768000Y-133294285D01*
X111815619Y-133246666D01*
X111910857Y-133199047D01*
X112053714Y-133199047D01*
X112148952Y-133246666D01*
X112196571Y-133294285D01*
X112244190Y-133389523D01*
X112244190Y-133770476D01*
X111720380Y-132294285D02*
X111720380Y-132770476D01*
X112196571Y-132818095D01*
X112148952Y-132770476D01*
X112101333Y-132675238D01*
X112101333Y-132437142D01*
X112148952Y-132341904D01*
X112196571Y-132294285D01*
X112291809Y-132246666D01*
X112529904Y-132246666D01*
X112625142Y-132294285D01*
X112672761Y-132341904D01*
X112720380Y-132437142D01*
X112720380Y-132675238D01*
X112672761Y-132770476D01*
X112625142Y-132818095D01*
X111720380Y-131627619D02*
X111720380Y-131532380D01*
X111768000Y-131437142D01*
X111815619Y-131389523D01*
X111910857Y-131341904D01*
X112101333Y-131294285D01*
X112339428Y-131294285D01*
X112529904Y-131341904D01*
X112625142Y-131389523D01*
X112672761Y-131437142D01*
X112720380Y-131532380D01*
X112720380Y-131627619D01*
X112672761Y-131722857D01*
X112625142Y-131770476D01*
X112529904Y-131818095D01*
X112339428Y-131865714D01*
X112101333Y-131865714D01*
X111910857Y-131818095D01*
X111815619Y-131770476D01*
X111768000Y-131722857D01*
X111720380Y-131627619D01*
X112720380Y-130818095D02*
X112720380Y-130627619D01*
X112672761Y-130532380D01*
X112625142Y-130484761D01*
X112482285Y-130389523D01*
X112291809Y-130341904D01*
X111910857Y-130341904D01*
X111815619Y-130389523D01*
X111768000Y-130437142D01*
X111720380Y-130532380D01*
X111720380Y-130722857D01*
X111768000Y-130818095D01*
X111815619Y-130865714D01*
X111910857Y-130913333D01*
X112148952Y-130913333D01*
X112244190Y-130865714D01*
X112291809Y-130818095D01*
X112339428Y-130722857D01*
X112339428Y-130532380D01*
X112291809Y-130437142D01*
X112244190Y-130389523D01*
X112148952Y-130341904D01*
G04 #@! TO.C,R510*
X118816380Y-133199047D02*
X118340190Y-133532380D01*
X118816380Y-133770476D02*
X117816380Y-133770476D01*
X117816380Y-133389523D01*
X117864000Y-133294285D01*
X117911619Y-133246666D01*
X118006857Y-133199047D01*
X118149714Y-133199047D01*
X118244952Y-133246666D01*
X118292571Y-133294285D01*
X118340190Y-133389523D01*
X118340190Y-133770476D01*
X117816380Y-132294285D02*
X117816380Y-132770476D01*
X118292571Y-132818095D01*
X118244952Y-132770476D01*
X118197333Y-132675238D01*
X118197333Y-132437142D01*
X118244952Y-132341904D01*
X118292571Y-132294285D01*
X118387809Y-132246666D01*
X118625904Y-132246666D01*
X118721142Y-132294285D01*
X118768761Y-132341904D01*
X118816380Y-132437142D01*
X118816380Y-132675238D01*
X118768761Y-132770476D01*
X118721142Y-132818095D01*
X118816380Y-131294285D02*
X118816380Y-131865714D01*
X118816380Y-131580000D02*
X117816380Y-131580000D01*
X117959238Y-131675238D01*
X118054476Y-131770476D01*
X118102095Y-131865714D01*
X117816380Y-130675238D02*
X117816380Y-130580000D01*
X117864000Y-130484761D01*
X117911619Y-130437142D01*
X118006857Y-130389523D01*
X118197333Y-130341904D01*
X118435428Y-130341904D01*
X118625904Y-130389523D01*
X118721142Y-130437142D01*
X118768761Y-130484761D01*
X118816380Y-130580000D01*
X118816380Y-130675238D01*
X118768761Y-130770476D01*
X118721142Y-130818095D01*
X118625904Y-130865714D01*
X118435428Y-130913333D01*
X118197333Y-130913333D01*
X118006857Y-130865714D01*
X117911619Y-130818095D01*
X117864000Y-130770476D01*
X117816380Y-130675238D01*
G04 #@! TO.C,R511*
X93924380Y-133199047D02*
X93448190Y-133532380D01*
X93924380Y-133770476D02*
X92924380Y-133770476D01*
X92924380Y-133389523D01*
X92972000Y-133294285D01*
X93019619Y-133246666D01*
X93114857Y-133199047D01*
X93257714Y-133199047D01*
X93352952Y-133246666D01*
X93400571Y-133294285D01*
X93448190Y-133389523D01*
X93448190Y-133770476D01*
X92924380Y-132294285D02*
X92924380Y-132770476D01*
X93400571Y-132818095D01*
X93352952Y-132770476D01*
X93305333Y-132675238D01*
X93305333Y-132437142D01*
X93352952Y-132341904D01*
X93400571Y-132294285D01*
X93495809Y-132246666D01*
X93733904Y-132246666D01*
X93829142Y-132294285D01*
X93876761Y-132341904D01*
X93924380Y-132437142D01*
X93924380Y-132675238D01*
X93876761Y-132770476D01*
X93829142Y-132818095D01*
X93924380Y-131294285D02*
X93924380Y-131865714D01*
X93924380Y-131580000D02*
X92924380Y-131580000D01*
X93067238Y-131675238D01*
X93162476Y-131770476D01*
X93210095Y-131865714D01*
X93924380Y-130341904D02*
X93924380Y-130913333D01*
X93924380Y-130627619D02*
X92924380Y-130627619D01*
X93067238Y-130722857D01*
X93162476Y-130818095D01*
X93210095Y-130913333D01*
G04 #@! TO.C,R512*
X125420380Y-133199047D02*
X124944190Y-133532380D01*
X125420380Y-133770476D02*
X124420380Y-133770476D01*
X124420380Y-133389523D01*
X124468000Y-133294285D01*
X124515619Y-133246666D01*
X124610857Y-133199047D01*
X124753714Y-133199047D01*
X124848952Y-133246666D01*
X124896571Y-133294285D01*
X124944190Y-133389523D01*
X124944190Y-133770476D01*
X124420380Y-132294285D02*
X124420380Y-132770476D01*
X124896571Y-132818095D01*
X124848952Y-132770476D01*
X124801333Y-132675238D01*
X124801333Y-132437142D01*
X124848952Y-132341904D01*
X124896571Y-132294285D01*
X124991809Y-132246666D01*
X125229904Y-132246666D01*
X125325142Y-132294285D01*
X125372761Y-132341904D01*
X125420380Y-132437142D01*
X125420380Y-132675238D01*
X125372761Y-132770476D01*
X125325142Y-132818095D01*
X125420380Y-131294285D02*
X125420380Y-131865714D01*
X125420380Y-131580000D02*
X124420380Y-131580000D01*
X124563238Y-131675238D01*
X124658476Y-131770476D01*
X124706095Y-131865714D01*
X124515619Y-130913333D02*
X124468000Y-130865714D01*
X124420380Y-130770476D01*
X124420380Y-130532380D01*
X124468000Y-130437142D01*
X124515619Y-130389523D01*
X124610857Y-130341904D01*
X124706095Y-130341904D01*
X124848952Y-130389523D01*
X125420380Y-130960952D01*
X125420380Y-130341904D01*
G04 #@! TO.C,R513*
X100020380Y-133199047D02*
X99544190Y-133532380D01*
X100020380Y-133770476D02*
X99020380Y-133770476D01*
X99020380Y-133389523D01*
X99068000Y-133294285D01*
X99115619Y-133246666D01*
X99210857Y-133199047D01*
X99353714Y-133199047D01*
X99448952Y-133246666D01*
X99496571Y-133294285D01*
X99544190Y-133389523D01*
X99544190Y-133770476D01*
X99020380Y-132294285D02*
X99020380Y-132770476D01*
X99496571Y-132818095D01*
X99448952Y-132770476D01*
X99401333Y-132675238D01*
X99401333Y-132437142D01*
X99448952Y-132341904D01*
X99496571Y-132294285D01*
X99591809Y-132246666D01*
X99829904Y-132246666D01*
X99925142Y-132294285D01*
X99972761Y-132341904D01*
X100020380Y-132437142D01*
X100020380Y-132675238D01*
X99972761Y-132770476D01*
X99925142Y-132818095D01*
X100020380Y-131294285D02*
X100020380Y-131865714D01*
X100020380Y-131580000D02*
X99020380Y-131580000D01*
X99163238Y-131675238D01*
X99258476Y-131770476D01*
X99306095Y-131865714D01*
X99020380Y-130960952D02*
X99020380Y-130341904D01*
X99401333Y-130675238D01*
X99401333Y-130532380D01*
X99448952Y-130437142D01*
X99496571Y-130389523D01*
X99591809Y-130341904D01*
X99829904Y-130341904D01*
X99925142Y-130389523D01*
X99972761Y-130437142D01*
X100020380Y-130532380D01*
X100020380Y-130818095D01*
X99972761Y-130913333D01*
X99925142Y-130960952D01*
G04 #@! TO.C,R514*
X132024380Y-133199047D02*
X131548190Y-133532380D01*
X132024380Y-133770476D02*
X131024380Y-133770476D01*
X131024380Y-133389523D01*
X131072000Y-133294285D01*
X131119619Y-133246666D01*
X131214857Y-133199047D01*
X131357714Y-133199047D01*
X131452952Y-133246666D01*
X131500571Y-133294285D01*
X131548190Y-133389523D01*
X131548190Y-133770476D01*
X131024380Y-132294285D02*
X131024380Y-132770476D01*
X131500571Y-132818095D01*
X131452952Y-132770476D01*
X131405333Y-132675238D01*
X131405333Y-132437142D01*
X131452952Y-132341904D01*
X131500571Y-132294285D01*
X131595809Y-132246666D01*
X131833904Y-132246666D01*
X131929142Y-132294285D01*
X131976761Y-132341904D01*
X132024380Y-132437142D01*
X132024380Y-132675238D01*
X131976761Y-132770476D01*
X131929142Y-132818095D01*
X132024380Y-131294285D02*
X132024380Y-131865714D01*
X132024380Y-131580000D02*
X131024380Y-131580000D01*
X131167238Y-131675238D01*
X131262476Y-131770476D01*
X131310095Y-131865714D01*
X131357714Y-130437142D02*
X132024380Y-130437142D01*
X130976761Y-130675238D02*
X131691047Y-130913333D01*
X131691047Y-130294285D01*
G04 #@! TO.C,R601*
X103528952Y-108656380D02*
X103195619Y-108180190D01*
X102957523Y-108656380D02*
X102957523Y-107656380D01*
X103338476Y-107656380D01*
X103433714Y-107704000D01*
X103481333Y-107751619D01*
X103528952Y-107846857D01*
X103528952Y-107989714D01*
X103481333Y-108084952D01*
X103433714Y-108132571D01*
X103338476Y-108180190D01*
X102957523Y-108180190D01*
X104386095Y-107656380D02*
X104195619Y-107656380D01*
X104100380Y-107704000D01*
X104052761Y-107751619D01*
X103957523Y-107894476D01*
X103909904Y-108084952D01*
X103909904Y-108465904D01*
X103957523Y-108561142D01*
X104005142Y-108608761D01*
X104100380Y-108656380D01*
X104290857Y-108656380D01*
X104386095Y-108608761D01*
X104433714Y-108561142D01*
X104481333Y-108465904D01*
X104481333Y-108227809D01*
X104433714Y-108132571D01*
X104386095Y-108084952D01*
X104290857Y-108037333D01*
X104100380Y-108037333D01*
X104005142Y-108084952D01*
X103957523Y-108132571D01*
X103909904Y-108227809D01*
X105100380Y-107656380D02*
X105195619Y-107656380D01*
X105290857Y-107704000D01*
X105338476Y-107751619D01*
X105386095Y-107846857D01*
X105433714Y-108037333D01*
X105433714Y-108275428D01*
X105386095Y-108465904D01*
X105338476Y-108561142D01*
X105290857Y-108608761D01*
X105195619Y-108656380D01*
X105100380Y-108656380D01*
X105005142Y-108608761D01*
X104957523Y-108561142D01*
X104909904Y-108465904D01*
X104862285Y-108275428D01*
X104862285Y-108037333D01*
X104909904Y-107846857D01*
X104957523Y-107751619D01*
X105005142Y-107704000D01*
X105100380Y-107656380D01*
X106386095Y-108656380D02*
X105814666Y-108656380D01*
X106100380Y-108656380D02*
X106100380Y-107656380D01*
X106005142Y-107799238D01*
X105909904Y-107894476D01*
X105814666Y-107942095D01*
G04 #@! TO.C,R602*
X103528952Y-111196380D02*
X103195619Y-110720190D01*
X102957523Y-111196380D02*
X102957523Y-110196380D01*
X103338476Y-110196380D01*
X103433714Y-110244000D01*
X103481333Y-110291619D01*
X103528952Y-110386857D01*
X103528952Y-110529714D01*
X103481333Y-110624952D01*
X103433714Y-110672571D01*
X103338476Y-110720190D01*
X102957523Y-110720190D01*
X104386095Y-110196380D02*
X104195619Y-110196380D01*
X104100380Y-110244000D01*
X104052761Y-110291619D01*
X103957523Y-110434476D01*
X103909904Y-110624952D01*
X103909904Y-111005904D01*
X103957523Y-111101142D01*
X104005142Y-111148761D01*
X104100380Y-111196380D01*
X104290857Y-111196380D01*
X104386095Y-111148761D01*
X104433714Y-111101142D01*
X104481333Y-111005904D01*
X104481333Y-110767809D01*
X104433714Y-110672571D01*
X104386095Y-110624952D01*
X104290857Y-110577333D01*
X104100380Y-110577333D01*
X104005142Y-110624952D01*
X103957523Y-110672571D01*
X103909904Y-110767809D01*
X105100380Y-110196380D02*
X105195619Y-110196380D01*
X105290857Y-110244000D01*
X105338476Y-110291619D01*
X105386095Y-110386857D01*
X105433714Y-110577333D01*
X105433714Y-110815428D01*
X105386095Y-111005904D01*
X105338476Y-111101142D01*
X105290857Y-111148761D01*
X105195619Y-111196380D01*
X105100380Y-111196380D01*
X105005142Y-111148761D01*
X104957523Y-111101142D01*
X104909904Y-111005904D01*
X104862285Y-110815428D01*
X104862285Y-110577333D01*
X104909904Y-110386857D01*
X104957523Y-110291619D01*
X105005142Y-110244000D01*
X105100380Y-110196380D01*
X105814666Y-110291619D02*
X105862285Y-110244000D01*
X105957523Y-110196380D01*
X106195619Y-110196380D01*
X106290857Y-110244000D01*
X106338476Y-110291619D01*
X106386095Y-110386857D01*
X106386095Y-110482095D01*
X106338476Y-110624952D01*
X105767047Y-111196380D01*
X106386095Y-111196380D01*
G04 #@! TO.C,SW201*
D15*
X96217619Y-89157991D02*
X95794285Y-88613705D01*
X95491904Y-89157991D02*
X95491904Y-88014991D01*
X95975714Y-88014991D01*
X96096666Y-88069420D01*
X96157142Y-88123848D01*
X96217619Y-88232705D01*
X96217619Y-88395991D01*
X96157142Y-88504848D01*
X96096666Y-88559277D01*
X95975714Y-88613705D01*
X95491904Y-88613705D01*
X96761904Y-88559277D02*
X97185238Y-88559277D01*
X97366666Y-89157991D02*
X96761904Y-89157991D01*
X96761904Y-88014991D01*
X97366666Y-88014991D01*
X97850476Y-89103562D02*
X98031904Y-89157991D01*
X98334285Y-89157991D01*
X98455238Y-89103562D01*
X98515714Y-89049134D01*
X98576190Y-88940277D01*
X98576190Y-88831420D01*
X98515714Y-88722562D01*
X98455238Y-88668134D01*
X98334285Y-88613705D01*
X98092380Y-88559277D01*
X97971428Y-88504848D01*
X97910952Y-88450420D01*
X97850476Y-88341562D01*
X97850476Y-88232705D01*
X97910952Y-88123848D01*
X97971428Y-88069420D01*
X98092380Y-88014991D01*
X98394761Y-88014991D01*
X98576190Y-88069420D01*
X99120476Y-88559277D02*
X99543809Y-88559277D01*
X99725238Y-89157991D02*
X99120476Y-89157991D01*
X99120476Y-88014991D01*
X99725238Y-88014991D01*
X100088095Y-88014991D02*
X100813809Y-88014991D01*
X100450952Y-89157991D02*
X100450952Y-88014991D01*
X100934761Y-89266848D02*
X101902380Y-89266848D01*
X102628095Y-88559277D02*
X102809523Y-88613705D01*
X102870000Y-88668134D01*
X102930476Y-88776991D01*
X102930476Y-88940277D01*
X102870000Y-89049134D01*
X102809523Y-89103562D01*
X102688571Y-89157991D01*
X102204761Y-89157991D01*
X102204761Y-88014991D01*
X102628095Y-88014991D01*
X102749047Y-88069420D01*
X102809523Y-88123848D01*
X102870000Y-88232705D01*
X102870000Y-88341562D01*
X102809523Y-88450420D01*
X102749047Y-88504848D01*
X102628095Y-88559277D01*
X102204761Y-88559277D01*
X103293333Y-88014991D02*
X104019047Y-88014991D01*
X103656190Y-89157991D02*
X103656190Y-88014991D01*
X104442380Y-89157991D02*
X104442380Y-88014991D01*
X105168095Y-89157991D01*
X105168095Y-88014991D01*
G04 #@! TO.C,SW202*
X95915238Y-94909277D02*
X95491904Y-94909277D01*
X95491904Y-95507991D02*
X95491904Y-94364991D01*
X96096666Y-94364991D01*
X97185238Y-95507991D02*
X96580476Y-95507991D01*
X96580476Y-94364991D01*
X97548095Y-95181420D02*
X98152857Y-95181420D01*
X97427142Y-95507991D02*
X97850476Y-94364991D01*
X98273809Y-95507991D01*
X98636666Y-95453562D02*
X98818095Y-95507991D01*
X99120476Y-95507991D01*
X99241428Y-95453562D01*
X99301904Y-95399134D01*
X99362380Y-95290277D01*
X99362380Y-95181420D01*
X99301904Y-95072562D01*
X99241428Y-95018134D01*
X99120476Y-94963705D01*
X98878571Y-94909277D01*
X98757619Y-94854848D01*
X98697142Y-94800420D01*
X98636666Y-94691562D01*
X98636666Y-94582705D01*
X98697142Y-94473848D01*
X98757619Y-94419420D01*
X98878571Y-94364991D01*
X99180952Y-94364991D01*
X99362380Y-94419420D01*
X99906666Y-95507991D02*
X99906666Y-94364991D01*
X99906666Y-94909277D02*
X100632380Y-94909277D01*
X100632380Y-95507991D02*
X100632380Y-94364991D01*
X100934761Y-95616848D02*
X101902380Y-95616848D01*
X102628095Y-94909277D02*
X102809523Y-94963705D01*
X102870000Y-95018134D01*
X102930476Y-95126991D01*
X102930476Y-95290277D01*
X102870000Y-95399134D01*
X102809523Y-95453562D01*
X102688571Y-95507991D01*
X102204761Y-95507991D01*
X102204761Y-94364991D01*
X102628095Y-94364991D01*
X102749047Y-94419420D01*
X102809523Y-94473848D01*
X102870000Y-94582705D01*
X102870000Y-94691562D01*
X102809523Y-94800420D01*
X102749047Y-94854848D01*
X102628095Y-94909277D01*
X102204761Y-94909277D01*
X103293333Y-94364991D02*
X104019047Y-94364991D01*
X103656190Y-95507991D02*
X103656190Y-94364991D01*
X104442380Y-95507991D02*
X104442380Y-94364991D01*
X105168095Y-95507991D01*
X105168095Y-94364991D01*
G04 #@! TO.C,U201*
D13*
X126301714Y-95464380D02*
X126301714Y-96273904D01*
X126349333Y-96369142D01*
X126396952Y-96416761D01*
X126492190Y-96464380D01*
X126682666Y-96464380D01*
X126777904Y-96416761D01*
X126825523Y-96369142D01*
X126873142Y-96273904D01*
X126873142Y-95464380D01*
X127301714Y-95559619D02*
X127349333Y-95512000D01*
X127444571Y-95464380D01*
X127682666Y-95464380D01*
X127777904Y-95512000D01*
X127825523Y-95559619D01*
X127873142Y-95654857D01*
X127873142Y-95750095D01*
X127825523Y-95892952D01*
X127254095Y-96464380D01*
X127873142Y-96464380D01*
X128492190Y-95464380D02*
X128587428Y-95464380D01*
X128682666Y-95512000D01*
X128730285Y-95559619D01*
X128777904Y-95654857D01*
X128825523Y-95845333D01*
X128825523Y-96083428D01*
X128777904Y-96273904D01*
X128730285Y-96369142D01*
X128682666Y-96416761D01*
X128587428Y-96464380D01*
X128492190Y-96464380D01*
X128396952Y-96416761D01*
X128349333Y-96369142D01*
X128301714Y-96273904D01*
X128254095Y-96083428D01*
X128254095Y-95845333D01*
X128301714Y-95654857D01*
X128349333Y-95559619D01*
X128396952Y-95512000D01*
X128492190Y-95464380D01*
X129777904Y-96464380D02*
X129206476Y-96464380D01*
X129492190Y-96464380D02*
X129492190Y-95464380D01*
X129396952Y-95607238D01*
X129301714Y-95702476D01*
X129206476Y-95750095D01*
G04 #@! TO.C,U301*
X160083714Y-127468380D02*
X160083714Y-128277904D01*
X160131333Y-128373142D01*
X160178952Y-128420761D01*
X160274190Y-128468380D01*
X160464666Y-128468380D01*
X160559904Y-128420761D01*
X160607523Y-128373142D01*
X160655142Y-128277904D01*
X160655142Y-127468380D01*
X161036095Y-127468380D02*
X161655142Y-127468380D01*
X161321809Y-127849333D01*
X161464666Y-127849333D01*
X161559904Y-127896952D01*
X161607523Y-127944571D01*
X161655142Y-128039809D01*
X161655142Y-128277904D01*
X161607523Y-128373142D01*
X161559904Y-128420761D01*
X161464666Y-128468380D01*
X161178952Y-128468380D01*
X161083714Y-128420761D01*
X161036095Y-128373142D01*
X162274190Y-127468380D02*
X162369428Y-127468380D01*
X162464666Y-127516000D01*
X162512285Y-127563619D01*
X162559904Y-127658857D01*
X162607523Y-127849333D01*
X162607523Y-128087428D01*
X162559904Y-128277904D01*
X162512285Y-128373142D01*
X162464666Y-128420761D01*
X162369428Y-128468380D01*
X162274190Y-128468380D01*
X162178952Y-128420761D01*
X162131333Y-128373142D01*
X162083714Y-128277904D01*
X162036095Y-128087428D01*
X162036095Y-127849333D01*
X162083714Y-127658857D01*
X162131333Y-127563619D01*
X162178952Y-127516000D01*
X162274190Y-127468380D01*
X163559904Y-128468380D02*
X162988476Y-128468380D01*
X163274190Y-128468380D02*
X163274190Y-127468380D01*
X163178952Y-127611238D01*
X163083714Y-127706476D01*
X162988476Y-127754095D01*
G04 #@! TO.C,U401*
X149669714Y-138136380D02*
X149669714Y-138945904D01*
X149717333Y-139041142D01*
X149764952Y-139088761D01*
X149860190Y-139136380D01*
X150050666Y-139136380D01*
X150145904Y-139088761D01*
X150193523Y-139041142D01*
X150241142Y-138945904D01*
X150241142Y-138136380D01*
X151145904Y-138469714D02*
X151145904Y-139136380D01*
X150907809Y-138088761D02*
X150669714Y-138803047D01*
X151288761Y-138803047D01*
X151860190Y-138136380D02*
X151955428Y-138136380D01*
X152050666Y-138184000D01*
X152098285Y-138231619D01*
X152145904Y-138326857D01*
X152193523Y-138517333D01*
X152193523Y-138755428D01*
X152145904Y-138945904D01*
X152098285Y-139041142D01*
X152050666Y-139088761D01*
X151955428Y-139136380D01*
X151860190Y-139136380D01*
X151764952Y-139088761D01*
X151717333Y-139041142D01*
X151669714Y-138945904D01*
X151622095Y-138755428D01*
X151622095Y-138517333D01*
X151669714Y-138326857D01*
X151717333Y-138231619D01*
X151764952Y-138184000D01*
X151860190Y-138136380D01*
X153145904Y-139136380D02*
X152574476Y-139136380D01*
X152860190Y-139136380D02*
X152860190Y-138136380D01*
X152764952Y-138279238D01*
X152669714Y-138374476D01*
X152574476Y-138422095D01*
G04 #@! TO.C,U402*
X81343714Y-90130380D02*
X81343714Y-90939904D01*
X81391333Y-91035142D01*
X81438952Y-91082761D01*
X81534190Y-91130380D01*
X81724666Y-91130380D01*
X81819904Y-91082761D01*
X81867523Y-91035142D01*
X81915142Y-90939904D01*
X81915142Y-90130380D01*
X82819904Y-90463714D02*
X82819904Y-91130380D01*
X82581809Y-90082761D02*
X82343714Y-90797047D01*
X82962761Y-90797047D01*
X83534190Y-90130380D02*
X83629428Y-90130380D01*
X83724666Y-90178000D01*
X83772285Y-90225619D01*
X83819904Y-90320857D01*
X83867523Y-90511333D01*
X83867523Y-90749428D01*
X83819904Y-90939904D01*
X83772285Y-91035142D01*
X83724666Y-91082761D01*
X83629428Y-91130380D01*
X83534190Y-91130380D01*
X83438952Y-91082761D01*
X83391333Y-91035142D01*
X83343714Y-90939904D01*
X83296095Y-90749428D01*
X83296095Y-90511333D01*
X83343714Y-90320857D01*
X83391333Y-90225619D01*
X83438952Y-90178000D01*
X83534190Y-90130380D01*
X84248476Y-90225619D02*
X84296095Y-90178000D01*
X84391333Y-90130380D01*
X84629428Y-90130380D01*
X84724666Y-90178000D01*
X84772285Y-90225619D01*
X84819904Y-90320857D01*
X84819904Y-90416095D01*
X84772285Y-90558952D01*
X84200857Y-91130380D01*
X84819904Y-91130380D01*
G04 #@! TO.C,U601*
X93535714Y-106132380D02*
X93535714Y-106941904D01*
X93583333Y-107037142D01*
X93630952Y-107084761D01*
X93726190Y-107132380D01*
X93916666Y-107132380D01*
X94011904Y-107084761D01*
X94059523Y-107037142D01*
X94107142Y-106941904D01*
X94107142Y-106132380D01*
X95011904Y-106132380D02*
X94821428Y-106132380D01*
X94726190Y-106180000D01*
X94678571Y-106227619D01*
X94583333Y-106370476D01*
X94535714Y-106560952D01*
X94535714Y-106941904D01*
X94583333Y-107037142D01*
X94630952Y-107084761D01*
X94726190Y-107132380D01*
X94916666Y-107132380D01*
X95011904Y-107084761D01*
X95059523Y-107037142D01*
X95107142Y-106941904D01*
X95107142Y-106703809D01*
X95059523Y-106608571D01*
X95011904Y-106560952D01*
X94916666Y-106513333D01*
X94726190Y-106513333D01*
X94630952Y-106560952D01*
X94583333Y-106608571D01*
X94535714Y-106703809D01*
X95726190Y-106132380D02*
X95821428Y-106132380D01*
X95916666Y-106180000D01*
X95964285Y-106227619D01*
X96011904Y-106322857D01*
X96059523Y-106513333D01*
X96059523Y-106751428D01*
X96011904Y-106941904D01*
X95964285Y-107037142D01*
X95916666Y-107084761D01*
X95821428Y-107132380D01*
X95726190Y-107132380D01*
X95630952Y-107084761D01*
X95583333Y-107037142D01*
X95535714Y-106941904D01*
X95488095Y-106751428D01*
X95488095Y-106513333D01*
X95535714Y-106322857D01*
X95583333Y-106227619D01*
X95630952Y-106180000D01*
X95726190Y-106132380D01*
X97011904Y-107132380D02*
X96440476Y-107132380D01*
X96726190Y-107132380D02*
X96726190Y-106132380D01*
X96630952Y-106275238D01*
X96535714Y-106370476D01*
X96440476Y-106418095D01*
G04 #@! TO.C,U501*
X80835714Y-106132380D02*
X80835714Y-106941904D01*
X80883333Y-107037142D01*
X80930952Y-107084761D01*
X81026190Y-107132380D01*
X81216666Y-107132380D01*
X81311904Y-107084761D01*
X81359523Y-107037142D01*
X81407142Y-106941904D01*
X81407142Y-106132380D01*
X82359523Y-106132380D02*
X81883333Y-106132380D01*
X81835714Y-106608571D01*
X81883333Y-106560952D01*
X81978571Y-106513333D01*
X82216666Y-106513333D01*
X82311904Y-106560952D01*
X82359523Y-106608571D01*
X82407142Y-106703809D01*
X82407142Y-106941904D01*
X82359523Y-107037142D01*
X82311904Y-107084761D01*
X82216666Y-107132380D01*
X81978571Y-107132380D01*
X81883333Y-107084761D01*
X81835714Y-107037142D01*
X83026190Y-106132380D02*
X83121428Y-106132380D01*
X83216666Y-106180000D01*
X83264285Y-106227619D01*
X83311904Y-106322857D01*
X83359523Y-106513333D01*
X83359523Y-106751428D01*
X83311904Y-106941904D01*
X83264285Y-107037142D01*
X83216666Y-107084761D01*
X83121428Y-107132380D01*
X83026190Y-107132380D01*
X82930952Y-107084761D01*
X82883333Y-107037142D01*
X82835714Y-106941904D01*
X82788095Y-106751428D01*
X82788095Y-106513333D01*
X82835714Y-106322857D01*
X82883333Y-106227619D01*
X82930952Y-106180000D01*
X83026190Y-106132380D01*
X84311904Y-107132380D02*
X83740476Y-107132380D01*
X84026190Y-107132380D02*
X84026190Y-106132380D01*
X83930952Y-106275238D01*
X83835714Y-106370476D01*
X83740476Y-106418095D01*
G04 #@! TO.C,C501*
X88796952Y-99294541D02*
X88749333Y-99342160D01*
X88606476Y-99389779D01*
X88511238Y-99389779D01*
X88368380Y-99342160D01*
X88273142Y-99246922D01*
X88225523Y-99151684D01*
X88177904Y-98961208D01*
X88177904Y-98818351D01*
X88225523Y-98627875D01*
X88273142Y-98532637D01*
X88368380Y-98437399D01*
X88511238Y-98389779D01*
X88606476Y-98389779D01*
X88749333Y-98437399D01*
X88796952Y-98485018D01*
X89701714Y-98389779D02*
X89225523Y-98389779D01*
X89177904Y-98865970D01*
X89225523Y-98818351D01*
X89320761Y-98770732D01*
X89558857Y-98770732D01*
X89654095Y-98818351D01*
X89701714Y-98865970D01*
X89749333Y-98961208D01*
X89749333Y-99199303D01*
X89701714Y-99294541D01*
X89654095Y-99342160D01*
X89558857Y-99389779D01*
X89320761Y-99389779D01*
X89225523Y-99342160D01*
X89177904Y-99294541D01*
X90368380Y-98389779D02*
X90463619Y-98389779D01*
X90558857Y-98437399D01*
X90606476Y-98485018D01*
X90654095Y-98580256D01*
X90701714Y-98770732D01*
X90701714Y-99008827D01*
X90654095Y-99199303D01*
X90606476Y-99294541D01*
X90558857Y-99342160D01*
X90463619Y-99389779D01*
X90368380Y-99389779D01*
X90273142Y-99342160D01*
X90225523Y-99294541D01*
X90177904Y-99199303D01*
X90130285Y-99008827D01*
X90130285Y-98770732D01*
X90177904Y-98580256D01*
X90225523Y-98485018D01*
X90273142Y-98437399D01*
X90368380Y-98389779D01*
X91654095Y-99389779D02*
X91082666Y-99389779D01*
X91368380Y-99389779D02*
X91368380Y-98389779D01*
X91273142Y-98532637D01*
X91177904Y-98627875D01*
X91082666Y-98675494D01*
G04 #@! TO.C,C502*
X88847752Y-101296742D02*
X88800133Y-101344361D01*
X88657276Y-101391980D01*
X88562038Y-101391980D01*
X88419180Y-101344361D01*
X88323942Y-101249123D01*
X88276323Y-101153885D01*
X88228704Y-100963409D01*
X88228704Y-100820552D01*
X88276323Y-100630076D01*
X88323942Y-100534838D01*
X88419180Y-100439600D01*
X88562038Y-100391980D01*
X88657276Y-100391980D01*
X88800133Y-100439600D01*
X88847752Y-100487219D01*
X89752514Y-100391980D02*
X89276323Y-100391980D01*
X89228704Y-100868171D01*
X89276323Y-100820552D01*
X89371561Y-100772933D01*
X89609657Y-100772933D01*
X89704895Y-100820552D01*
X89752514Y-100868171D01*
X89800133Y-100963409D01*
X89800133Y-101201504D01*
X89752514Y-101296742D01*
X89704895Y-101344361D01*
X89609657Y-101391980D01*
X89371561Y-101391980D01*
X89276323Y-101344361D01*
X89228704Y-101296742D01*
X90419180Y-100391980D02*
X90514419Y-100391980D01*
X90609657Y-100439600D01*
X90657276Y-100487219D01*
X90704895Y-100582457D01*
X90752514Y-100772933D01*
X90752514Y-101011028D01*
X90704895Y-101201504D01*
X90657276Y-101296742D01*
X90609657Y-101344361D01*
X90514419Y-101391980D01*
X90419180Y-101391980D01*
X90323942Y-101344361D01*
X90276323Y-101296742D01*
X90228704Y-101201504D01*
X90181085Y-101011028D01*
X90181085Y-100772933D01*
X90228704Y-100582457D01*
X90276323Y-100487219D01*
X90323942Y-100439600D01*
X90419180Y-100391980D01*
X91133466Y-100487219D02*
X91181085Y-100439600D01*
X91276323Y-100391980D01*
X91514419Y-100391980D01*
X91609657Y-100439600D01*
X91657276Y-100487219D01*
X91704895Y-100582457D01*
X91704895Y-100677695D01*
X91657276Y-100820552D01*
X91085847Y-101391980D01*
X91704895Y-101391980D01*
G04 #@! TO.C,C302*
X174347142Y-123039047D02*
X174394761Y-123086666D01*
X174442380Y-123229523D01*
X174442380Y-123324761D01*
X174394761Y-123467619D01*
X174299523Y-123562857D01*
X174204285Y-123610476D01*
X174013809Y-123658095D01*
X173870952Y-123658095D01*
X173680476Y-123610476D01*
X173585238Y-123562857D01*
X173490000Y-123467619D01*
X173442380Y-123324761D01*
X173442380Y-123229523D01*
X173490000Y-123086666D01*
X173537619Y-123039047D01*
X173442380Y-122705714D02*
X173442380Y-122086666D01*
X173823333Y-122420000D01*
X173823333Y-122277142D01*
X173870952Y-122181904D01*
X173918571Y-122134285D01*
X174013809Y-122086666D01*
X174251904Y-122086666D01*
X174347142Y-122134285D01*
X174394761Y-122181904D01*
X174442380Y-122277142D01*
X174442380Y-122562857D01*
X174394761Y-122658095D01*
X174347142Y-122705714D01*
X173442380Y-121467619D02*
X173442380Y-121372380D01*
X173490000Y-121277142D01*
X173537619Y-121229523D01*
X173632857Y-121181904D01*
X173823333Y-121134285D01*
X174061428Y-121134285D01*
X174251904Y-121181904D01*
X174347142Y-121229523D01*
X174394761Y-121277142D01*
X174442380Y-121372380D01*
X174442380Y-121467619D01*
X174394761Y-121562857D01*
X174347142Y-121610476D01*
X174251904Y-121658095D01*
X174061428Y-121705714D01*
X173823333Y-121705714D01*
X173632857Y-121658095D01*
X173537619Y-121610476D01*
X173490000Y-121562857D01*
X173442380Y-121467619D01*
X173537619Y-120753333D02*
X173490000Y-120705714D01*
X173442380Y-120610476D01*
X173442380Y-120372380D01*
X173490000Y-120277142D01*
X173537619Y-120229523D01*
X173632857Y-120181904D01*
X173728095Y-120181904D01*
X173870952Y-120229523D01*
X174442380Y-120800952D01*
X174442380Y-120181904D01*
G04 #@! TO.C,C303*
X173077142Y-123039047D02*
X173124761Y-123086666D01*
X173172380Y-123229523D01*
X173172380Y-123324761D01*
X173124761Y-123467619D01*
X173029523Y-123562857D01*
X172934285Y-123610476D01*
X172743809Y-123658095D01*
X172600952Y-123658095D01*
X172410476Y-123610476D01*
X172315238Y-123562857D01*
X172220000Y-123467619D01*
X172172380Y-123324761D01*
X172172380Y-123229523D01*
X172220000Y-123086666D01*
X172267619Y-123039047D01*
X172172380Y-122705714D02*
X172172380Y-122086666D01*
X172553333Y-122420000D01*
X172553333Y-122277142D01*
X172600952Y-122181904D01*
X172648571Y-122134285D01*
X172743809Y-122086666D01*
X172981904Y-122086666D01*
X173077142Y-122134285D01*
X173124761Y-122181904D01*
X173172380Y-122277142D01*
X173172380Y-122562857D01*
X173124761Y-122658095D01*
X173077142Y-122705714D01*
X172172380Y-121467619D02*
X172172380Y-121372380D01*
X172220000Y-121277142D01*
X172267619Y-121229523D01*
X172362857Y-121181904D01*
X172553333Y-121134285D01*
X172791428Y-121134285D01*
X172981904Y-121181904D01*
X173077142Y-121229523D01*
X173124761Y-121277142D01*
X173172380Y-121372380D01*
X173172380Y-121467619D01*
X173124761Y-121562857D01*
X173077142Y-121610476D01*
X172981904Y-121658095D01*
X172791428Y-121705714D01*
X172553333Y-121705714D01*
X172362857Y-121658095D01*
X172267619Y-121610476D01*
X172220000Y-121562857D01*
X172172380Y-121467619D01*
X172172380Y-120800952D02*
X172172380Y-120181904D01*
X172553333Y-120515238D01*
X172553333Y-120372380D01*
X172600952Y-120277142D01*
X172648571Y-120229523D01*
X172743809Y-120181904D01*
X172981904Y-120181904D01*
X173077142Y-120229523D01*
X173124761Y-120277142D01*
X173172380Y-120372380D01*
X173172380Y-120658095D01*
X173124761Y-120753333D01*
X173077142Y-120800952D01*
G04 #@! TO.C,C404*
X143907142Y-123059047D02*
X143954761Y-123106666D01*
X144002380Y-123249523D01*
X144002380Y-123344761D01*
X143954761Y-123487619D01*
X143859523Y-123582857D01*
X143764285Y-123630476D01*
X143573809Y-123678095D01*
X143430952Y-123678095D01*
X143240476Y-123630476D01*
X143145238Y-123582857D01*
X143050000Y-123487619D01*
X143002380Y-123344761D01*
X143002380Y-123249523D01*
X143050000Y-123106666D01*
X143097619Y-123059047D01*
X143335714Y-122201904D02*
X144002380Y-122201904D01*
X142954761Y-122440000D02*
X143669047Y-122678095D01*
X143669047Y-122059047D01*
X143002380Y-121487619D02*
X143002380Y-121392380D01*
X143050000Y-121297142D01*
X143097619Y-121249523D01*
X143192857Y-121201904D01*
X143383333Y-121154285D01*
X143621428Y-121154285D01*
X143811904Y-121201904D01*
X143907142Y-121249523D01*
X143954761Y-121297142D01*
X144002380Y-121392380D01*
X144002380Y-121487619D01*
X143954761Y-121582857D01*
X143907142Y-121630476D01*
X143811904Y-121678095D01*
X143621428Y-121725714D01*
X143383333Y-121725714D01*
X143192857Y-121678095D01*
X143097619Y-121630476D01*
X143050000Y-121582857D01*
X143002380Y-121487619D01*
X143335714Y-120297142D02*
X144002380Y-120297142D01*
X142954761Y-120535238D02*
X143669047Y-120773333D01*
X143669047Y-120154285D01*
G04 #@! TO.C,C503*
X88796952Y-97334342D02*
X88749333Y-97381961D01*
X88606476Y-97429580D01*
X88511238Y-97429580D01*
X88368380Y-97381961D01*
X88273142Y-97286723D01*
X88225523Y-97191485D01*
X88177904Y-97001009D01*
X88177904Y-96858152D01*
X88225523Y-96667676D01*
X88273142Y-96572438D01*
X88368380Y-96477200D01*
X88511238Y-96429580D01*
X88606476Y-96429580D01*
X88749333Y-96477200D01*
X88796952Y-96524819D01*
X89701714Y-96429580D02*
X89225523Y-96429580D01*
X89177904Y-96905771D01*
X89225523Y-96858152D01*
X89320761Y-96810533D01*
X89558857Y-96810533D01*
X89654095Y-96858152D01*
X89701714Y-96905771D01*
X89749333Y-97001009D01*
X89749333Y-97239104D01*
X89701714Y-97334342D01*
X89654095Y-97381961D01*
X89558857Y-97429580D01*
X89320761Y-97429580D01*
X89225523Y-97381961D01*
X89177904Y-97334342D01*
X90368380Y-96429580D02*
X90463619Y-96429580D01*
X90558857Y-96477200D01*
X90606476Y-96524819D01*
X90654095Y-96620057D01*
X90701714Y-96810533D01*
X90701714Y-97048628D01*
X90654095Y-97239104D01*
X90606476Y-97334342D01*
X90558857Y-97381961D01*
X90463619Y-97429580D01*
X90368380Y-97429580D01*
X90273142Y-97381961D01*
X90225523Y-97334342D01*
X90177904Y-97239104D01*
X90130285Y-97048628D01*
X90130285Y-96810533D01*
X90177904Y-96620057D01*
X90225523Y-96524819D01*
X90273142Y-96477200D01*
X90368380Y-96429580D01*
X91035047Y-96429580D02*
X91654095Y-96429580D01*
X91320761Y-96810533D01*
X91463619Y-96810533D01*
X91558857Y-96858152D01*
X91606476Y-96905771D01*
X91654095Y-97001009D01*
X91654095Y-97239104D01*
X91606476Y-97334342D01*
X91558857Y-97381961D01*
X91463619Y-97429580D01*
X91177904Y-97429580D01*
X91082666Y-97381961D01*
X91035047Y-97334342D01*
G04 #@! TO.C,R515*
X74420552Y-97327980D02*
X74087219Y-96851790D01*
X73849123Y-97327980D02*
X73849123Y-96327980D01*
X74230076Y-96327980D01*
X74325314Y-96375600D01*
X74372933Y-96423219D01*
X74420552Y-96518457D01*
X74420552Y-96661314D01*
X74372933Y-96756552D01*
X74325314Y-96804171D01*
X74230076Y-96851790D01*
X73849123Y-96851790D01*
X75325314Y-96327980D02*
X74849123Y-96327980D01*
X74801504Y-96804171D01*
X74849123Y-96756552D01*
X74944361Y-96708933D01*
X75182457Y-96708933D01*
X75277695Y-96756552D01*
X75325314Y-96804171D01*
X75372933Y-96899409D01*
X75372933Y-97137504D01*
X75325314Y-97232742D01*
X75277695Y-97280361D01*
X75182457Y-97327980D01*
X74944361Y-97327980D01*
X74849123Y-97280361D01*
X74801504Y-97232742D01*
X76325314Y-97327980D02*
X75753885Y-97327980D01*
X76039600Y-97327980D02*
X76039600Y-96327980D01*
X75944361Y-96470838D01*
X75849123Y-96566076D01*
X75753885Y-96613695D01*
X77230076Y-96327980D02*
X76753885Y-96327980D01*
X76706266Y-96804171D01*
X76753885Y-96756552D01*
X76849123Y-96708933D01*
X77087219Y-96708933D01*
X77182457Y-96756552D01*
X77230076Y-96804171D01*
X77277695Y-96899409D01*
X77277695Y-97137504D01*
X77230076Y-97232742D01*
X77182457Y-97280361D01*
X77087219Y-97327980D01*
X76849123Y-97327980D01*
X76753885Y-97280361D01*
X76706266Y-97232742D01*
G04 #@! TD*
M02*
