M48
;DRILL file {KiCad 5.0.2-bee76a0~70~ubuntu18.04.1} date Do 20 Dez 2018 01:39:55 CET
;FORMAT={3:3/ absolute / metric / suppress leading zeros}
FMAT,2
METRIC,TZ
T1C0.400
T2C0.500
T3C0.800
T4C1.000
T5C1.143
T6C1.200
T7C1.320
T8C2.500
T9C3.500
T10C0.798
%
G90
G05
T1
X62992Y-97790
X62992Y-100838
X62992Y-104394
X62992Y-108458
X62992Y-112014
X62992Y-115570
X62992Y-119126
X62992Y-122174
X62992Y-125730
X62992Y-128778
X63373Y-130429
X63500Y-82550
X63500Y-134366
X63500Y-144780
X64516Y-94361
X64516Y-103124
X64770Y-97790
X64897Y-132080
X65024Y-89408
X65024Y-99314
X65024Y-106426
X65024Y-109982
X65024Y-114046
X65024Y-117602
X65024Y-120650
X65024Y-124206
X66040Y-80010
X66040Y-91440
X66548Y-97790
X66675Y-133858
X67056Y-108458
X67056Y-112014
X67056Y-115570
X67056Y-119126
X67056Y-122174
X67310Y-95250
X67310Y-140970
X68072Y-98806
X68580Y-93980
X68580Y-120650
X68580Y-124206
X68580Y-137160
X68834Y-91948
X69088Y-132842
X69596Y-97790
X69850Y-81280
X69850Y-88900
X70104Y-119634
X70104Y-122174
X70612Y-99314
X71247Y-132715
X71628Y-110490
X71628Y-120650
X71628Y-124206
X72390Y-85090
X72390Y-139700
X72390Y-143510
X73152Y-126238
X73406Y-130048
X73660Y-108966
X73660Y-120142
X73660Y-122174
X74168Y-106426
X74168Y-132842
X74676Y-100330
X74676Y-103378
X74676Y-124206
X74676Y-128778
X74676Y-150368
X74930Y-137160
X74930Y-142240
X75311Y-94996
X75692Y-104140
X75692Y-119126
X75692Y-146812
X76200Y-96520
X76200Y-98298
X76454Y-99314
X76708Y-103378
X76708Y-105918
X77216Y-110998
X77470Y-113030
X77724Y-144780
X78740Y-133096
X79096Y-95250
X79248Y-105156
X79248Y-107696
X81280Y-111252
X81280Y-120904
X81483Y-87782
X81788Y-140208
X82093Y-94031
X82296Y-105156
X82296Y-125476
X82296Y-135636
X82804Y-113284
X82804Y-132080
X82906Y-95606
X83363Y-84176
X84328Y-106172
X84328Y-111252
X84328Y-114300
X84836Y-129540
X85852Y-107188
X85852Y-150876
X87376Y-111252
X87376Y-120396
X88189Y-87122
X88392Y-102108
X88392Y-139192
X88900Y-93980
X88900Y-95504
X88900Y-125476
X88900Y-131064
X89916Y-103124
X89916Y-110236
X90170Y-83820
X90424Y-114300
X90932Y-93828
X90983Y-95656
X91084Y-88443
X91846Y-102108
X91948Y-134620
X92100Y-98146
X92456Y-140716
X92964Y-129540
X93269Y-93777
X93320Y-95707
X93472Y-105664
X93472Y-112268
X93828Y-84836
X94336Y-100889
X94488Y-108204
X94590Y-89967
X94996Y-124968
X94996Y-138684
X95199Y-95758
X95250Y-80010
X95504Y-105664
X96215Y-99416
X96520Y-95809
X96571Y-93828
X97028Y-105664
X97028Y-107696
X97028Y-113284
X97536Y-86868
X97536Y-132588
X99060Y-93929
X99060Y-95504
X99568Y-150368
X100076Y-84328
X100330Y-125476
X101448Y-93980
X101600Y-106680
X101600Y-130556
X102108Y-138684
X102413Y-92710
X102616Y-86868
X102616Y-141732
X102870Y-80010
X103124Y-100584
X103632Y-119380
X104140Y-104648
X105461Y-98755
X105613Y-96469
X105664Y-89408
X106172Y-87884
X106324Y-94386
X106426Y-112522
X106832Y-97587
X107086Y-100533
X107188Y-103632
X107696Y-133604
X107696Y-138684
X108204Y-124968
X108204Y-130556
X108306Y-99212
X108610Y-101905
X108712Y-107442
X109474Y-102972
X109474Y-106375
X109728Y-87884
X109728Y-112014
X109779Y-100584
X110033Y-95555
X110109Y-98171
X110338Y-109017
X111252Y-107645
X111252Y-150876
X113284Y-91948
X113538Y-93984
X113792Y-129032
X113792Y-141732
X114300Y-120904
X114300Y-134620
X114300Y-138176
X114808Y-124968
X116078Y-112522
X116535Y-89154
X116535Y-91542
X116586Y-105156
X116738Y-101702
X116840Y-94345
X116840Y-103327
X117348Y-90932
X118466Y-106426
X118669Y-103327
X119888Y-114300
X120904Y-100584
X120904Y-125476
X120904Y-130048
X120904Y-133096
X120904Y-140716
X121158Y-106553
X121412Y-122936
X122047Y-95070
X122936Y-99314
X122936Y-150876
X124206Y-97282
X124206Y-97282
X124968Y-113411
X125465Y-98515
X125476Y-95504
X127000Y-124968
X127000Y-130048
X127000Y-142240
X128016Y-137160
X129032Y-100076
X129032Y-121412
X130310Y-91940
X130556Y-150876
X130810Y-113284
X131191Y-97282
X132080Y-106477
X133096Y-99187
X133096Y-130048
X133096Y-143256
X133604Y-137668
X134112Y-124968
X134366Y-95377
X134366Y-99949
X135788Y-106426
X136906Y-102489
X137414Y-113284
X137668Y-150368
X138049Y-91440
X138684Y-103632
X138684Y-142748
X139700Y-105664
X140208Y-124968
X140208Y-138176
X140462Y-95758
X140462Y-102362
X140716Y-131064
X141605Y-99822
X142240Y-87503
X142240Y-135128
X143383Y-103378
X143764Y-106172
X143764Y-121412
X144272Y-113792
X144628Y-86208
X144780Y-90170
X145542Y-129032
X146050Y-101600
X146050Y-141859
X146050Y-146939
X146050Y-150368
X146304Y-115824
X147320Y-107188
X148336Y-86868
X148336Y-103632
X149352Y-111760
X149479Y-105664
X149860Y-125095
X149860Y-132207
X150114Y-95250
X150622Y-133858
X151003Y-145288
X151130Y-142621
X152400Y-83312
X152400Y-89916
X152400Y-114808
X152908Y-99568
X152908Y-124968
X153416Y-126492
X153416Y-132588
X154178Y-135890
X154432Y-139954
X154559Y-117856
X154686Y-112141
X154686Y-150749
X155448Y-93980
X155448Y-103124
X155702Y-108204
X155702Y-127762
X156845Y-116713
X156845Y-122809
X157099Y-143383
X158496Y-89916
X158496Y-99568
X159512Y-83312
X159512Y-124079
X159639Y-129921
X160147Y-135128
X160147Y-137795
X160147Y-139954
X160147Y-142367
X160147Y-145288
X160782Y-126238
X161290Y-121793
X161290Y-129667
X161544Y-108585
X161544Y-132715
X161925Y-118364
X162052Y-119507
X163195Y-136017
X163195Y-139954
X163322Y-137922
X163352Y-145288
X163449Y-124587
X163449Y-142494
X163576Y-86868
X163576Y-102616
X163576Y-130556
X164084Y-94742
X164084Y-121920
X164338Y-134493
X165608Y-121412
X166624Y-134620
X166624Y-147066
X166751Y-131191
X166878Y-125995
X167005Y-124460
X167132Y-89408
X167767Y-137922
X168656Y-101600
X168656Y-107696
X168656Y-142748
X169545Y-121920
X169545Y-124333
X169545Y-126873
X169545Y-128397
X169672Y-97536
X172212Y-90424
X172720Y-104648
X173228Y-111760
X173228Y-118364
X173228Y-143256
X173355Y-137922
X173736Y-123952
X174244Y-126492
X174244Y-134112
T2
X168813Y-85344
X169362Y-84018
X169362Y-86670
X170688Y-83469
X170688Y-87219
X172014Y-84018
X172014Y-86670
X172563Y-85344
X65689Y-85852
X66238Y-84526
X66238Y-87178
X67564Y-83977
X67564Y-87727
X68890Y-84526
X68890Y-87178
X69439Y-85852
X66197Y-147828
X66746Y-146502
X66746Y-149154
X68072Y-145953
X68072Y-149703
X69398Y-146502
X69398Y-149154
X69947Y-147828
X168970Y-147320
X169519Y-145994
X169519Y-148646
X170845Y-145445
X170845Y-149195
X172171Y-145994
X172171Y-148646
X172720Y-147320
T3
X149860Y-120690
X149860Y-123190
T4
X112776Y-109220
X115316Y-109220
X117856Y-109220
X120396Y-109220
X122936Y-109220
X125476Y-109220
X128016Y-109220
X130556Y-109220
X133096Y-109220
X135636Y-109220
X138176Y-109220
X140716Y-109220
X143256Y-109220
X145796Y-109220
X148336Y-109220
X111760Y-83820
X114300Y-83820
X116840Y-83820
X119380Y-83820
X121920Y-83820
X124460Y-83820
X127000Y-83820
X129540Y-83820
X132080Y-83820
X134620Y-83820
X137160Y-83820
X139700Y-83820
X142240Y-83820
X144780Y-83820
X147320Y-83820
T5
X72390Y-113030
X72390Y-115570
X72390Y-118110
T6
X127000Y-116840
X127000Y-147320
X114300Y-116840
X114300Y-147320
X95250Y-116840
X95250Y-147320
X101600Y-116840
X101600Y-147320
X88900Y-116840
X88900Y-147320
X120650Y-116840
X120650Y-147320
X82550Y-116840
X82550Y-147320
X133350Y-116840
X133350Y-147320
X139700Y-116840
X139700Y-147320
X107950Y-116840
X107950Y-147320
T7
X77622Y-82601
X82622Y-82601
T8
X170688Y-85344
X67564Y-85852
X68072Y-147828
X170845Y-147320
T9
X68580Y-102870
X68580Y-128270
T10
X160152Y-147711
X163949Y-147714
T0
M30
