G04 #@! TF.GenerationSoftware,KiCad,Pcbnew,5.0.2-bee76a0~70~ubuntu18.04.1*
G04 #@! TF.CreationDate,2018-12-20T01:02:46+01:00*
G04 #@! TF.ProjectId,eload,656c6f61-642e-46b6-9963-61645f706362,rev?*
G04 #@! TF.SameCoordinates,Original*
G04 #@! TF.FileFunction,Copper,L2,Bot*
G04 #@! TF.FilePolarity,Positive*
%FSLAX46Y46*%
G04 Gerber Fmt 4.6, Leading zero omitted, Abs format (unit mm)*
G04 Created by KiCad (PCBNEW 5.0.2-bee76a0~70~ubuntu18.04.1) date Do 20 Dez 2018 01:02:46 CET*
%MOMM*%
%LPD*%
G01*
G04 APERTURE LIST*
G04 #@! TA.AperFunction,ComponentPad*
%ADD10O,2.400000X2.400000*%
G04 #@! TD*
G04 #@! TA.AperFunction,ComponentPad*
%ADD11C,2.400000*%
G04 #@! TD*
G04 #@! TA.AperFunction,ComponentPad*
%ADD12C,5.999480*%
G04 #@! TD*
G04 #@! TA.AperFunction,ComponentPad*
%ADD13R,1.700000X1.700000*%
G04 #@! TD*
G04 #@! TA.AperFunction,ComponentPad*
%ADD14O,1.700000X1.700000*%
G04 #@! TD*
G04 #@! TA.AperFunction,ComponentPad*
%ADD15O,3.960000X1.980000*%
G04 #@! TD*
G04 #@! TA.AperFunction,ComponentPad*
%ADD16R,3.960000X1.980000*%
G04 #@! TD*
G04 #@! TA.AperFunction,ComponentPad*
%ADD17O,2.540000X2.032000*%
G04 #@! TD*
G04 #@! TA.AperFunction,ComponentPad*
%ADD18C,1.600000*%
G04 #@! TD*
G04 #@! TA.AperFunction,ComponentPad*
%ADD19R,1.600000X1.600000*%
G04 #@! TD*
G04 #@! TA.AperFunction,ComponentPad*
%ADD20C,0.800000*%
G04 #@! TD*
G04 #@! TA.AperFunction,ComponentPad*
%ADD21C,5.000000*%
G04 #@! TD*
G04 #@! TA.AperFunction,ViaPad*
%ADD22C,0.800000*%
G04 #@! TD*
G04 #@! TA.AperFunction,Conductor*
%ADD23C,0.250000*%
G04 #@! TD*
G04 #@! TA.AperFunction,Conductor*
%ADD24C,0.500000*%
G04 #@! TD*
G04 #@! TA.AperFunction,Conductor*
%ADD25C,1.500000*%
G04 #@! TD*
G04 #@! TA.AperFunction,Conductor*
%ADD26C,0.254000*%
G04 #@! TD*
G04 APERTURE END LIST*
D10*
G04 #@! TO.P,R508,2*
G04 #@! TO.N,GND*
X107950000Y-147320000D03*
D11*
G04 #@! TO.P,R508,1*
G04 #@! TO.N,Net-(Q501-Pad3)*
X107950000Y-116840000D03*
G04 #@! TD*
D12*
G04 #@! TO.P,HS501,1*
G04 #@! TO.N,N/C*
X68580000Y-137160000D03*
X68580000Y-111760000D03*
G04 #@! TD*
D13*
G04 #@! TO.P,J201,1*
G04 #@! TO.N,/OPAMPS and MOSFET/ADC_OUT*
X112776000Y-109220000D03*
D14*
G04 #@! TO.P,J201,2*
G04 #@! TO.N,GND*
X115316000Y-109220000D03*
G04 #@! TO.P,J201,3*
G04 #@! TO.N,+3V3*
X117856000Y-109220000D03*
G04 #@! TO.P,J201,4*
G04 #@! TO.N,/ESP8266-E12/GPIO10*
X120396000Y-109220000D03*
G04 #@! TO.P,J201,5*
G04 #@! TO.N,/ESP8266-E12/GPIO9*
X122936000Y-109220000D03*
G04 #@! TO.P,J201,6*
G04 #@! TO.N,/ESP8266-E12/GPIO11*
X125476000Y-109220000D03*
G04 #@! TO.P,J201,7*
G04 #@! TO.N,/ESP8266-E12/GPIO8*
X128016000Y-109220000D03*
G04 #@! TO.P,J201,8*
G04 #@! TO.N,/ESP8266-E12/GPIO7*
X130556000Y-109220000D03*
G04 #@! TO.P,J201,9*
G04 #@! TO.N,/ESP8266-E12/GPIO6*
X133096000Y-109220000D03*
G04 #@! TO.P,J201,10*
G04 #@! TO.N,GND*
X135636000Y-109220000D03*
G04 #@! TO.P,J201,11*
G04 #@! TO.N,+3V3*
X138176000Y-109220000D03*
G04 #@! TO.P,J201,12*
G04 #@! TO.N,/USB to UART/ESP_RESET*
X140716000Y-109220000D03*
G04 #@! TO.P,J201,13*
G04 #@! TO.N,/ESP8266-E12/CH_PD*
X143256000Y-109220000D03*
G04 #@! TO.P,J201,14*
G04 #@! TO.N,GND*
X145796000Y-109220000D03*
G04 #@! TO.P,J201,15*
G04 #@! TO.N,+5V*
X148336000Y-109220000D03*
G04 #@! TD*
G04 #@! TO.P,J202,15*
G04 #@! TO.N,+3V3*
X147320000Y-83820000D03*
G04 #@! TO.P,J202,14*
G04 #@! TO.N,GND*
X144780000Y-83820000D03*
G04 #@! TO.P,J202,13*
G04 #@! TO.N,/ESP8266-E12/ESP_TXD0*
X142240000Y-83820000D03*
G04 #@! TO.P,J202,12*
G04 #@! TO.N,/ESP8266-E12/ESP_RXD0*
X139700000Y-83820000D03*
G04 #@! TO.P,J202,11*
G04 #@! TO.N,/external DAC/DAC_SPI_CS*
X137160000Y-83820000D03*
G04 #@! TO.P,J202,10*
G04 #@! TO.N,/external DAC/DAC_SPI_DI*
X134620000Y-83820000D03*
G04 #@! TO.P,J202,9*
G04 #@! TO.N,/ESP8266-E12/ESP_SPI_MISO*
X132080000Y-83820000D03*
G04 #@! TO.P,J202,8*
G04 #@! TO.N,/external DAC/DAC_SPI_CLK*
X129540000Y-83820000D03*
G04 #@! TO.P,J202,7*
G04 #@! TO.N,GND*
X127000000Y-83820000D03*
G04 #@! TO.P,J202,6*
G04 #@! TO.N,+3V3*
X124460000Y-83820000D03*
G04 #@! TO.P,J202,5*
G04 #@! TO.N,/ESP8266-E12/GPIO2*
X121920000Y-83820000D03*
G04 #@! TO.P,J202,4*
G04 #@! TO.N,/ESP8266-E12/ESP_GPIO0*
X119380000Y-83820000D03*
G04 #@! TO.P,J202,3*
G04 #@! TO.N,/ESP8266-E12/GPIO4*
X116840000Y-83820000D03*
G04 #@! TO.P,J202,2*
G04 #@! TO.N,/ESP8266-E12/GPIO5*
X114300000Y-83820000D03*
D13*
G04 #@! TO.P,J202,1*
G04 #@! TO.N,/ESP8266-E12/GPIO16*
X111760000Y-83820000D03*
G04 #@! TD*
D15*
G04 #@! TO.P,J501,2*
G04 #@! TO.N,GND*
X69850000Y-96600000D03*
D16*
G04 #@! TO.P,J501,1*
G04 #@! TO.N,Net-(J501-Pad1)*
X69850000Y-101600000D03*
G04 #@! TD*
D17*
G04 #@! TO.P,Q501,1*
G04 #@! TO.N,Net-(Q501-Pad1)*
X72390000Y-127000000D03*
G04 #@! TO.P,Q501,3*
G04 #@! TO.N,Net-(Q501-Pad3)*
X72390000Y-121920000D03*
G04 #@! TO.P,Q501,2*
G04 #@! TO.N,Net-(J501-Pad1)*
X72390000Y-124460000D03*
G04 #@! TD*
D11*
G04 #@! TO.P,R505,1*
G04 #@! TO.N,Net-(Q501-Pad3)*
X139700000Y-116840000D03*
D10*
G04 #@! TO.P,R505,2*
G04 #@! TO.N,GND*
X139700000Y-147320000D03*
G04 #@! TD*
G04 #@! TO.P,R506,2*
G04 #@! TO.N,GND*
X82550000Y-147320000D03*
D11*
G04 #@! TO.P,R506,1*
G04 #@! TO.N,Net-(Q501-Pad3)*
X82550000Y-116840000D03*
G04 #@! TD*
G04 #@! TO.P,R507,1*
G04 #@! TO.N,Net-(Q501-Pad3)*
X88900000Y-116840000D03*
D10*
G04 #@! TO.P,R507,2*
G04 #@! TO.N,GND*
X88900000Y-147320000D03*
G04 #@! TD*
D11*
G04 #@! TO.P,R509,1*
G04 #@! TO.N,Net-(Q501-Pad3)*
X114300000Y-116840000D03*
D10*
G04 #@! TO.P,R509,2*
G04 #@! TO.N,GND*
X114300000Y-147320000D03*
G04 #@! TD*
G04 #@! TO.P,R510,2*
G04 #@! TO.N,GND*
X120650000Y-147320000D03*
D11*
G04 #@! TO.P,R510,1*
G04 #@! TO.N,Net-(Q501-Pad3)*
X120650000Y-116840000D03*
G04 #@! TD*
G04 #@! TO.P,R511,1*
G04 #@! TO.N,Net-(Q501-Pad3)*
X95250000Y-116840000D03*
D10*
G04 #@! TO.P,R511,2*
G04 #@! TO.N,GND*
X95250000Y-147320000D03*
G04 #@! TD*
G04 #@! TO.P,R512,2*
G04 #@! TO.N,GND*
X127000000Y-147320000D03*
D11*
G04 #@! TO.P,R512,1*
G04 #@! TO.N,Net-(Q501-Pad3)*
X127000000Y-116840000D03*
G04 #@! TD*
D10*
G04 #@! TO.P,R513,2*
G04 #@! TO.N,GND*
X101600000Y-147320000D03*
D11*
G04 #@! TO.P,R513,1*
G04 #@! TO.N,Net-(Q501-Pad3)*
X101600000Y-116840000D03*
G04 #@! TD*
G04 #@! TO.P,R514,1*
G04 #@! TO.N,Net-(Q501-Pad3)*
X133350000Y-116840000D03*
D10*
G04 #@! TO.P,R514,2*
G04 #@! TO.N,GND*
X133350000Y-147320000D03*
G04 #@! TD*
D18*
G04 #@! TO.P,C404,2*
G04 #@! TO.N,GND*
X149860000Y-120690000D03*
D19*
G04 #@! TO.P,C404,1*
G04 #@! TO.N,+3V3*
X149860000Y-123190000D03*
G04 #@! TD*
D20*
G04 #@! TO.P,H401,1*
G04 #@! TO.N,N/C*
X69397825Y-146502175D03*
X68072000Y-145953000D03*
X66746175Y-146502175D03*
X66197000Y-147828000D03*
X66746175Y-149153825D03*
X68072000Y-149703000D03*
X69397825Y-149153825D03*
X69947000Y-147828000D03*
D21*
X68072000Y-147828000D03*
G04 #@! TD*
D20*
G04 #@! TO.P,H402,1*
G04 #@! TO.N,N/C*
X172170825Y-145994175D03*
X170845000Y-145445000D03*
X169519175Y-145994175D03*
X168970000Y-147320000D03*
X169519175Y-148645825D03*
X170845000Y-149195000D03*
X172170825Y-148645825D03*
X172720000Y-147320000D03*
D21*
X170845000Y-147320000D03*
G04 #@! TD*
G04 #@! TO.P,H403,1*
G04 #@! TO.N,N/C*
X67564000Y-85852000D03*
D20*
X69439000Y-85852000D03*
X68889825Y-87177825D03*
X67564000Y-87727000D03*
X66238175Y-87177825D03*
X65689000Y-85852000D03*
X66238175Y-84526175D03*
X67564000Y-83977000D03*
X68889825Y-84526175D03*
G04 #@! TD*
D21*
G04 #@! TO.P,H404,1*
G04 #@! TO.N,N/C*
X170688000Y-85344000D03*
D20*
X172563000Y-85344000D03*
X172013825Y-86669825D03*
X170688000Y-87219000D03*
X169362175Y-86669825D03*
X168813000Y-85344000D03*
X169362175Y-84018175D03*
X170688000Y-83469000D03*
X172013825Y-84018175D03*
G04 #@! TD*
D22*
G04 #@! TO.N,*
X105283000Y-98679000D03*
X108077000Y-98933000D03*
X106807000Y-100076000D03*
X109601000Y-102997000D03*
X130556000Y-100330000D03*
X82931000Y-98933000D03*
G04 #@! TO.N,+3V3*
X116535200Y-89154000D03*
X116535200Y-91541600D03*
X110109000Y-98171000D03*
G04 #@! TO.N,GND*
X101600000Y-106680000D03*
X104140000Y-104648000D03*
X117348000Y-90932000D03*
X164084000Y-121920000D03*
X165608000Y-121412000D03*
X153416000Y-126492000D03*
X152908000Y-124968000D03*
X153416000Y-132588000D03*
X163576000Y-130556000D03*
X88392000Y-102108000D03*
X89916000Y-103124000D03*
X92710000Y-96266000D03*
X89154000Y-96266000D03*
X93345000Y-101473000D03*
X93472000Y-105664000D03*
X95504000Y-105664000D03*
X97028000Y-105664000D03*
X97028000Y-107696000D03*
X82296000Y-105156000D03*
X85852000Y-107188000D03*
X84328000Y-106172000D03*
X81280000Y-111252000D03*
X84328000Y-111252000D03*
X87376000Y-111252000D03*
X89916000Y-110236000D03*
X82804000Y-113284000D03*
X84328000Y-114300000D03*
X90424000Y-114300000D03*
X93472000Y-112268000D03*
X97028000Y-113284000D03*
X108712000Y-107442000D03*
X107188000Y-103632000D03*
X103124000Y-100584000D03*
X94996000Y-92964000D03*
X89154000Y-94615000D03*
X97536000Y-86868000D03*
X88392000Y-85344000D03*
X78740000Y-84836000D03*
X75692000Y-104140000D03*
X81280000Y-120904000D03*
X87376000Y-120396000D03*
X129032000Y-121412000D03*
X103632000Y-119380000D03*
X78740000Y-133096000D03*
X81788000Y-140208000D03*
X91948000Y-134620000D03*
X92964000Y-129540000D03*
X77724000Y-144780000D03*
X85852000Y-150876000D03*
X99568000Y-150368000D03*
X102616000Y-141732000D03*
X111252000Y-150876000D03*
X114300000Y-138176000D03*
X107696000Y-133604000D03*
X128016000Y-137160000D03*
X97536000Y-132588000D03*
X84836000Y-129540000D03*
X92456000Y-140716000D03*
X120904000Y-140716000D03*
X133096000Y-143256000D03*
X138684000Y-142748000D03*
X122936000Y-150876000D03*
X130556000Y-150876000D03*
X137668000Y-150368000D03*
X146050000Y-150368000D03*
X140716000Y-131064000D03*
X134112000Y-124968000D03*
X173228000Y-143256000D03*
X174244000Y-134112000D03*
X174244000Y-126492000D03*
X173736000Y-123952000D03*
X173228000Y-118364000D03*
X146304000Y-115824000D03*
X149352000Y-111760000D03*
X144272000Y-113792000D03*
X143764000Y-106172000D03*
X139700000Y-105664000D03*
X138684000Y-103632000D03*
X173228000Y-111760000D03*
X168656000Y-107696000D03*
X163576000Y-102616000D03*
X158496000Y-99568000D03*
X169672000Y-97536000D03*
X152400000Y-89916000D03*
X148336000Y-86868000D03*
X152400000Y-83312000D03*
X159512000Y-83312000D03*
X163576000Y-86868000D03*
X167132000Y-89408000D03*
X172212000Y-90424000D03*
X172720000Y-104648000D03*
X74676000Y-150368000D03*
X74676000Y-137668000D03*
X119888000Y-114300000D03*
X109728000Y-87884000D03*
X106172000Y-87884000D03*
X102616000Y-86868000D03*
X100076000Y-84328000D03*
X158496000Y-89916000D03*
X142240000Y-135128000D03*
X94488000Y-108204000D03*
X168656000Y-142748000D03*
X155702000Y-127762004D03*
X113792000Y-129032000D03*
X120904000Y-133096000D03*
X68834000Y-91948000D03*
X73914000Y-91440000D03*
X157099000Y-143383000D03*
X154432000Y-139954000D03*
X151130000Y-142621000D03*
X146050000Y-141859000D03*
X145542000Y-129032000D03*
X143764000Y-121412000D03*
X137414000Y-113284000D03*
X130810000Y-113284000D03*
X124968000Y-113411000D03*
X116078000Y-112522000D03*
X106426000Y-112522000D03*
X91059000Y-96266000D03*
X155448000Y-93980000D03*
X164084000Y-94742000D03*
X163322000Y-137922000D03*
X121412000Y-122936000D03*
X100330000Y-125476000D03*
X75692000Y-146812000D03*
X168656000Y-101600000D03*
X164338000Y-134493000D03*
X160147000Y-137795000D03*
X150622000Y-133858000D03*
X109728000Y-112014000D03*
X76454000Y-99314000D03*
X79248000Y-105156000D03*
X166878000Y-125995000D03*
X163449000Y-124587000D03*
X167005000Y-124460000D03*
X161544000Y-132715000D03*
X160147000Y-135128000D03*
X163449000Y-142494000D03*
X163195000Y-136017000D03*
X160147000Y-139954000D03*
X163195000Y-139954000D03*
X160147000Y-142367000D03*
X160147000Y-145288000D03*
X163352480Y-145288000D03*
X151003000Y-145288000D03*
X146050000Y-146939000D03*
X154686000Y-150749000D03*
X166624000Y-147066000D03*
X167767000Y-137922000D03*
X161290000Y-121793000D03*
X144780000Y-90170000D03*
X148336000Y-103632000D03*
X155702000Y-108204000D03*
X150114000Y-95250000D03*
X134366000Y-95377000D03*
X133096000Y-99187000D03*
X128397000Y-100330000D03*
X142240000Y-87503000D03*
X138049000Y-91440000D03*
X140462000Y-95758000D03*
X152908000Y-99568000D03*
X161544000Y-108585000D03*
X152400000Y-114808000D03*
X154559000Y-117856000D03*
X154686000Y-112141000D03*
X149479000Y-105664000D03*
X147320000Y-107188000D03*
X146050000Y-101600000D03*
X143383000Y-103378000D03*
X141605000Y-99822000D03*
X140462000Y-102362000D03*
X136906000Y-102489000D03*
X134366000Y-99949000D03*
X159639000Y-129921000D03*
X160782000Y-126238000D03*
X169545000Y-126873000D03*
X169545000Y-124333000D03*
X169545000Y-121920000D03*
X166624000Y-134620000D03*
X173355000Y-137922000D03*
X149860000Y-132207000D03*
X154178000Y-135890000D03*
X149860000Y-125095000D03*
X64516000Y-94361000D03*
X64516000Y-103124000D03*
X75311000Y-94996000D03*
X65024000Y-89408000D03*
X63373000Y-139319000D03*
X64897000Y-140970000D03*
X66675000Y-142748000D03*
X71247000Y-141605000D03*
X69088000Y-141732000D03*
X73406000Y-138938000D03*
X62992000Y-117348000D03*
X65024000Y-118872000D03*
X67056000Y-117348000D03*
X62992000Y-120904000D03*
X67056000Y-120904000D03*
X65024000Y-122936000D03*
X62992000Y-124460000D03*
X67056000Y-124460000D03*
X65024000Y-126492000D03*
X62992000Y-128016000D03*
X67056000Y-128016000D03*
X65024000Y-129540000D03*
X62992000Y-131064000D03*
X67056000Y-131064000D03*
X68580000Y-129540000D03*
X70104000Y-131064000D03*
X70104000Y-128524000D03*
X65024000Y-133096000D03*
X62992000Y-134620000D03*
X62992000Y-137668000D03*
X68580000Y-133096000D03*
X71628000Y-133096000D03*
X71628000Y-129540000D03*
X73660000Y-131064000D03*
X73660000Y-129032000D03*
X74676000Y-133096000D03*
X75692000Y-128016000D03*
X74676000Y-125476000D03*
X75184000Y-121920000D03*
X77216000Y-119888000D03*
X71628000Y-119380000D03*
X73660000Y-117856000D03*
X74168000Y-115316000D03*
X76708000Y-114808000D03*
X74676000Y-112268000D03*
X65024000Y-115316000D03*
X62992000Y-113284000D03*
X62992000Y-109728000D03*
X62992000Y-106680000D03*
X65024000Y-108204000D03*
X66548000Y-106680000D03*
X69596000Y-106680000D03*
X70612000Y-108204000D03*
X68072000Y-107696000D03*
X74676000Y-109220000D03*
X74168000Y-105156000D03*
X72644000Y-103632000D03*
X67564000Y-103632000D03*
X76708000Y-112268000D03*
X76200000Y-107188000D03*
X79248000Y-107696000D03*
X73152000Y-135128000D03*
X74168000Y-141732000D03*
X63500000Y-143256000D03*
X82296000Y-125476000D03*
X88900000Y-125476000D03*
X94996000Y-124968000D03*
X108204000Y-124968000D03*
X114808000Y-124968000D03*
X120904000Y-125476000D03*
X127000000Y-124968000D03*
X140208000Y-124968000D03*
X88392000Y-139192000D03*
X94996000Y-138684000D03*
X102108000Y-138684000D03*
X107696000Y-138684000D03*
X133604000Y-137668000D03*
X140208000Y-138176000D03*
X133096000Y-130048000D03*
X127000000Y-130048000D03*
X120904000Y-130048000D03*
X108204000Y-130556000D03*
X101600000Y-130556000D03*
X88900000Y-131064000D03*
X82804000Y-132080000D03*
X82296000Y-135636000D03*
X113792000Y-141732000D03*
X127000000Y-142240000D03*
X114300000Y-134620000D03*
X114300000Y-120904000D03*
X92964000Y-88900000D03*
X105664000Y-89408000D03*
X93980000Y-90932000D03*
X155448000Y-103124000D03*
X82677000Y-94615000D03*
X91059000Y-94742000D03*
X93218000Y-94742000D03*
X95250000Y-94742000D03*
X98171000Y-94742000D03*
X100584000Y-94742000D03*
X95250000Y-96266000D03*
X98171000Y-96266000D03*
X106299000Y-97155000D03*
X109601000Y-100584000D03*
X108712000Y-101981000D03*
X111125000Y-107442000D03*
X110236000Y-109093000D03*
X109220000Y-106172000D03*
X116586000Y-101600000D03*
X116586000Y-103251000D03*
X118745000Y-103251000D03*
X127000000Y-93853000D03*
X128651000Y-92202000D03*
X132715000Y-86868000D03*
X131445000Y-91186000D03*
X83820000Y-88138000D03*
X74041000Y-88265000D03*
X73152000Y-84074000D03*
X84455000Y-84201000D03*
X93726000Y-84963000D03*
X89662000Y-88138000D03*
X93980000Y-98679000D03*
X107950000Y-109728000D03*
X100330000Y-113919000D03*
X132334000Y-106680000D03*
X127889000Y-106553000D03*
X125349000Y-106426000D03*
X118364000Y-106426000D03*
X135890000Y-106553000D03*
G04 #@! TO.N,Net-(C301-Pad1)*
X166751000Y-131191000D03*
X169545000Y-128397000D03*
G04 #@! TO.N,+5V*
X156845000Y-116713000D03*
G04 #@! TO.N,Net-(D201-Pad2)*
X113537998Y-93983999D03*
X113284000Y-91948000D03*
G04 #@! TO.N,/ESP8266-E12/GPIO16*
X116840000Y-94345001D03*
G04 #@! TO.N,/OPAMPS and MOSFET/ADC_OUT*
X122047000Y-95070001D03*
X79756000Y-95504000D03*
G04 #@! TO.N,/USB to UART/ESP_RESET*
X125464998Y-98515002D03*
G04 #@! TO.N,/ESP8266-E12/CH_PD*
X130310000Y-91940000D03*
G04 #@! TO.N,/ESP8266-E12/GPIO2*
X125476000Y-95504000D03*
G04 #@! TO.N,/ESP8266-E12/ESP_GPIO0*
X124206002Y-97282000D03*
X131191000Y-97282000D03*
X116586000Y-105156000D03*
X124206002Y-97282000D03*
G04 #@! TO.N,/ESP8266-E12/GPIO4*
X122935984Y-99314000D03*
G04 #@! TO.N,/ESP8266-E12/GPIO5*
X120904000Y-100584000D03*
G04 #@! TO.N,/USB to UART/RTS*
X159512000Y-124079000D03*
X161925000Y-118364000D03*
G04 #@! TO.N,Net-(R202-Pad2)*
X102412800Y-92710000D03*
X110032800Y-95554800D03*
G04 #@! TO.N,Net-(R303-Pad2)*
X161290000Y-129667000D03*
X162052000Y-119507000D03*
G04 #@! TO.N,/ESP8266-E12/ESP_RXD0*
X156845000Y-122809000D03*
X121158000Y-106553000D03*
G04 #@! TD*
D23*
G04 #@! TO.N,+3V3*
X116535200Y-89154000D02*
X116535200Y-91541600D01*
X110109000Y-98171000D02*
X114087003Y-98171000D01*
X114087003Y-98171000D02*
X117565001Y-94693002D01*
X117565001Y-92571401D02*
X116935199Y-91941599D01*
X117565001Y-94693002D02*
X117565001Y-92571401D01*
X116935199Y-91941599D02*
X116535200Y-91541600D01*
X146470001Y-84669999D02*
X147320000Y-83820000D01*
X145923000Y-85217000D02*
X146470001Y-84669999D01*
X124460000Y-83820000D02*
X125857000Y-85217000D01*
X125857000Y-85217000D02*
X145923000Y-85217000D01*
G04 #@! TO.N,Net-(C301-Pad1)*
X166751000Y-131191000D02*
X169545000Y-128397000D01*
D24*
G04 #@! TO.N,+5V*
X149352000Y-109220000D02*
X148336000Y-109220000D01*
X156845000Y-116713000D02*
X149352000Y-109220000D01*
D23*
G04 #@! TO.N,Net-(D201-Pad2)*
X113537998Y-93983999D02*
X113537998Y-92201998D01*
X113537998Y-92201998D02*
X113284000Y-91948000D01*
G04 #@! TO.N,/ESP8266-E12/GPIO16*
X111760000Y-89265001D02*
X116840000Y-94345001D01*
X111760000Y-83820000D02*
X111760000Y-89265001D01*
G04 #@! TO.N,/OPAMPS and MOSFET/ADC_OUT*
X110363000Y-102489000D02*
X106807000Y-98933000D01*
X122047000Y-95070001D02*
X122047000Y-100514002D01*
X120072002Y-102489000D02*
X110363000Y-102489000D01*
X122047000Y-100514002D02*
X120072002Y-102489000D01*
X110363000Y-107907000D02*
X110363000Y-102489000D01*
X111676000Y-109220000D02*
X110363000Y-107907000D01*
X112776000Y-109220000D02*
X111676000Y-109220000D01*
X103378000Y-95504000D02*
X106807000Y-98933000D01*
X79756000Y-95504000D02*
X103378000Y-95504000D01*
G04 #@! TO.N,/USB to UART/ESP_RESET*
X140716000Y-109220000D02*
X130011002Y-98515002D01*
X130011002Y-98515002D02*
X125464998Y-98515002D01*
G04 #@! TO.N,/ESP8266-E12/CH_PD*
X130310000Y-93791002D02*
X130310000Y-91940000D01*
X143256000Y-106737002D02*
X130310000Y-93791002D01*
X143256000Y-109220000D02*
X143256000Y-106737002D01*
G04 #@! TO.N,/ESP8266-E12/GPIO2*
X121920000Y-83820000D02*
X125476000Y-87376000D01*
X125476000Y-87376000D02*
X125476000Y-95504000D01*
G04 #@! TO.N,/ESP8266-E12/ESP_GPIO0*
X119380000Y-83820000D02*
X124206002Y-88646002D01*
X124206002Y-96716315D02*
X124206002Y-97282000D01*
X124206002Y-88646002D02*
X124206002Y-96716315D01*
X131191000Y-97282000D02*
X124206002Y-97282000D01*
X124206002Y-97847685D02*
X124206002Y-97282000D01*
X124206002Y-99116984D02*
X124206002Y-97847685D01*
X118166986Y-105156000D02*
X124206002Y-99116984D01*
X116586000Y-105156000D02*
X118166986Y-105156000D01*
G04 #@! TO.N,/ESP8266-E12/GPIO4*
X116840000Y-83820000D02*
X122935984Y-89915984D01*
X122935984Y-98748315D02*
X122935984Y-99314000D01*
X122935984Y-89915984D02*
X122935984Y-98748315D01*
G04 #@! TO.N,/ESP8266-E12/GPIO5*
X121158000Y-100330000D02*
X120904000Y-100584000D01*
X121158000Y-91440000D02*
X121158000Y-100330000D01*
X114300000Y-84514081D02*
X121158000Y-91372081D01*
X114300000Y-83820000D02*
X114300000Y-84514081D01*
D25*
G04 #@! TO.N,Net-(J501-Pad1)*
X69850000Y-104090000D02*
X72898000Y-107138000D01*
X71120000Y-124460000D02*
X72390000Y-124460000D01*
X69850000Y-101600000D02*
X69850000Y-104090000D01*
X72898000Y-113792000D02*
X69342000Y-117348000D01*
X69342000Y-117348000D02*
X69342000Y-122682000D01*
X72898000Y-107138000D02*
X72898000Y-113792000D01*
X69342000Y-122682000D02*
X71120000Y-124460000D01*
D23*
G04 #@! TO.N,/USB to UART/RTS*
X159512000Y-124079000D02*
X159512000Y-120777000D01*
X159512000Y-120777000D02*
X161925000Y-118364000D01*
D25*
G04 #@! TO.N,Net-(Q501-Pad3)*
X82550000Y-116840000D02*
X85852000Y-116840000D01*
X91948000Y-116840000D02*
X98552000Y-116840000D01*
X85852000Y-116840000D02*
X91948000Y-116840000D01*
X117856000Y-116840000D02*
X123952000Y-116840000D01*
X123952000Y-116840000D02*
X139700000Y-116840000D01*
X77470000Y-116840000D02*
X72390000Y-121920000D01*
X82550000Y-116840000D02*
X77470000Y-116840000D01*
X98552000Y-116840000D02*
X104647998Y-116840000D01*
X104647998Y-116840000D02*
X104648000Y-116840002D01*
X117856000Y-116840000D02*
X104648002Y-116840000D01*
X104648002Y-116840000D02*
X104648000Y-116840002D01*
D23*
G04 #@! TO.N,Net-(R202-Pad2)*
X102412800Y-92710000D02*
X105257600Y-95554800D01*
X105257600Y-95554800D02*
X110032800Y-95554800D01*
G04 #@! TO.N,Net-(R303-Pad2)*
X161290000Y-129667000D02*
X162560000Y-128397000D01*
X162560000Y-128397000D02*
X162560000Y-120015000D01*
X162560000Y-120015000D02*
X162052000Y-119507000D01*
G04 #@! TO.N,/ESP8266-E12/ESP_RXD0*
X121557999Y-106952999D02*
X121158000Y-106553000D01*
X121571001Y-106966001D02*
X121557999Y-106952999D01*
X121571001Y-109594003D02*
X121571001Y-106966001D01*
X123482998Y-111506000D02*
X121571001Y-109594003D01*
X145542000Y-111506000D02*
X123482998Y-111506000D01*
X156845000Y-122809000D02*
X145542000Y-111506000D01*
G04 #@! TD*
D26*
G04 #@! TO.N,GND*
G36*
X175133000Y-152273000D02*
X62103000Y-152273000D01*
X62103000Y-147204410D01*
X64937000Y-147204410D01*
X64937000Y-148451590D01*
X65414276Y-149603835D01*
X66296165Y-150485724D01*
X67448410Y-150963000D01*
X68695590Y-150963000D01*
X69847835Y-150485724D01*
X70729724Y-149603835D01*
X71207000Y-148451590D01*
X71207000Y-147731807D01*
X80761797Y-147731807D01*
X81055508Y-148384776D01*
X81576742Y-148875642D01*
X82138195Y-149108195D01*
X82423000Y-148991432D01*
X82423000Y-147447000D01*
X82677000Y-147447000D01*
X82677000Y-148991432D01*
X82961805Y-149108195D01*
X83523258Y-148875642D01*
X84044492Y-148384776D01*
X84338203Y-147731807D01*
X87111797Y-147731807D01*
X87405508Y-148384776D01*
X87926742Y-148875642D01*
X88488195Y-149108195D01*
X88773000Y-148991432D01*
X88773000Y-147447000D01*
X89027000Y-147447000D01*
X89027000Y-148991432D01*
X89311805Y-149108195D01*
X89873258Y-148875642D01*
X90394492Y-148384776D01*
X90688203Y-147731807D01*
X93461797Y-147731807D01*
X93755508Y-148384776D01*
X94276742Y-148875642D01*
X94838195Y-149108195D01*
X95123000Y-148991432D01*
X95123000Y-147447000D01*
X95377000Y-147447000D01*
X95377000Y-148991432D01*
X95661805Y-149108195D01*
X96223258Y-148875642D01*
X96744492Y-148384776D01*
X97038203Y-147731807D01*
X99811797Y-147731807D01*
X100105508Y-148384776D01*
X100626742Y-148875642D01*
X101188195Y-149108195D01*
X101473000Y-148991432D01*
X101473000Y-147447000D01*
X101727000Y-147447000D01*
X101727000Y-148991432D01*
X102011805Y-149108195D01*
X102573258Y-148875642D01*
X103094492Y-148384776D01*
X103388203Y-147731807D01*
X106161797Y-147731807D01*
X106455508Y-148384776D01*
X106976742Y-148875642D01*
X107538195Y-149108195D01*
X107823000Y-148991432D01*
X107823000Y-147447000D01*
X108077000Y-147447000D01*
X108077000Y-148991432D01*
X108361805Y-149108195D01*
X108923258Y-148875642D01*
X109444492Y-148384776D01*
X109738203Y-147731807D01*
X112511797Y-147731807D01*
X112805508Y-148384776D01*
X113326742Y-148875642D01*
X113888195Y-149108195D01*
X114173000Y-148991432D01*
X114173000Y-147447000D01*
X114427000Y-147447000D01*
X114427000Y-148991432D01*
X114711805Y-149108195D01*
X115273258Y-148875642D01*
X115794492Y-148384776D01*
X116088203Y-147731807D01*
X118861797Y-147731807D01*
X119155508Y-148384776D01*
X119676742Y-148875642D01*
X120238195Y-149108195D01*
X120523000Y-148991432D01*
X120523000Y-147447000D01*
X120777000Y-147447000D01*
X120777000Y-148991432D01*
X121061805Y-149108195D01*
X121623258Y-148875642D01*
X122144492Y-148384776D01*
X122438203Y-147731807D01*
X125211797Y-147731807D01*
X125505508Y-148384776D01*
X126026742Y-148875642D01*
X126588195Y-149108195D01*
X126873000Y-148991432D01*
X126873000Y-147447000D01*
X127127000Y-147447000D01*
X127127000Y-148991432D01*
X127411805Y-149108195D01*
X127973258Y-148875642D01*
X128494492Y-148384776D01*
X128788203Y-147731807D01*
X131561797Y-147731807D01*
X131855508Y-148384776D01*
X132376742Y-148875642D01*
X132938195Y-149108195D01*
X133223000Y-148991432D01*
X133223000Y-147447000D01*
X133477000Y-147447000D01*
X133477000Y-148991432D01*
X133761805Y-149108195D01*
X134323258Y-148875642D01*
X134844492Y-148384776D01*
X135138203Y-147731807D01*
X137911797Y-147731807D01*
X138205508Y-148384776D01*
X138726742Y-148875642D01*
X139288195Y-149108195D01*
X139573000Y-148991432D01*
X139573000Y-147447000D01*
X139827000Y-147447000D01*
X139827000Y-148991432D01*
X140111805Y-149108195D01*
X140673258Y-148875642D01*
X141194492Y-148384776D01*
X141488203Y-147731807D01*
X141395767Y-147505528D01*
X159118300Y-147505528D01*
X159118300Y-147916792D01*
X159275684Y-148296749D01*
X159566491Y-148587556D01*
X159946448Y-148744940D01*
X160357712Y-148744940D01*
X160737669Y-148587556D01*
X161028476Y-148296749D01*
X161185860Y-147916792D01*
X161185860Y-147508068D01*
X162915600Y-147508068D01*
X162915600Y-147919332D01*
X163072984Y-148299289D01*
X163363791Y-148590096D01*
X163743748Y-148747480D01*
X164155012Y-148747480D01*
X164534969Y-148590096D01*
X164825776Y-148299289D01*
X164983160Y-147919332D01*
X164983160Y-147508068D01*
X164825776Y-147128111D01*
X164534969Y-146837304D01*
X164194823Y-146696410D01*
X167710000Y-146696410D01*
X167710000Y-147943590D01*
X168187276Y-149095835D01*
X169069165Y-149977724D01*
X170221410Y-150455000D01*
X171468590Y-150455000D01*
X172620835Y-149977724D01*
X173502724Y-149095835D01*
X173980000Y-147943590D01*
X173980000Y-146696410D01*
X173502724Y-145544165D01*
X172620835Y-144662276D01*
X171468590Y-144185000D01*
X170221410Y-144185000D01*
X169069165Y-144662276D01*
X168187276Y-145544165D01*
X167710000Y-146696410D01*
X164194823Y-146696410D01*
X164155012Y-146679920D01*
X163743748Y-146679920D01*
X163363791Y-146837304D01*
X163072984Y-147128111D01*
X162915600Y-147508068D01*
X161185860Y-147508068D01*
X161185860Y-147505528D01*
X161028476Y-147125571D01*
X160737669Y-146834764D01*
X160357712Y-146677380D01*
X159946448Y-146677380D01*
X159566491Y-146834764D01*
X159275684Y-147125571D01*
X159118300Y-147505528D01*
X141395767Y-147505528D01*
X141371858Y-147447000D01*
X139827000Y-147447000D01*
X139573000Y-147447000D01*
X138028142Y-147447000D01*
X137911797Y-147731807D01*
X135138203Y-147731807D01*
X135021858Y-147447000D01*
X133477000Y-147447000D01*
X133223000Y-147447000D01*
X131678142Y-147447000D01*
X131561797Y-147731807D01*
X128788203Y-147731807D01*
X128671858Y-147447000D01*
X127127000Y-147447000D01*
X126873000Y-147447000D01*
X125328142Y-147447000D01*
X125211797Y-147731807D01*
X122438203Y-147731807D01*
X122321858Y-147447000D01*
X120777000Y-147447000D01*
X120523000Y-147447000D01*
X118978142Y-147447000D01*
X118861797Y-147731807D01*
X116088203Y-147731807D01*
X115971858Y-147447000D01*
X114427000Y-147447000D01*
X114173000Y-147447000D01*
X112628142Y-147447000D01*
X112511797Y-147731807D01*
X109738203Y-147731807D01*
X109621858Y-147447000D01*
X108077000Y-147447000D01*
X107823000Y-147447000D01*
X106278142Y-147447000D01*
X106161797Y-147731807D01*
X103388203Y-147731807D01*
X103271858Y-147447000D01*
X101727000Y-147447000D01*
X101473000Y-147447000D01*
X99928142Y-147447000D01*
X99811797Y-147731807D01*
X97038203Y-147731807D01*
X96921858Y-147447000D01*
X95377000Y-147447000D01*
X95123000Y-147447000D01*
X93578142Y-147447000D01*
X93461797Y-147731807D01*
X90688203Y-147731807D01*
X90571858Y-147447000D01*
X89027000Y-147447000D01*
X88773000Y-147447000D01*
X87228142Y-147447000D01*
X87111797Y-147731807D01*
X84338203Y-147731807D01*
X84221858Y-147447000D01*
X82677000Y-147447000D01*
X82423000Y-147447000D01*
X80878142Y-147447000D01*
X80761797Y-147731807D01*
X71207000Y-147731807D01*
X71207000Y-147204410D01*
X71084303Y-146908193D01*
X80761797Y-146908193D01*
X80878142Y-147193000D01*
X82423000Y-147193000D01*
X82423000Y-145648568D01*
X82677000Y-145648568D01*
X82677000Y-147193000D01*
X84221858Y-147193000D01*
X84338203Y-146908193D01*
X87111797Y-146908193D01*
X87228142Y-147193000D01*
X88773000Y-147193000D01*
X88773000Y-145648568D01*
X89027000Y-145648568D01*
X89027000Y-147193000D01*
X90571858Y-147193000D01*
X90688203Y-146908193D01*
X93461797Y-146908193D01*
X93578142Y-147193000D01*
X95123000Y-147193000D01*
X95123000Y-145648568D01*
X95377000Y-145648568D01*
X95377000Y-147193000D01*
X96921858Y-147193000D01*
X97038203Y-146908193D01*
X99811797Y-146908193D01*
X99928142Y-147193000D01*
X101473000Y-147193000D01*
X101473000Y-145648568D01*
X101727000Y-145648568D01*
X101727000Y-147193000D01*
X103271858Y-147193000D01*
X103388203Y-146908193D01*
X106161797Y-146908193D01*
X106278142Y-147193000D01*
X107823000Y-147193000D01*
X107823000Y-145648568D01*
X108077000Y-145648568D01*
X108077000Y-147193000D01*
X109621858Y-147193000D01*
X109738203Y-146908193D01*
X112511797Y-146908193D01*
X112628142Y-147193000D01*
X114173000Y-147193000D01*
X114173000Y-145648568D01*
X114427000Y-145648568D01*
X114427000Y-147193000D01*
X115971858Y-147193000D01*
X116088203Y-146908193D01*
X118861797Y-146908193D01*
X118978142Y-147193000D01*
X120523000Y-147193000D01*
X120523000Y-145648568D01*
X120777000Y-145648568D01*
X120777000Y-147193000D01*
X122321858Y-147193000D01*
X122438203Y-146908193D01*
X125211797Y-146908193D01*
X125328142Y-147193000D01*
X126873000Y-147193000D01*
X126873000Y-145648568D01*
X127127000Y-145648568D01*
X127127000Y-147193000D01*
X128671858Y-147193000D01*
X128788203Y-146908193D01*
X131561797Y-146908193D01*
X131678142Y-147193000D01*
X133223000Y-147193000D01*
X133223000Y-145648568D01*
X133477000Y-145648568D01*
X133477000Y-147193000D01*
X135021858Y-147193000D01*
X135138203Y-146908193D01*
X137911797Y-146908193D01*
X138028142Y-147193000D01*
X139573000Y-147193000D01*
X139573000Y-145648568D01*
X139827000Y-145648568D01*
X139827000Y-147193000D01*
X141371858Y-147193000D01*
X141488203Y-146908193D01*
X141194492Y-146255224D01*
X140673258Y-145764358D01*
X140111805Y-145531805D01*
X139827000Y-145648568D01*
X139573000Y-145648568D01*
X139288195Y-145531805D01*
X138726742Y-145764358D01*
X138205508Y-146255224D01*
X137911797Y-146908193D01*
X135138203Y-146908193D01*
X134844492Y-146255224D01*
X134323258Y-145764358D01*
X133761805Y-145531805D01*
X133477000Y-145648568D01*
X133223000Y-145648568D01*
X132938195Y-145531805D01*
X132376742Y-145764358D01*
X131855508Y-146255224D01*
X131561797Y-146908193D01*
X128788203Y-146908193D01*
X128494492Y-146255224D01*
X127973258Y-145764358D01*
X127411805Y-145531805D01*
X127127000Y-145648568D01*
X126873000Y-145648568D01*
X126588195Y-145531805D01*
X126026742Y-145764358D01*
X125505508Y-146255224D01*
X125211797Y-146908193D01*
X122438203Y-146908193D01*
X122144492Y-146255224D01*
X121623258Y-145764358D01*
X121061805Y-145531805D01*
X120777000Y-145648568D01*
X120523000Y-145648568D01*
X120238195Y-145531805D01*
X119676742Y-145764358D01*
X119155508Y-146255224D01*
X118861797Y-146908193D01*
X116088203Y-146908193D01*
X115794492Y-146255224D01*
X115273258Y-145764358D01*
X114711805Y-145531805D01*
X114427000Y-145648568D01*
X114173000Y-145648568D01*
X113888195Y-145531805D01*
X113326742Y-145764358D01*
X112805508Y-146255224D01*
X112511797Y-146908193D01*
X109738203Y-146908193D01*
X109444492Y-146255224D01*
X108923258Y-145764358D01*
X108361805Y-145531805D01*
X108077000Y-145648568D01*
X107823000Y-145648568D01*
X107538195Y-145531805D01*
X106976742Y-145764358D01*
X106455508Y-146255224D01*
X106161797Y-146908193D01*
X103388203Y-146908193D01*
X103094492Y-146255224D01*
X102573258Y-145764358D01*
X102011805Y-145531805D01*
X101727000Y-145648568D01*
X101473000Y-145648568D01*
X101188195Y-145531805D01*
X100626742Y-145764358D01*
X100105508Y-146255224D01*
X99811797Y-146908193D01*
X97038203Y-146908193D01*
X96744492Y-146255224D01*
X96223258Y-145764358D01*
X95661805Y-145531805D01*
X95377000Y-145648568D01*
X95123000Y-145648568D01*
X94838195Y-145531805D01*
X94276742Y-145764358D01*
X93755508Y-146255224D01*
X93461797Y-146908193D01*
X90688203Y-146908193D01*
X90394492Y-146255224D01*
X89873258Y-145764358D01*
X89311805Y-145531805D01*
X89027000Y-145648568D01*
X88773000Y-145648568D01*
X88488195Y-145531805D01*
X87926742Y-145764358D01*
X87405508Y-146255224D01*
X87111797Y-146908193D01*
X84338203Y-146908193D01*
X84044492Y-146255224D01*
X83523258Y-145764358D01*
X82961805Y-145531805D01*
X82677000Y-145648568D01*
X82423000Y-145648568D01*
X82138195Y-145531805D01*
X81576742Y-145764358D01*
X81055508Y-146255224D01*
X80761797Y-146908193D01*
X71084303Y-146908193D01*
X70729724Y-146052165D01*
X69847835Y-145170276D01*
X68695590Y-144693000D01*
X67448410Y-144693000D01*
X66296165Y-145170276D01*
X65414276Y-146052165D01*
X64937000Y-147204410D01*
X62103000Y-147204410D01*
X62103000Y-136437005D01*
X64945260Y-136437005D01*
X64945260Y-137882995D01*
X65498616Y-139218915D01*
X66521085Y-140241384D01*
X67857005Y-140794740D01*
X69302995Y-140794740D01*
X70638915Y-140241384D01*
X71661384Y-139218915D01*
X72214740Y-137882995D01*
X72214740Y-136437005D01*
X71661384Y-135101085D01*
X70638915Y-134078616D01*
X69302995Y-133525260D01*
X67857005Y-133525260D01*
X66521085Y-134078616D01*
X65498616Y-135101085D01*
X64945260Y-136437005D01*
X62103000Y-136437005D01*
X62103000Y-130985126D01*
X165716000Y-130985126D01*
X165716000Y-131396874D01*
X165873569Y-131777280D01*
X166164720Y-132068431D01*
X166545126Y-132226000D01*
X166956874Y-132226000D01*
X167337280Y-132068431D01*
X167628431Y-131777280D01*
X167786000Y-131396874D01*
X167786000Y-131230801D01*
X169584802Y-129432000D01*
X169750874Y-129432000D01*
X170131280Y-129274431D01*
X170422431Y-128983280D01*
X170580000Y-128602874D01*
X170580000Y-128191126D01*
X170422431Y-127810720D01*
X170131280Y-127519569D01*
X169750874Y-127362000D01*
X169339126Y-127362000D01*
X168958720Y-127519569D01*
X168667569Y-127810720D01*
X168510000Y-128191126D01*
X168510000Y-128357198D01*
X166711199Y-130156000D01*
X166545126Y-130156000D01*
X166164720Y-130313569D01*
X165873569Y-130604720D01*
X165716000Y-130985126D01*
X62103000Y-130985126D01*
X62103000Y-111037005D01*
X64945260Y-111037005D01*
X64945260Y-112482995D01*
X65498616Y-113818915D01*
X66521085Y-114841384D01*
X67857005Y-115394740D01*
X69302995Y-115394740D01*
X69360320Y-115370995D01*
X68459112Y-116272203D01*
X68343471Y-116349472D01*
X68266203Y-116465112D01*
X68037359Y-116807601D01*
X67929867Y-117348000D01*
X67957000Y-117484407D01*
X67957001Y-122545588D01*
X67929867Y-122682000D01*
X68037359Y-123222399D01*
X68155580Y-123399329D01*
X68343472Y-123680529D01*
X68459112Y-123757797D01*
X70044202Y-125342888D01*
X70121471Y-125458529D01*
X70237111Y-125535797D01*
X70579600Y-125764641D01*
X70929319Y-125834204D01*
X70580792Y-126355812D01*
X70452655Y-127000000D01*
X70580792Y-127644188D01*
X70945695Y-128190305D01*
X71491812Y-128555208D01*
X71973391Y-128651000D01*
X72806609Y-128651000D01*
X73288188Y-128555208D01*
X73834305Y-128190305D01*
X74199208Y-127644188D01*
X74327345Y-127000000D01*
X74199208Y-126355812D01*
X73834305Y-125809695D01*
X73715033Y-125730000D01*
X73834305Y-125650305D01*
X74199208Y-125104188D01*
X74327345Y-124460000D01*
X74199208Y-123815812D01*
X73834305Y-123269695D01*
X73715033Y-123190000D01*
X73834305Y-123110305D01*
X74199208Y-122564188D01*
X74233856Y-122390000D01*
X148412560Y-122390000D01*
X148412560Y-123990000D01*
X148461843Y-124237765D01*
X148602191Y-124447809D01*
X148812235Y-124588157D01*
X149060000Y-124637440D01*
X150660000Y-124637440D01*
X150907765Y-124588157D01*
X151117809Y-124447809D01*
X151258157Y-124237765D01*
X151307440Y-123990000D01*
X151307440Y-123873126D01*
X158477000Y-123873126D01*
X158477000Y-124284874D01*
X158634569Y-124665280D01*
X158925720Y-124956431D01*
X159306126Y-125114000D01*
X159717874Y-125114000D01*
X160098280Y-124956431D01*
X160389431Y-124665280D01*
X160547000Y-124284874D01*
X160547000Y-123873126D01*
X160389431Y-123492720D01*
X160272000Y-123375289D01*
X160272000Y-121091801D01*
X161222545Y-120141256D01*
X161465720Y-120384431D01*
X161800001Y-120522894D01*
X161800000Y-128082198D01*
X161250199Y-128632000D01*
X161084126Y-128632000D01*
X160703720Y-128789569D01*
X160412569Y-129080720D01*
X160255000Y-129461126D01*
X160255000Y-129872874D01*
X160412569Y-130253280D01*
X160703720Y-130544431D01*
X161084126Y-130702000D01*
X161495874Y-130702000D01*
X161876280Y-130544431D01*
X162167431Y-130253280D01*
X162325000Y-129872874D01*
X162325000Y-129706801D01*
X163044473Y-128987329D01*
X163107929Y-128944929D01*
X163275904Y-128693537D01*
X163320000Y-128471852D01*
X163320000Y-128471848D01*
X163334888Y-128397001D01*
X163320000Y-128322154D01*
X163320000Y-120089846D01*
X163334888Y-120014999D01*
X163320000Y-119940152D01*
X163320000Y-119940148D01*
X163275904Y-119718463D01*
X163234102Y-119655902D01*
X163150329Y-119530526D01*
X163150327Y-119530524D01*
X163107929Y-119467071D01*
X163087000Y-119453087D01*
X163087000Y-119301126D01*
X162929431Y-118920720D01*
X162848286Y-118839575D01*
X162960000Y-118569874D01*
X162960000Y-118158126D01*
X162802431Y-117777720D01*
X162511280Y-117486569D01*
X162130874Y-117329000D01*
X161719126Y-117329000D01*
X161338720Y-117486569D01*
X161047569Y-117777720D01*
X160890000Y-118158126D01*
X160890000Y-118324197D01*
X159027528Y-120186671D01*
X158964072Y-120229071D01*
X158921672Y-120292527D01*
X158921671Y-120292528D01*
X158800935Y-120473223D01*
X158796097Y-120480463D01*
X158783857Y-120542000D01*
X158737112Y-120777000D01*
X158752001Y-120851852D01*
X158752000Y-123375289D01*
X158634569Y-123492720D01*
X158477000Y-123873126D01*
X151307440Y-123873126D01*
X151307440Y-122390000D01*
X151258157Y-122142235D01*
X151117809Y-121932191D01*
X150907765Y-121791843D01*
X150673813Y-121745307D01*
X150688139Y-121697745D01*
X149860000Y-120869605D01*
X149031861Y-121697745D01*
X149046187Y-121745307D01*
X148812235Y-121791843D01*
X148602191Y-121932191D01*
X148461843Y-122142235D01*
X148412560Y-122390000D01*
X74233856Y-122390000D01*
X74322046Y-121946639D01*
X75795462Y-120473223D01*
X148413035Y-120473223D01*
X148440222Y-121043454D01*
X148606136Y-121444005D01*
X148852255Y-121518139D01*
X149680395Y-120690000D01*
X150039605Y-120690000D01*
X150867745Y-121518139D01*
X151113864Y-121444005D01*
X151306965Y-120906777D01*
X151279778Y-120336546D01*
X151113864Y-119935995D01*
X150867745Y-119861861D01*
X150039605Y-120690000D01*
X149680395Y-120690000D01*
X148852255Y-119861861D01*
X148606136Y-119935995D01*
X148413035Y-120473223D01*
X75795462Y-120473223D01*
X76586430Y-119682255D01*
X149031861Y-119682255D01*
X149860000Y-120510395D01*
X150688139Y-119682255D01*
X150614005Y-119436136D01*
X150076777Y-119243035D01*
X149506546Y-119270222D01*
X149105995Y-119436136D01*
X149031861Y-119682255D01*
X76586430Y-119682255D01*
X78043686Y-118225000D01*
X81339918Y-118225000D01*
X81510556Y-118395638D01*
X82184996Y-118675000D01*
X82915004Y-118675000D01*
X83589444Y-118395638D01*
X83760082Y-118225000D01*
X87689918Y-118225000D01*
X87860556Y-118395638D01*
X88534996Y-118675000D01*
X89265004Y-118675000D01*
X89939444Y-118395638D01*
X90110082Y-118225000D01*
X94039918Y-118225000D01*
X94210556Y-118395638D01*
X94884996Y-118675000D01*
X95615004Y-118675000D01*
X96289444Y-118395638D01*
X96460082Y-118225000D01*
X100389918Y-118225000D01*
X100560556Y-118395638D01*
X101234996Y-118675000D01*
X101965004Y-118675000D01*
X102639444Y-118395638D01*
X102810082Y-118225000D01*
X104511583Y-118225000D01*
X104648000Y-118252135D01*
X104784417Y-118225000D01*
X106739918Y-118225000D01*
X106910556Y-118395638D01*
X107584996Y-118675000D01*
X108315004Y-118675000D01*
X108989444Y-118395638D01*
X109160082Y-118225000D01*
X113089918Y-118225000D01*
X113260556Y-118395638D01*
X113934996Y-118675000D01*
X114665004Y-118675000D01*
X115339444Y-118395638D01*
X115510082Y-118225000D01*
X119439918Y-118225000D01*
X119610556Y-118395638D01*
X120284996Y-118675000D01*
X121015004Y-118675000D01*
X121689444Y-118395638D01*
X121860082Y-118225000D01*
X125789918Y-118225000D01*
X125960556Y-118395638D01*
X126634996Y-118675000D01*
X127365004Y-118675000D01*
X128039444Y-118395638D01*
X128210082Y-118225000D01*
X132139918Y-118225000D01*
X132310556Y-118395638D01*
X132984996Y-118675000D01*
X133715004Y-118675000D01*
X134389444Y-118395638D01*
X134560082Y-118225000D01*
X138489918Y-118225000D01*
X138660556Y-118395638D01*
X139334996Y-118675000D01*
X140065004Y-118675000D01*
X140739444Y-118395638D01*
X141255638Y-117879444D01*
X141535000Y-117205004D01*
X141535000Y-116474996D01*
X141255638Y-115800556D01*
X140739444Y-115284362D01*
X140065004Y-115005000D01*
X139334996Y-115005000D01*
X138660556Y-115284362D01*
X138489918Y-115455000D01*
X134560082Y-115455000D01*
X134389444Y-115284362D01*
X133715004Y-115005000D01*
X132984996Y-115005000D01*
X132310556Y-115284362D01*
X132139918Y-115455000D01*
X128210082Y-115455000D01*
X128039444Y-115284362D01*
X127365004Y-115005000D01*
X126634996Y-115005000D01*
X125960556Y-115284362D01*
X125789918Y-115455000D01*
X121860082Y-115455000D01*
X121689444Y-115284362D01*
X121015004Y-115005000D01*
X120284996Y-115005000D01*
X119610556Y-115284362D01*
X119439918Y-115455000D01*
X115510082Y-115455000D01*
X115339444Y-115284362D01*
X114665004Y-115005000D01*
X113934996Y-115005000D01*
X113260556Y-115284362D01*
X113089918Y-115455000D01*
X109160082Y-115455000D01*
X108989444Y-115284362D01*
X108315004Y-115005000D01*
X107584996Y-115005000D01*
X106910556Y-115284362D01*
X106739918Y-115455000D01*
X104784409Y-115455000D01*
X104648002Y-115427867D01*
X104647998Y-115427867D01*
X104511591Y-115455000D01*
X102810082Y-115455000D01*
X102639444Y-115284362D01*
X101965004Y-115005000D01*
X101234996Y-115005000D01*
X100560556Y-115284362D01*
X100389918Y-115455000D01*
X96460082Y-115455000D01*
X96289444Y-115284362D01*
X95615004Y-115005000D01*
X94884996Y-115005000D01*
X94210556Y-115284362D01*
X94039918Y-115455000D01*
X90110082Y-115455000D01*
X89939444Y-115284362D01*
X89265004Y-115005000D01*
X88534996Y-115005000D01*
X87860556Y-115284362D01*
X87689918Y-115455000D01*
X83760082Y-115455000D01*
X83589444Y-115284362D01*
X82915004Y-115005000D01*
X82184996Y-115005000D01*
X81510556Y-115284362D01*
X81339918Y-115455000D01*
X77606407Y-115455000D01*
X77470000Y-115427867D01*
X77333593Y-115455000D01*
X76929600Y-115535359D01*
X76471471Y-115841471D01*
X76394202Y-115957112D01*
X72082315Y-120269000D01*
X71973391Y-120269000D01*
X71491812Y-120364792D01*
X70945695Y-120729695D01*
X70727000Y-121056996D01*
X70727000Y-117921685D01*
X73780885Y-114867800D01*
X73896529Y-114790529D01*
X74202641Y-114332400D01*
X74283000Y-113928407D01*
X74283000Y-113928403D01*
X74310132Y-113792001D01*
X74283000Y-113655599D01*
X74283000Y-107274407D01*
X74310133Y-107138000D01*
X74202641Y-106597600D01*
X73973797Y-106255111D01*
X73973795Y-106255109D01*
X73896528Y-106139471D01*
X73780890Y-106062204D01*
X71235000Y-103516315D01*
X71235000Y-103237440D01*
X71830000Y-103237440D01*
X72077765Y-103188157D01*
X72287809Y-103047809D01*
X72428157Y-102837765D01*
X72477440Y-102590000D01*
X72477440Y-100610000D01*
X72428157Y-100362235D01*
X72287809Y-100152191D01*
X72077765Y-100011843D01*
X71830000Y-99962560D01*
X67870000Y-99962560D01*
X67622235Y-100011843D01*
X67412191Y-100152191D01*
X67271843Y-100362235D01*
X67222560Y-100610000D01*
X67222560Y-102590000D01*
X67271843Y-102837765D01*
X67412191Y-103047809D01*
X67622235Y-103188157D01*
X67870000Y-103237440D01*
X68465001Y-103237440D01*
X68465001Y-103953589D01*
X68437867Y-104090000D01*
X68545359Y-104630399D01*
X68545360Y-104630400D01*
X68851472Y-105088529D01*
X68967112Y-105165797D01*
X71513000Y-107711686D01*
X71513000Y-109552701D01*
X70638915Y-108678616D01*
X69302995Y-108125260D01*
X67857005Y-108125260D01*
X66521085Y-108678616D01*
X65498616Y-109701085D01*
X64945260Y-111037005D01*
X62103000Y-111037005D01*
X62103000Y-98727126D01*
X81896000Y-98727126D01*
X81896000Y-99138874D01*
X82053569Y-99519280D01*
X82344720Y-99810431D01*
X82725126Y-99968000D01*
X83136874Y-99968000D01*
X83517280Y-99810431D01*
X83808431Y-99519280D01*
X83966000Y-99138874D01*
X83966000Y-98727126D01*
X83808431Y-98346720D01*
X83517280Y-98055569D01*
X83136874Y-97898000D01*
X82725126Y-97898000D01*
X82344720Y-98055569D01*
X82053569Y-98346720D01*
X81896000Y-98727126D01*
X62103000Y-98727126D01*
X62103000Y-96978865D01*
X67279782Y-96978865D01*
X67310095Y-97104528D01*
X67621149Y-97659246D01*
X68120807Y-98052703D01*
X68733000Y-98225000D01*
X69723000Y-98225000D01*
X69723000Y-96727000D01*
X69977000Y-96727000D01*
X69977000Y-98225000D01*
X70967000Y-98225000D01*
X71579193Y-98052703D01*
X72078851Y-97659246D01*
X72389905Y-97104528D01*
X72420218Y-96978865D01*
X72300740Y-96727000D01*
X69977000Y-96727000D01*
X69723000Y-96727000D01*
X67399260Y-96727000D01*
X67279782Y-96978865D01*
X62103000Y-96978865D01*
X62103000Y-96221135D01*
X67279782Y-96221135D01*
X67399260Y-96473000D01*
X69723000Y-96473000D01*
X69723000Y-94975000D01*
X69977000Y-94975000D01*
X69977000Y-96473000D01*
X72300740Y-96473000D01*
X72420218Y-96221135D01*
X72389905Y-96095472D01*
X72078851Y-95540754D01*
X71770734Y-95298126D01*
X78721000Y-95298126D01*
X78721000Y-95709874D01*
X78878569Y-96090280D01*
X79169720Y-96381431D01*
X79550126Y-96539000D01*
X79961874Y-96539000D01*
X80342280Y-96381431D01*
X80459711Y-96264000D01*
X103063199Y-96264000D01*
X104648743Y-97849546D01*
X104405569Y-98092720D01*
X104248000Y-98473126D01*
X104248000Y-98884874D01*
X104405569Y-99265280D01*
X104696720Y-99556431D01*
X105077126Y-99714000D01*
X105488874Y-99714000D01*
X105869280Y-99556431D01*
X105925028Y-99500683D01*
X105772000Y-99870126D01*
X105772000Y-100281874D01*
X105929569Y-100662280D01*
X106220720Y-100953431D01*
X106601126Y-101111000D01*
X107012874Y-101111000D01*
X107393280Y-100953431D01*
X107572955Y-100773756D01*
X108966743Y-102167546D01*
X108723569Y-102410720D01*
X108566000Y-102791126D01*
X108566000Y-103202874D01*
X108723569Y-103583280D01*
X109014720Y-103874431D01*
X109395126Y-104032000D01*
X109603001Y-104032000D01*
X109603000Y-107832153D01*
X109588112Y-107907000D01*
X109603000Y-107981847D01*
X109603000Y-107981851D01*
X109647096Y-108203536D01*
X109815071Y-108454929D01*
X109878530Y-108497331D01*
X111085673Y-109704476D01*
X111128071Y-109767929D01*
X111191524Y-109810327D01*
X111191526Y-109810329D01*
X111278560Y-109868483D01*
X111278560Y-110070000D01*
X111327843Y-110317765D01*
X111468191Y-110527809D01*
X111678235Y-110668157D01*
X111926000Y-110717440D01*
X113626000Y-110717440D01*
X113873765Y-110668157D01*
X114083809Y-110527809D01*
X114224157Y-110317765D01*
X114244739Y-110214292D01*
X114549076Y-110491645D01*
X114959110Y-110661476D01*
X115189000Y-110540155D01*
X115189000Y-109347000D01*
X115169000Y-109347000D01*
X115169000Y-109093000D01*
X115189000Y-109093000D01*
X115189000Y-107899845D01*
X115443000Y-107899845D01*
X115443000Y-109093000D01*
X115463000Y-109093000D01*
X115463000Y-109347000D01*
X115443000Y-109347000D01*
X115443000Y-110540155D01*
X115672890Y-110661476D01*
X116082924Y-110491645D01*
X116511183Y-110101358D01*
X116572157Y-109971522D01*
X116785375Y-110290625D01*
X117276582Y-110618839D01*
X117709744Y-110705000D01*
X118002256Y-110705000D01*
X118435418Y-110618839D01*
X118926625Y-110290625D01*
X119126000Y-109992239D01*
X119325375Y-110290625D01*
X119816582Y-110618839D01*
X120249744Y-110705000D01*
X120542256Y-110705000D01*
X120975418Y-110618839D01*
X121302492Y-110400295D01*
X122892668Y-111990472D01*
X122935069Y-112053929D01*
X123186461Y-112221904D01*
X123408146Y-112266000D01*
X123408150Y-112266000D01*
X123482997Y-112280888D01*
X123557844Y-112266000D01*
X145227199Y-112266000D01*
X155810000Y-122848802D01*
X155810000Y-123014874D01*
X155967569Y-123395280D01*
X156258720Y-123686431D01*
X156639126Y-123844000D01*
X157050874Y-123844000D01*
X157431280Y-123686431D01*
X157722431Y-123395280D01*
X157880000Y-123014874D01*
X157880000Y-122603126D01*
X157722431Y-122222720D01*
X157431280Y-121931569D01*
X157050874Y-121774000D01*
X156884802Y-121774000D01*
X146132331Y-111021530D01*
X146089929Y-110958071D01*
X145838537Y-110790096D01*
X145616852Y-110746000D01*
X145616847Y-110746000D01*
X145542000Y-110731112D01*
X145467153Y-110746000D01*
X123797800Y-110746000D01*
X123608466Y-110556666D01*
X124006625Y-110290625D01*
X124206000Y-109992239D01*
X124405375Y-110290625D01*
X124896582Y-110618839D01*
X125329744Y-110705000D01*
X125622256Y-110705000D01*
X126055418Y-110618839D01*
X126546625Y-110290625D01*
X126746000Y-109992239D01*
X126945375Y-110290625D01*
X127436582Y-110618839D01*
X127869744Y-110705000D01*
X128162256Y-110705000D01*
X128595418Y-110618839D01*
X129086625Y-110290625D01*
X129286000Y-109992239D01*
X129485375Y-110290625D01*
X129976582Y-110618839D01*
X130409744Y-110705000D01*
X130702256Y-110705000D01*
X131135418Y-110618839D01*
X131626625Y-110290625D01*
X131826000Y-109992239D01*
X132025375Y-110290625D01*
X132516582Y-110618839D01*
X132949744Y-110705000D01*
X133242256Y-110705000D01*
X133675418Y-110618839D01*
X134166625Y-110290625D01*
X134379843Y-109971522D01*
X134440817Y-110101358D01*
X134869076Y-110491645D01*
X135279110Y-110661476D01*
X135509000Y-110540155D01*
X135509000Y-109347000D01*
X135489000Y-109347000D01*
X135489000Y-109093000D01*
X135509000Y-109093000D01*
X135509000Y-107899845D01*
X135279110Y-107778524D01*
X134869076Y-107948355D01*
X134440817Y-108338642D01*
X134379843Y-108468478D01*
X134166625Y-108149375D01*
X133675418Y-107821161D01*
X133242256Y-107735000D01*
X132949744Y-107735000D01*
X132516582Y-107821161D01*
X132025375Y-108149375D01*
X131826000Y-108447761D01*
X131626625Y-108149375D01*
X131135418Y-107821161D01*
X130702256Y-107735000D01*
X130409744Y-107735000D01*
X129976582Y-107821161D01*
X129485375Y-108149375D01*
X129286000Y-108447761D01*
X129086625Y-108149375D01*
X128595418Y-107821161D01*
X128162256Y-107735000D01*
X127869744Y-107735000D01*
X127436582Y-107821161D01*
X126945375Y-108149375D01*
X126746000Y-108447761D01*
X126546625Y-108149375D01*
X126055418Y-107821161D01*
X125622256Y-107735000D01*
X125329744Y-107735000D01*
X124896582Y-107821161D01*
X124405375Y-108149375D01*
X124206000Y-108447761D01*
X124006625Y-108149375D01*
X123515418Y-107821161D01*
X123082256Y-107735000D01*
X122789744Y-107735000D01*
X122356582Y-107821161D01*
X122331001Y-107838254D01*
X122331001Y-107040849D01*
X122345889Y-106966001D01*
X122331001Y-106891153D01*
X122331001Y-106891149D01*
X122286905Y-106669464D01*
X122193000Y-106528925D01*
X122193000Y-106347126D01*
X122035431Y-105966720D01*
X121744280Y-105675569D01*
X121363874Y-105518000D01*
X120952126Y-105518000D01*
X120571720Y-105675569D01*
X120280569Y-105966720D01*
X120123000Y-106347126D01*
X120123000Y-106758874D01*
X120280569Y-107139280D01*
X120571720Y-107430431D01*
X120811002Y-107529545D01*
X120811002Y-107788457D01*
X120542256Y-107735000D01*
X120249744Y-107735000D01*
X119816582Y-107821161D01*
X119325375Y-108149375D01*
X119126000Y-108447761D01*
X118926625Y-108149375D01*
X118435418Y-107821161D01*
X118002256Y-107735000D01*
X117709744Y-107735000D01*
X117276582Y-107821161D01*
X116785375Y-108149375D01*
X116572157Y-108468478D01*
X116511183Y-108338642D01*
X116082924Y-107948355D01*
X115672890Y-107778524D01*
X115443000Y-107899845D01*
X115189000Y-107899845D01*
X114959110Y-107778524D01*
X114549076Y-107948355D01*
X114244739Y-108225708D01*
X114224157Y-108122235D01*
X114083809Y-107912191D01*
X113873765Y-107771843D01*
X113626000Y-107722560D01*
X111926000Y-107722560D01*
X111678235Y-107771843D01*
X111468191Y-107912191D01*
X111458098Y-107927296D01*
X111123000Y-107592199D01*
X111123000Y-103249000D01*
X118999185Y-103249000D01*
X117852185Y-104396000D01*
X117289711Y-104396000D01*
X117172280Y-104278569D01*
X116791874Y-104121000D01*
X116380126Y-104121000D01*
X115999720Y-104278569D01*
X115708569Y-104569720D01*
X115551000Y-104950126D01*
X115551000Y-105361874D01*
X115708569Y-105742280D01*
X115999720Y-106033431D01*
X116380126Y-106191000D01*
X116791874Y-106191000D01*
X117172280Y-106033431D01*
X117289711Y-105916000D01*
X118092139Y-105916000D01*
X118166986Y-105930888D01*
X118241833Y-105916000D01*
X118241838Y-105916000D01*
X118463523Y-105871904D01*
X118714915Y-105703929D01*
X118757317Y-105640470D01*
X124690478Y-99707311D01*
X124753931Y-99664913D01*
X124796329Y-99601460D01*
X124796331Y-99601458D01*
X124921905Y-99413522D01*
X124921906Y-99413521D01*
X124922494Y-99410566D01*
X125259124Y-99550002D01*
X125670872Y-99550002D01*
X126051278Y-99392433D01*
X126168709Y-99275002D01*
X129696201Y-99275002D01*
X129921744Y-99500545D01*
X129678569Y-99743720D01*
X129521000Y-100124126D01*
X129521000Y-100535874D01*
X129678569Y-100916280D01*
X129969720Y-101207431D01*
X130350126Y-101365000D01*
X130761874Y-101365000D01*
X131142280Y-101207431D01*
X131385455Y-100964256D01*
X138156197Y-107735000D01*
X138029744Y-107735000D01*
X137596582Y-107821161D01*
X137105375Y-108149375D01*
X136892157Y-108468478D01*
X136831183Y-108338642D01*
X136402924Y-107948355D01*
X135992890Y-107778524D01*
X135763000Y-107899845D01*
X135763000Y-109093000D01*
X135783000Y-109093000D01*
X135783000Y-109347000D01*
X135763000Y-109347000D01*
X135763000Y-110540155D01*
X135992890Y-110661476D01*
X136402924Y-110491645D01*
X136831183Y-110101358D01*
X136892157Y-109971522D01*
X137105375Y-110290625D01*
X137596582Y-110618839D01*
X138029744Y-110705000D01*
X138322256Y-110705000D01*
X138755418Y-110618839D01*
X139246625Y-110290625D01*
X139446000Y-109992239D01*
X139645375Y-110290625D01*
X140136582Y-110618839D01*
X140569744Y-110705000D01*
X140862256Y-110705000D01*
X141295418Y-110618839D01*
X141786625Y-110290625D01*
X141986000Y-109992239D01*
X142185375Y-110290625D01*
X142676582Y-110618839D01*
X143109744Y-110705000D01*
X143402256Y-110705000D01*
X143835418Y-110618839D01*
X144326625Y-110290625D01*
X144539843Y-109971522D01*
X144600817Y-110101358D01*
X145029076Y-110491645D01*
X145439110Y-110661476D01*
X145669000Y-110540155D01*
X145669000Y-109347000D01*
X145649000Y-109347000D01*
X145649000Y-109093000D01*
X145669000Y-109093000D01*
X145669000Y-107899845D01*
X145923000Y-107899845D01*
X145923000Y-109093000D01*
X145943000Y-109093000D01*
X145943000Y-109347000D01*
X145923000Y-109347000D01*
X145923000Y-110540155D01*
X146152890Y-110661476D01*
X146562924Y-110491645D01*
X146991183Y-110101358D01*
X147052157Y-109971522D01*
X147265375Y-110290625D01*
X147756582Y-110618839D01*
X148189744Y-110705000D01*
X148482256Y-110705000D01*
X148915418Y-110618839D01*
X149265406Y-110384984D01*
X155817570Y-116937148D01*
X155967569Y-117299280D01*
X156258720Y-117590431D01*
X156639126Y-117748000D01*
X157050874Y-117748000D01*
X157431280Y-117590431D01*
X157722431Y-117299280D01*
X157880000Y-116918874D01*
X157880000Y-116507126D01*
X157722431Y-116126720D01*
X157431280Y-115835569D01*
X157069148Y-115685570D01*
X150039425Y-108655847D01*
X149990049Y-108581951D01*
X149697310Y-108386348D01*
X149544679Y-108355988D01*
X149406625Y-108149375D01*
X148915418Y-107821161D01*
X148482256Y-107735000D01*
X148189744Y-107735000D01*
X147756582Y-107821161D01*
X147265375Y-108149375D01*
X147052157Y-108468478D01*
X146991183Y-108338642D01*
X146562924Y-107948355D01*
X146152890Y-107778524D01*
X145923000Y-107899845D01*
X145669000Y-107899845D01*
X145439110Y-107778524D01*
X145029076Y-107948355D01*
X144600817Y-108338642D01*
X144539843Y-108468478D01*
X144326625Y-108149375D01*
X144016000Y-107941822D01*
X144016000Y-106811850D01*
X144030888Y-106737002D01*
X144016000Y-106662154D01*
X144016000Y-106662150D01*
X143971904Y-106440465D01*
X143971904Y-106440464D01*
X143846329Y-106252529D01*
X143803929Y-106189073D01*
X143740473Y-106146673D01*
X131070000Y-93476201D01*
X131070000Y-92643711D01*
X131187431Y-92526280D01*
X131345000Y-92145874D01*
X131345000Y-91734126D01*
X131187431Y-91353720D01*
X130896280Y-91062569D01*
X130515874Y-90905000D01*
X130104126Y-90905000D01*
X129723720Y-91062569D01*
X129432569Y-91353720D01*
X129275000Y-91734126D01*
X129275000Y-92145874D01*
X129432569Y-92526280D01*
X129550001Y-92643712D01*
X129550000Y-93716155D01*
X129535112Y-93791002D01*
X129550000Y-93865849D01*
X129550000Y-93865853D01*
X129594096Y-94087538D01*
X129762071Y-94338931D01*
X129825530Y-94381333D01*
X142496001Y-107051805D01*
X142496001Y-107941822D01*
X142185375Y-108149375D01*
X141986000Y-108447761D01*
X141786625Y-108149375D01*
X141295418Y-107821161D01*
X140862256Y-107735000D01*
X140569744Y-107735000D01*
X140349593Y-107778791D01*
X130818982Y-98248181D01*
X130985126Y-98317000D01*
X131396874Y-98317000D01*
X131777280Y-98159431D01*
X132068431Y-97868280D01*
X132226000Y-97487874D01*
X132226000Y-97076126D01*
X132068431Y-96695720D01*
X131777280Y-96404569D01*
X131396874Y-96247000D01*
X130985126Y-96247000D01*
X130604720Y-96404569D01*
X130487289Y-96522000D01*
X125722916Y-96522000D01*
X126062280Y-96381431D01*
X126353431Y-96090280D01*
X126511000Y-95709874D01*
X126511000Y-95298126D01*
X126353431Y-94917720D01*
X126236000Y-94800289D01*
X126236000Y-87450846D01*
X126250888Y-87375999D01*
X126236000Y-87301152D01*
X126236000Y-87301148D01*
X126191904Y-87079463D01*
X126120067Y-86971951D01*
X126066329Y-86891526D01*
X126066327Y-86891524D01*
X126023929Y-86828071D01*
X125960476Y-86785673D01*
X124479802Y-85305000D01*
X124606256Y-85305000D01*
X124826407Y-85261209D01*
X125266673Y-85701476D01*
X125309071Y-85764929D01*
X125372524Y-85807327D01*
X125372526Y-85807329D01*
X125497902Y-85891102D01*
X125560463Y-85932904D01*
X125782148Y-85977000D01*
X125782152Y-85977000D01*
X125856999Y-85991888D01*
X125931846Y-85977000D01*
X145848153Y-85977000D01*
X145923000Y-85991888D01*
X145997847Y-85977000D01*
X145997852Y-85977000D01*
X146219537Y-85932904D01*
X146470929Y-85764929D01*
X146513331Y-85701470D01*
X146953593Y-85261209D01*
X147173744Y-85305000D01*
X147466256Y-85305000D01*
X147899418Y-85218839D01*
X148390625Y-84890625D01*
X148504359Y-84720410D01*
X167553000Y-84720410D01*
X167553000Y-85967590D01*
X168030276Y-87119835D01*
X168912165Y-88001724D01*
X170064410Y-88479000D01*
X171311590Y-88479000D01*
X172463835Y-88001724D01*
X173345724Y-87119835D01*
X173823000Y-85967590D01*
X173823000Y-84720410D01*
X173345724Y-83568165D01*
X172463835Y-82686276D01*
X171311590Y-82209000D01*
X170064410Y-82209000D01*
X168912165Y-82686276D01*
X168030276Y-83568165D01*
X167553000Y-84720410D01*
X148504359Y-84720410D01*
X148718839Y-84399418D01*
X148834092Y-83820000D01*
X148718839Y-83240582D01*
X148390625Y-82749375D01*
X147899418Y-82421161D01*
X147466256Y-82335000D01*
X147173744Y-82335000D01*
X146740582Y-82421161D01*
X146249375Y-82749375D01*
X146036157Y-83068478D01*
X145975183Y-82938642D01*
X145546924Y-82548355D01*
X145136890Y-82378524D01*
X144907000Y-82499845D01*
X144907000Y-83693000D01*
X144927000Y-83693000D01*
X144927000Y-83947000D01*
X144907000Y-83947000D01*
X144907000Y-83967000D01*
X144653000Y-83967000D01*
X144653000Y-83947000D01*
X144633000Y-83947000D01*
X144633000Y-83693000D01*
X144653000Y-83693000D01*
X144653000Y-82499845D01*
X144423110Y-82378524D01*
X144013076Y-82548355D01*
X143584817Y-82938642D01*
X143523843Y-83068478D01*
X143310625Y-82749375D01*
X142819418Y-82421161D01*
X142386256Y-82335000D01*
X142093744Y-82335000D01*
X141660582Y-82421161D01*
X141169375Y-82749375D01*
X140970000Y-83047761D01*
X140770625Y-82749375D01*
X140279418Y-82421161D01*
X139846256Y-82335000D01*
X139553744Y-82335000D01*
X139120582Y-82421161D01*
X138629375Y-82749375D01*
X138430000Y-83047761D01*
X138230625Y-82749375D01*
X137739418Y-82421161D01*
X137306256Y-82335000D01*
X137013744Y-82335000D01*
X136580582Y-82421161D01*
X136089375Y-82749375D01*
X135890000Y-83047761D01*
X135690625Y-82749375D01*
X135199418Y-82421161D01*
X134766256Y-82335000D01*
X134473744Y-82335000D01*
X134040582Y-82421161D01*
X133549375Y-82749375D01*
X133350000Y-83047761D01*
X133150625Y-82749375D01*
X132659418Y-82421161D01*
X132226256Y-82335000D01*
X131933744Y-82335000D01*
X131500582Y-82421161D01*
X131009375Y-82749375D01*
X130810000Y-83047761D01*
X130610625Y-82749375D01*
X130119418Y-82421161D01*
X129686256Y-82335000D01*
X129393744Y-82335000D01*
X128960582Y-82421161D01*
X128469375Y-82749375D01*
X128256157Y-83068478D01*
X128195183Y-82938642D01*
X127766924Y-82548355D01*
X127356890Y-82378524D01*
X127127000Y-82499845D01*
X127127000Y-83693000D01*
X127147000Y-83693000D01*
X127147000Y-83947000D01*
X127127000Y-83947000D01*
X127127000Y-83967000D01*
X126873000Y-83967000D01*
X126873000Y-83947000D01*
X126853000Y-83947000D01*
X126853000Y-83693000D01*
X126873000Y-83693000D01*
X126873000Y-82499845D01*
X126643110Y-82378524D01*
X126233076Y-82548355D01*
X125804817Y-82938642D01*
X125743843Y-83068478D01*
X125530625Y-82749375D01*
X125039418Y-82421161D01*
X124606256Y-82335000D01*
X124313744Y-82335000D01*
X123880582Y-82421161D01*
X123389375Y-82749375D01*
X123190000Y-83047761D01*
X122990625Y-82749375D01*
X122499418Y-82421161D01*
X122066256Y-82335000D01*
X121773744Y-82335000D01*
X121340582Y-82421161D01*
X120849375Y-82749375D01*
X120650000Y-83047761D01*
X120450625Y-82749375D01*
X119959418Y-82421161D01*
X119526256Y-82335000D01*
X119233744Y-82335000D01*
X118800582Y-82421161D01*
X118309375Y-82749375D01*
X118110000Y-83047761D01*
X117910625Y-82749375D01*
X117419418Y-82421161D01*
X116986256Y-82335000D01*
X116693744Y-82335000D01*
X116260582Y-82421161D01*
X115769375Y-82749375D01*
X115570000Y-83047761D01*
X115370625Y-82749375D01*
X114879418Y-82421161D01*
X114446256Y-82335000D01*
X114153744Y-82335000D01*
X113720582Y-82421161D01*
X113229375Y-82749375D01*
X113217184Y-82767619D01*
X113208157Y-82722235D01*
X113067809Y-82512191D01*
X112857765Y-82371843D01*
X112610000Y-82322560D01*
X110910000Y-82322560D01*
X110662235Y-82371843D01*
X110452191Y-82512191D01*
X110311843Y-82722235D01*
X110262560Y-82970000D01*
X110262560Y-84670000D01*
X110311843Y-84917765D01*
X110452191Y-85127809D01*
X110662235Y-85268157D01*
X110910000Y-85317440D01*
X111000000Y-85317440D01*
X111000001Y-89190149D01*
X110985112Y-89265001D01*
X111044097Y-89561538D01*
X111163529Y-89740280D01*
X111212072Y-89812930D01*
X111275528Y-89855330D01*
X112594243Y-91174046D01*
X112406569Y-91361720D01*
X112249000Y-91742126D01*
X112249000Y-92153874D01*
X112406569Y-92534280D01*
X112697720Y-92825431D01*
X112777999Y-92858683D01*
X112777998Y-93280288D01*
X112660567Y-93397719D01*
X112502998Y-93778125D01*
X112502998Y-94189873D01*
X112660567Y-94570279D01*
X112951718Y-94861430D01*
X113332124Y-95018999D01*
X113743872Y-95018999D01*
X114124278Y-94861430D01*
X114415429Y-94570279D01*
X114572998Y-94189873D01*
X114572998Y-93778125D01*
X114415429Y-93397719D01*
X114297998Y-93280288D01*
X114297998Y-92877801D01*
X115805000Y-94384803D01*
X115805000Y-94550875D01*
X115962569Y-94931281D01*
X116107245Y-95075957D01*
X113772202Y-97411000D01*
X110812711Y-97411000D01*
X110695280Y-97293569D01*
X110314874Y-97136000D01*
X109903126Y-97136000D01*
X109522720Y-97293569D01*
X109231569Y-97584720D01*
X109074000Y-97965126D01*
X109074000Y-98376874D01*
X109231569Y-98757280D01*
X109522720Y-99048431D01*
X109903126Y-99206000D01*
X110314874Y-99206000D01*
X110695280Y-99048431D01*
X110812711Y-98931000D01*
X114012156Y-98931000D01*
X114087003Y-98945888D01*
X114161850Y-98931000D01*
X114161855Y-98931000D01*
X114383540Y-98886904D01*
X114634932Y-98718929D01*
X114677334Y-98655470D01*
X118049474Y-95283331D01*
X118112930Y-95240931D01*
X118280905Y-94989539D01*
X118325001Y-94767854D01*
X118325001Y-94767849D01*
X118339889Y-94693002D01*
X118325001Y-94618155D01*
X118325001Y-92646249D01*
X118339889Y-92571401D01*
X118325001Y-92496553D01*
X118325001Y-92496549D01*
X118280905Y-92274864D01*
X118112930Y-92023472D01*
X118049474Y-91981072D01*
X117570200Y-91501799D01*
X117570200Y-91335726D01*
X117412631Y-90955320D01*
X117295200Y-90837889D01*
X117295200Y-89857711D01*
X117412631Y-89740280D01*
X117570200Y-89359874D01*
X117570200Y-88948126D01*
X117507237Y-88796120D01*
X120398000Y-91686883D01*
X120398001Y-99673316D01*
X120317720Y-99706569D01*
X120026569Y-99997720D01*
X119869000Y-100378126D01*
X119869000Y-100789874D01*
X120026569Y-101170280D01*
X120171245Y-101314956D01*
X119757201Y-101729000D01*
X110677803Y-101729000D01*
X108711256Y-99762455D01*
X108954431Y-99519280D01*
X109112000Y-99138874D01*
X109112000Y-98727126D01*
X108954431Y-98346720D01*
X108663280Y-98055569D01*
X108282874Y-97898000D01*
X107871126Y-97898000D01*
X107490720Y-98055569D01*
X107247546Y-98298743D01*
X105275024Y-96326222D01*
X105332448Y-96314800D01*
X109329089Y-96314800D01*
X109446520Y-96432231D01*
X109826926Y-96589800D01*
X110238674Y-96589800D01*
X110619080Y-96432231D01*
X110910231Y-96141080D01*
X111067800Y-95760674D01*
X111067800Y-95348926D01*
X110910231Y-94968520D01*
X110619080Y-94677369D01*
X110238674Y-94519800D01*
X109826926Y-94519800D01*
X109446520Y-94677369D01*
X109329089Y-94794800D01*
X105572402Y-94794800D01*
X103447800Y-92670199D01*
X103447800Y-92504126D01*
X103290231Y-92123720D01*
X102999080Y-91832569D01*
X102618674Y-91675000D01*
X102206926Y-91675000D01*
X101826520Y-91832569D01*
X101535369Y-92123720D01*
X101377800Y-92504126D01*
X101377800Y-92915874D01*
X101535369Y-93296280D01*
X101826520Y-93587431D01*
X102206926Y-93745000D01*
X102372999Y-93745000D01*
X103360576Y-94732578D01*
X103303153Y-94744000D01*
X80459711Y-94744000D01*
X80342280Y-94626569D01*
X79961874Y-94469000D01*
X79550126Y-94469000D01*
X79169720Y-94626569D01*
X78878569Y-94917720D01*
X78721000Y-95298126D01*
X71770734Y-95298126D01*
X71579193Y-95147297D01*
X70967000Y-94975000D01*
X69977000Y-94975000D01*
X69723000Y-94975000D01*
X68733000Y-94975000D01*
X68120807Y-95147297D01*
X67621149Y-95540754D01*
X67310095Y-96095472D01*
X67279782Y-96221135D01*
X62103000Y-96221135D01*
X62103000Y-85228410D01*
X64429000Y-85228410D01*
X64429000Y-86475590D01*
X64906276Y-87627835D01*
X65788165Y-88509724D01*
X66940410Y-88987000D01*
X68187590Y-88987000D01*
X69339835Y-88509724D01*
X70221724Y-87627835D01*
X70699000Y-86475590D01*
X70699000Y-85228410D01*
X70221724Y-84076165D01*
X69339835Y-83194276D01*
X68187590Y-82717000D01*
X66940410Y-82717000D01*
X65788165Y-83194276D01*
X64906276Y-84076165D01*
X64429000Y-85228410D01*
X62103000Y-85228410D01*
X62103000Y-81407000D01*
X175133000Y-81407000D01*
X175133000Y-152273000D01*
X175133000Y-152273000D01*
G37*
X175133000Y-152273000D02*
X62103000Y-152273000D01*
X62103000Y-147204410D01*
X64937000Y-147204410D01*
X64937000Y-148451590D01*
X65414276Y-149603835D01*
X66296165Y-150485724D01*
X67448410Y-150963000D01*
X68695590Y-150963000D01*
X69847835Y-150485724D01*
X70729724Y-149603835D01*
X71207000Y-148451590D01*
X71207000Y-147731807D01*
X80761797Y-147731807D01*
X81055508Y-148384776D01*
X81576742Y-148875642D01*
X82138195Y-149108195D01*
X82423000Y-148991432D01*
X82423000Y-147447000D01*
X82677000Y-147447000D01*
X82677000Y-148991432D01*
X82961805Y-149108195D01*
X83523258Y-148875642D01*
X84044492Y-148384776D01*
X84338203Y-147731807D01*
X87111797Y-147731807D01*
X87405508Y-148384776D01*
X87926742Y-148875642D01*
X88488195Y-149108195D01*
X88773000Y-148991432D01*
X88773000Y-147447000D01*
X89027000Y-147447000D01*
X89027000Y-148991432D01*
X89311805Y-149108195D01*
X89873258Y-148875642D01*
X90394492Y-148384776D01*
X90688203Y-147731807D01*
X93461797Y-147731807D01*
X93755508Y-148384776D01*
X94276742Y-148875642D01*
X94838195Y-149108195D01*
X95123000Y-148991432D01*
X95123000Y-147447000D01*
X95377000Y-147447000D01*
X95377000Y-148991432D01*
X95661805Y-149108195D01*
X96223258Y-148875642D01*
X96744492Y-148384776D01*
X97038203Y-147731807D01*
X99811797Y-147731807D01*
X100105508Y-148384776D01*
X100626742Y-148875642D01*
X101188195Y-149108195D01*
X101473000Y-148991432D01*
X101473000Y-147447000D01*
X101727000Y-147447000D01*
X101727000Y-148991432D01*
X102011805Y-149108195D01*
X102573258Y-148875642D01*
X103094492Y-148384776D01*
X103388203Y-147731807D01*
X106161797Y-147731807D01*
X106455508Y-148384776D01*
X106976742Y-148875642D01*
X107538195Y-149108195D01*
X107823000Y-148991432D01*
X107823000Y-147447000D01*
X108077000Y-147447000D01*
X108077000Y-148991432D01*
X108361805Y-149108195D01*
X108923258Y-148875642D01*
X109444492Y-148384776D01*
X109738203Y-147731807D01*
X112511797Y-147731807D01*
X112805508Y-148384776D01*
X113326742Y-148875642D01*
X113888195Y-149108195D01*
X114173000Y-148991432D01*
X114173000Y-147447000D01*
X114427000Y-147447000D01*
X114427000Y-148991432D01*
X114711805Y-149108195D01*
X115273258Y-148875642D01*
X115794492Y-148384776D01*
X116088203Y-147731807D01*
X118861797Y-147731807D01*
X119155508Y-148384776D01*
X119676742Y-148875642D01*
X120238195Y-149108195D01*
X120523000Y-148991432D01*
X120523000Y-147447000D01*
X120777000Y-147447000D01*
X120777000Y-148991432D01*
X121061805Y-149108195D01*
X121623258Y-148875642D01*
X122144492Y-148384776D01*
X122438203Y-147731807D01*
X125211797Y-147731807D01*
X125505508Y-148384776D01*
X126026742Y-148875642D01*
X126588195Y-149108195D01*
X126873000Y-148991432D01*
X126873000Y-147447000D01*
X127127000Y-147447000D01*
X127127000Y-148991432D01*
X127411805Y-149108195D01*
X127973258Y-148875642D01*
X128494492Y-148384776D01*
X128788203Y-147731807D01*
X131561797Y-147731807D01*
X131855508Y-148384776D01*
X132376742Y-148875642D01*
X132938195Y-149108195D01*
X133223000Y-148991432D01*
X133223000Y-147447000D01*
X133477000Y-147447000D01*
X133477000Y-148991432D01*
X133761805Y-149108195D01*
X134323258Y-148875642D01*
X134844492Y-148384776D01*
X135138203Y-147731807D01*
X137911797Y-147731807D01*
X138205508Y-148384776D01*
X138726742Y-148875642D01*
X139288195Y-149108195D01*
X139573000Y-148991432D01*
X139573000Y-147447000D01*
X139827000Y-147447000D01*
X139827000Y-148991432D01*
X140111805Y-149108195D01*
X140673258Y-148875642D01*
X141194492Y-148384776D01*
X141488203Y-147731807D01*
X141395767Y-147505528D01*
X159118300Y-147505528D01*
X159118300Y-147916792D01*
X159275684Y-148296749D01*
X159566491Y-148587556D01*
X159946448Y-148744940D01*
X160357712Y-148744940D01*
X160737669Y-148587556D01*
X161028476Y-148296749D01*
X161185860Y-147916792D01*
X161185860Y-147508068D01*
X162915600Y-147508068D01*
X162915600Y-147919332D01*
X163072984Y-148299289D01*
X163363791Y-148590096D01*
X163743748Y-148747480D01*
X164155012Y-148747480D01*
X164534969Y-148590096D01*
X164825776Y-148299289D01*
X164983160Y-147919332D01*
X164983160Y-147508068D01*
X164825776Y-147128111D01*
X164534969Y-146837304D01*
X164194823Y-146696410D01*
X167710000Y-146696410D01*
X167710000Y-147943590D01*
X168187276Y-149095835D01*
X169069165Y-149977724D01*
X170221410Y-150455000D01*
X171468590Y-150455000D01*
X172620835Y-149977724D01*
X173502724Y-149095835D01*
X173980000Y-147943590D01*
X173980000Y-146696410D01*
X173502724Y-145544165D01*
X172620835Y-144662276D01*
X171468590Y-144185000D01*
X170221410Y-144185000D01*
X169069165Y-144662276D01*
X168187276Y-145544165D01*
X167710000Y-146696410D01*
X164194823Y-146696410D01*
X164155012Y-146679920D01*
X163743748Y-146679920D01*
X163363791Y-146837304D01*
X163072984Y-147128111D01*
X162915600Y-147508068D01*
X161185860Y-147508068D01*
X161185860Y-147505528D01*
X161028476Y-147125571D01*
X160737669Y-146834764D01*
X160357712Y-146677380D01*
X159946448Y-146677380D01*
X159566491Y-146834764D01*
X159275684Y-147125571D01*
X159118300Y-147505528D01*
X141395767Y-147505528D01*
X141371858Y-147447000D01*
X139827000Y-147447000D01*
X139573000Y-147447000D01*
X138028142Y-147447000D01*
X137911797Y-147731807D01*
X135138203Y-147731807D01*
X135021858Y-147447000D01*
X133477000Y-147447000D01*
X133223000Y-147447000D01*
X131678142Y-147447000D01*
X131561797Y-147731807D01*
X128788203Y-147731807D01*
X128671858Y-147447000D01*
X127127000Y-147447000D01*
X126873000Y-147447000D01*
X125328142Y-147447000D01*
X125211797Y-147731807D01*
X122438203Y-147731807D01*
X122321858Y-147447000D01*
X120777000Y-147447000D01*
X120523000Y-147447000D01*
X118978142Y-147447000D01*
X118861797Y-147731807D01*
X116088203Y-147731807D01*
X115971858Y-147447000D01*
X114427000Y-147447000D01*
X114173000Y-147447000D01*
X112628142Y-147447000D01*
X112511797Y-147731807D01*
X109738203Y-147731807D01*
X109621858Y-147447000D01*
X108077000Y-147447000D01*
X107823000Y-147447000D01*
X106278142Y-147447000D01*
X106161797Y-147731807D01*
X103388203Y-147731807D01*
X103271858Y-147447000D01*
X101727000Y-147447000D01*
X101473000Y-147447000D01*
X99928142Y-147447000D01*
X99811797Y-147731807D01*
X97038203Y-147731807D01*
X96921858Y-147447000D01*
X95377000Y-147447000D01*
X95123000Y-147447000D01*
X93578142Y-147447000D01*
X93461797Y-147731807D01*
X90688203Y-147731807D01*
X90571858Y-147447000D01*
X89027000Y-147447000D01*
X88773000Y-147447000D01*
X87228142Y-147447000D01*
X87111797Y-147731807D01*
X84338203Y-147731807D01*
X84221858Y-147447000D01*
X82677000Y-147447000D01*
X82423000Y-147447000D01*
X80878142Y-147447000D01*
X80761797Y-147731807D01*
X71207000Y-147731807D01*
X71207000Y-147204410D01*
X71084303Y-146908193D01*
X80761797Y-146908193D01*
X80878142Y-147193000D01*
X82423000Y-147193000D01*
X82423000Y-145648568D01*
X82677000Y-145648568D01*
X82677000Y-147193000D01*
X84221858Y-147193000D01*
X84338203Y-146908193D01*
X87111797Y-146908193D01*
X87228142Y-147193000D01*
X88773000Y-147193000D01*
X88773000Y-145648568D01*
X89027000Y-145648568D01*
X89027000Y-147193000D01*
X90571858Y-147193000D01*
X90688203Y-146908193D01*
X93461797Y-146908193D01*
X93578142Y-147193000D01*
X95123000Y-147193000D01*
X95123000Y-145648568D01*
X95377000Y-145648568D01*
X95377000Y-147193000D01*
X96921858Y-147193000D01*
X97038203Y-146908193D01*
X99811797Y-146908193D01*
X99928142Y-147193000D01*
X101473000Y-147193000D01*
X101473000Y-145648568D01*
X101727000Y-145648568D01*
X101727000Y-147193000D01*
X103271858Y-147193000D01*
X103388203Y-146908193D01*
X106161797Y-146908193D01*
X106278142Y-147193000D01*
X107823000Y-147193000D01*
X107823000Y-145648568D01*
X108077000Y-145648568D01*
X108077000Y-147193000D01*
X109621858Y-147193000D01*
X109738203Y-146908193D01*
X112511797Y-146908193D01*
X112628142Y-147193000D01*
X114173000Y-147193000D01*
X114173000Y-145648568D01*
X114427000Y-145648568D01*
X114427000Y-147193000D01*
X115971858Y-147193000D01*
X116088203Y-146908193D01*
X118861797Y-146908193D01*
X118978142Y-147193000D01*
X120523000Y-147193000D01*
X120523000Y-145648568D01*
X120777000Y-145648568D01*
X120777000Y-147193000D01*
X122321858Y-147193000D01*
X122438203Y-146908193D01*
X125211797Y-146908193D01*
X125328142Y-147193000D01*
X126873000Y-147193000D01*
X126873000Y-145648568D01*
X127127000Y-145648568D01*
X127127000Y-147193000D01*
X128671858Y-147193000D01*
X128788203Y-146908193D01*
X131561797Y-146908193D01*
X131678142Y-147193000D01*
X133223000Y-147193000D01*
X133223000Y-145648568D01*
X133477000Y-145648568D01*
X133477000Y-147193000D01*
X135021858Y-147193000D01*
X135138203Y-146908193D01*
X137911797Y-146908193D01*
X138028142Y-147193000D01*
X139573000Y-147193000D01*
X139573000Y-145648568D01*
X139827000Y-145648568D01*
X139827000Y-147193000D01*
X141371858Y-147193000D01*
X141488203Y-146908193D01*
X141194492Y-146255224D01*
X140673258Y-145764358D01*
X140111805Y-145531805D01*
X139827000Y-145648568D01*
X139573000Y-145648568D01*
X139288195Y-145531805D01*
X138726742Y-145764358D01*
X138205508Y-146255224D01*
X137911797Y-146908193D01*
X135138203Y-146908193D01*
X134844492Y-146255224D01*
X134323258Y-145764358D01*
X133761805Y-145531805D01*
X133477000Y-145648568D01*
X133223000Y-145648568D01*
X132938195Y-145531805D01*
X132376742Y-145764358D01*
X131855508Y-146255224D01*
X131561797Y-146908193D01*
X128788203Y-146908193D01*
X128494492Y-146255224D01*
X127973258Y-145764358D01*
X127411805Y-145531805D01*
X127127000Y-145648568D01*
X126873000Y-145648568D01*
X126588195Y-145531805D01*
X126026742Y-145764358D01*
X125505508Y-146255224D01*
X125211797Y-146908193D01*
X122438203Y-146908193D01*
X122144492Y-146255224D01*
X121623258Y-145764358D01*
X121061805Y-145531805D01*
X120777000Y-145648568D01*
X120523000Y-145648568D01*
X120238195Y-145531805D01*
X119676742Y-145764358D01*
X119155508Y-146255224D01*
X118861797Y-146908193D01*
X116088203Y-146908193D01*
X115794492Y-146255224D01*
X115273258Y-145764358D01*
X114711805Y-145531805D01*
X114427000Y-145648568D01*
X114173000Y-145648568D01*
X113888195Y-145531805D01*
X113326742Y-145764358D01*
X112805508Y-146255224D01*
X112511797Y-146908193D01*
X109738203Y-146908193D01*
X109444492Y-146255224D01*
X108923258Y-145764358D01*
X108361805Y-145531805D01*
X108077000Y-145648568D01*
X107823000Y-145648568D01*
X107538195Y-145531805D01*
X106976742Y-145764358D01*
X106455508Y-146255224D01*
X106161797Y-146908193D01*
X103388203Y-146908193D01*
X103094492Y-146255224D01*
X102573258Y-145764358D01*
X102011805Y-145531805D01*
X101727000Y-145648568D01*
X101473000Y-145648568D01*
X101188195Y-145531805D01*
X100626742Y-145764358D01*
X100105508Y-146255224D01*
X99811797Y-146908193D01*
X97038203Y-146908193D01*
X96744492Y-146255224D01*
X96223258Y-145764358D01*
X95661805Y-145531805D01*
X95377000Y-145648568D01*
X95123000Y-145648568D01*
X94838195Y-145531805D01*
X94276742Y-145764358D01*
X93755508Y-146255224D01*
X93461797Y-146908193D01*
X90688203Y-146908193D01*
X90394492Y-146255224D01*
X89873258Y-145764358D01*
X89311805Y-145531805D01*
X89027000Y-145648568D01*
X88773000Y-145648568D01*
X88488195Y-145531805D01*
X87926742Y-145764358D01*
X87405508Y-146255224D01*
X87111797Y-146908193D01*
X84338203Y-146908193D01*
X84044492Y-146255224D01*
X83523258Y-145764358D01*
X82961805Y-145531805D01*
X82677000Y-145648568D01*
X82423000Y-145648568D01*
X82138195Y-145531805D01*
X81576742Y-145764358D01*
X81055508Y-146255224D01*
X80761797Y-146908193D01*
X71084303Y-146908193D01*
X70729724Y-146052165D01*
X69847835Y-145170276D01*
X68695590Y-144693000D01*
X67448410Y-144693000D01*
X66296165Y-145170276D01*
X65414276Y-146052165D01*
X64937000Y-147204410D01*
X62103000Y-147204410D01*
X62103000Y-136437005D01*
X64945260Y-136437005D01*
X64945260Y-137882995D01*
X65498616Y-139218915D01*
X66521085Y-140241384D01*
X67857005Y-140794740D01*
X69302995Y-140794740D01*
X70638915Y-140241384D01*
X71661384Y-139218915D01*
X72214740Y-137882995D01*
X72214740Y-136437005D01*
X71661384Y-135101085D01*
X70638915Y-134078616D01*
X69302995Y-133525260D01*
X67857005Y-133525260D01*
X66521085Y-134078616D01*
X65498616Y-135101085D01*
X64945260Y-136437005D01*
X62103000Y-136437005D01*
X62103000Y-130985126D01*
X165716000Y-130985126D01*
X165716000Y-131396874D01*
X165873569Y-131777280D01*
X166164720Y-132068431D01*
X166545126Y-132226000D01*
X166956874Y-132226000D01*
X167337280Y-132068431D01*
X167628431Y-131777280D01*
X167786000Y-131396874D01*
X167786000Y-131230801D01*
X169584802Y-129432000D01*
X169750874Y-129432000D01*
X170131280Y-129274431D01*
X170422431Y-128983280D01*
X170580000Y-128602874D01*
X170580000Y-128191126D01*
X170422431Y-127810720D01*
X170131280Y-127519569D01*
X169750874Y-127362000D01*
X169339126Y-127362000D01*
X168958720Y-127519569D01*
X168667569Y-127810720D01*
X168510000Y-128191126D01*
X168510000Y-128357198D01*
X166711199Y-130156000D01*
X166545126Y-130156000D01*
X166164720Y-130313569D01*
X165873569Y-130604720D01*
X165716000Y-130985126D01*
X62103000Y-130985126D01*
X62103000Y-111037005D01*
X64945260Y-111037005D01*
X64945260Y-112482995D01*
X65498616Y-113818915D01*
X66521085Y-114841384D01*
X67857005Y-115394740D01*
X69302995Y-115394740D01*
X69360320Y-115370995D01*
X68459112Y-116272203D01*
X68343471Y-116349472D01*
X68266203Y-116465112D01*
X68037359Y-116807601D01*
X67929867Y-117348000D01*
X67957000Y-117484407D01*
X67957001Y-122545588D01*
X67929867Y-122682000D01*
X68037359Y-123222399D01*
X68155580Y-123399329D01*
X68343472Y-123680529D01*
X68459112Y-123757797D01*
X70044202Y-125342888D01*
X70121471Y-125458529D01*
X70237111Y-125535797D01*
X70579600Y-125764641D01*
X70929319Y-125834204D01*
X70580792Y-126355812D01*
X70452655Y-127000000D01*
X70580792Y-127644188D01*
X70945695Y-128190305D01*
X71491812Y-128555208D01*
X71973391Y-128651000D01*
X72806609Y-128651000D01*
X73288188Y-128555208D01*
X73834305Y-128190305D01*
X74199208Y-127644188D01*
X74327345Y-127000000D01*
X74199208Y-126355812D01*
X73834305Y-125809695D01*
X73715033Y-125730000D01*
X73834305Y-125650305D01*
X74199208Y-125104188D01*
X74327345Y-124460000D01*
X74199208Y-123815812D01*
X73834305Y-123269695D01*
X73715033Y-123190000D01*
X73834305Y-123110305D01*
X74199208Y-122564188D01*
X74233856Y-122390000D01*
X148412560Y-122390000D01*
X148412560Y-123990000D01*
X148461843Y-124237765D01*
X148602191Y-124447809D01*
X148812235Y-124588157D01*
X149060000Y-124637440D01*
X150660000Y-124637440D01*
X150907765Y-124588157D01*
X151117809Y-124447809D01*
X151258157Y-124237765D01*
X151307440Y-123990000D01*
X151307440Y-123873126D01*
X158477000Y-123873126D01*
X158477000Y-124284874D01*
X158634569Y-124665280D01*
X158925720Y-124956431D01*
X159306126Y-125114000D01*
X159717874Y-125114000D01*
X160098280Y-124956431D01*
X160389431Y-124665280D01*
X160547000Y-124284874D01*
X160547000Y-123873126D01*
X160389431Y-123492720D01*
X160272000Y-123375289D01*
X160272000Y-121091801D01*
X161222545Y-120141256D01*
X161465720Y-120384431D01*
X161800001Y-120522894D01*
X161800000Y-128082198D01*
X161250199Y-128632000D01*
X161084126Y-128632000D01*
X160703720Y-128789569D01*
X160412569Y-129080720D01*
X160255000Y-129461126D01*
X160255000Y-129872874D01*
X160412569Y-130253280D01*
X160703720Y-130544431D01*
X161084126Y-130702000D01*
X161495874Y-130702000D01*
X161876280Y-130544431D01*
X162167431Y-130253280D01*
X162325000Y-129872874D01*
X162325000Y-129706801D01*
X163044473Y-128987329D01*
X163107929Y-128944929D01*
X163275904Y-128693537D01*
X163320000Y-128471852D01*
X163320000Y-128471848D01*
X163334888Y-128397001D01*
X163320000Y-128322154D01*
X163320000Y-120089846D01*
X163334888Y-120014999D01*
X163320000Y-119940152D01*
X163320000Y-119940148D01*
X163275904Y-119718463D01*
X163234102Y-119655902D01*
X163150329Y-119530526D01*
X163150327Y-119530524D01*
X163107929Y-119467071D01*
X163087000Y-119453087D01*
X163087000Y-119301126D01*
X162929431Y-118920720D01*
X162848286Y-118839575D01*
X162960000Y-118569874D01*
X162960000Y-118158126D01*
X162802431Y-117777720D01*
X162511280Y-117486569D01*
X162130874Y-117329000D01*
X161719126Y-117329000D01*
X161338720Y-117486569D01*
X161047569Y-117777720D01*
X160890000Y-118158126D01*
X160890000Y-118324197D01*
X159027528Y-120186671D01*
X158964072Y-120229071D01*
X158921672Y-120292527D01*
X158921671Y-120292528D01*
X158800935Y-120473223D01*
X158796097Y-120480463D01*
X158783857Y-120542000D01*
X158737112Y-120777000D01*
X158752001Y-120851852D01*
X158752000Y-123375289D01*
X158634569Y-123492720D01*
X158477000Y-123873126D01*
X151307440Y-123873126D01*
X151307440Y-122390000D01*
X151258157Y-122142235D01*
X151117809Y-121932191D01*
X150907765Y-121791843D01*
X150673813Y-121745307D01*
X150688139Y-121697745D01*
X149860000Y-120869605D01*
X149031861Y-121697745D01*
X149046187Y-121745307D01*
X148812235Y-121791843D01*
X148602191Y-121932191D01*
X148461843Y-122142235D01*
X148412560Y-122390000D01*
X74233856Y-122390000D01*
X74322046Y-121946639D01*
X75795462Y-120473223D01*
X148413035Y-120473223D01*
X148440222Y-121043454D01*
X148606136Y-121444005D01*
X148852255Y-121518139D01*
X149680395Y-120690000D01*
X150039605Y-120690000D01*
X150867745Y-121518139D01*
X151113864Y-121444005D01*
X151306965Y-120906777D01*
X151279778Y-120336546D01*
X151113864Y-119935995D01*
X150867745Y-119861861D01*
X150039605Y-120690000D01*
X149680395Y-120690000D01*
X148852255Y-119861861D01*
X148606136Y-119935995D01*
X148413035Y-120473223D01*
X75795462Y-120473223D01*
X76586430Y-119682255D01*
X149031861Y-119682255D01*
X149860000Y-120510395D01*
X150688139Y-119682255D01*
X150614005Y-119436136D01*
X150076777Y-119243035D01*
X149506546Y-119270222D01*
X149105995Y-119436136D01*
X149031861Y-119682255D01*
X76586430Y-119682255D01*
X78043686Y-118225000D01*
X81339918Y-118225000D01*
X81510556Y-118395638D01*
X82184996Y-118675000D01*
X82915004Y-118675000D01*
X83589444Y-118395638D01*
X83760082Y-118225000D01*
X87689918Y-118225000D01*
X87860556Y-118395638D01*
X88534996Y-118675000D01*
X89265004Y-118675000D01*
X89939444Y-118395638D01*
X90110082Y-118225000D01*
X94039918Y-118225000D01*
X94210556Y-118395638D01*
X94884996Y-118675000D01*
X95615004Y-118675000D01*
X96289444Y-118395638D01*
X96460082Y-118225000D01*
X100389918Y-118225000D01*
X100560556Y-118395638D01*
X101234996Y-118675000D01*
X101965004Y-118675000D01*
X102639444Y-118395638D01*
X102810082Y-118225000D01*
X104511583Y-118225000D01*
X104648000Y-118252135D01*
X104784417Y-118225000D01*
X106739918Y-118225000D01*
X106910556Y-118395638D01*
X107584996Y-118675000D01*
X108315004Y-118675000D01*
X108989444Y-118395638D01*
X109160082Y-118225000D01*
X113089918Y-118225000D01*
X113260556Y-118395638D01*
X113934996Y-118675000D01*
X114665004Y-118675000D01*
X115339444Y-118395638D01*
X115510082Y-118225000D01*
X119439918Y-118225000D01*
X119610556Y-118395638D01*
X120284996Y-118675000D01*
X121015004Y-118675000D01*
X121689444Y-118395638D01*
X121860082Y-118225000D01*
X125789918Y-118225000D01*
X125960556Y-118395638D01*
X126634996Y-118675000D01*
X127365004Y-118675000D01*
X128039444Y-118395638D01*
X128210082Y-118225000D01*
X132139918Y-118225000D01*
X132310556Y-118395638D01*
X132984996Y-118675000D01*
X133715004Y-118675000D01*
X134389444Y-118395638D01*
X134560082Y-118225000D01*
X138489918Y-118225000D01*
X138660556Y-118395638D01*
X139334996Y-118675000D01*
X140065004Y-118675000D01*
X140739444Y-118395638D01*
X141255638Y-117879444D01*
X141535000Y-117205004D01*
X141535000Y-116474996D01*
X141255638Y-115800556D01*
X140739444Y-115284362D01*
X140065004Y-115005000D01*
X139334996Y-115005000D01*
X138660556Y-115284362D01*
X138489918Y-115455000D01*
X134560082Y-115455000D01*
X134389444Y-115284362D01*
X133715004Y-115005000D01*
X132984996Y-115005000D01*
X132310556Y-115284362D01*
X132139918Y-115455000D01*
X128210082Y-115455000D01*
X128039444Y-115284362D01*
X127365004Y-115005000D01*
X126634996Y-115005000D01*
X125960556Y-115284362D01*
X125789918Y-115455000D01*
X121860082Y-115455000D01*
X121689444Y-115284362D01*
X121015004Y-115005000D01*
X120284996Y-115005000D01*
X119610556Y-115284362D01*
X119439918Y-115455000D01*
X115510082Y-115455000D01*
X115339444Y-115284362D01*
X114665004Y-115005000D01*
X113934996Y-115005000D01*
X113260556Y-115284362D01*
X113089918Y-115455000D01*
X109160082Y-115455000D01*
X108989444Y-115284362D01*
X108315004Y-115005000D01*
X107584996Y-115005000D01*
X106910556Y-115284362D01*
X106739918Y-115455000D01*
X104784409Y-115455000D01*
X104648002Y-115427867D01*
X104647998Y-115427867D01*
X104511591Y-115455000D01*
X102810082Y-115455000D01*
X102639444Y-115284362D01*
X101965004Y-115005000D01*
X101234996Y-115005000D01*
X100560556Y-115284362D01*
X100389918Y-115455000D01*
X96460082Y-115455000D01*
X96289444Y-115284362D01*
X95615004Y-115005000D01*
X94884996Y-115005000D01*
X94210556Y-115284362D01*
X94039918Y-115455000D01*
X90110082Y-115455000D01*
X89939444Y-115284362D01*
X89265004Y-115005000D01*
X88534996Y-115005000D01*
X87860556Y-115284362D01*
X87689918Y-115455000D01*
X83760082Y-115455000D01*
X83589444Y-115284362D01*
X82915004Y-115005000D01*
X82184996Y-115005000D01*
X81510556Y-115284362D01*
X81339918Y-115455000D01*
X77606407Y-115455000D01*
X77470000Y-115427867D01*
X77333593Y-115455000D01*
X76929600Y-115535359D01*
X76471471Y-115841471D01*
X76394202Y-115957112D01*
X72082315Y-120269000D01*
X71973391Y-120269000D01*
X71491812Y-120364792D01*
X70945695Y-120729695D01*
X70727000Y-121056996D01*
X70727000Y-117921685D01*
X73780885Y-114867800D01*
X73896529Y-114790529D01*
X74202641Y-114332400D01*
X74283000Y-113928407D01*
X74283000Y-113928403D01*
X74310132Y-113792001D01*
X74283000Y-113655599D01*
X74283000Y-107274407D01*
X74310133Y-107138000D01*
X74202641Y-106597600D01*
X73973797Y-106255111D01*
X73973795Y-106255109D01*
X73896528Y-106139471D01*
X73780890Y-106062204D01*
X71235000Y-103516315D01*
X71235000Y-103237440D01*
X71830000Y-103237440D01*
X72077765Y-103188157D01*
X72287809Y-103047809D01*
X72428157Y-102837765D01*
X72477440Y-102590000D01*
X72477440Y-100610000D01*
X72428157Y-100362235D01*
X72287809Y-100152191D01*
X72077765Y-100011843D01*
X71830000Y-99962560D01*
X67870000Y-99962560D01*
X67622235Y-100011843D01*
X67412191Y-100152191D01*
X67271843Y-100362235D01*
X67222560Y-100610000D01*
X67222560Y-102590000D01*
X67271843Y-102837765D01*
X67412191Y-103047809D01*
X67622235Y-103188157D01*
X67870000Y-103237440D01*
X68465001Y-103237440D01*
X68465001Y-103953589D01*
X68437867Y-104090000D01*
X68545359Y-104630399D01*
X68545360Y-104630400D01*
X68851472Y-105088529D01*
X68967112Y-105165797D01*
X71513000Y-107711686D01*
X71513000Y-109552701D01*
X70638915Y-108678616D01*
X69302995Y-108125260D01*
X67857005Y-108125260D01*
X66521085Y-108678616D01*
X65498616Y-109701085D01*
X64945260Y-111037005D01*
X62103000Y-111037005D01*
X62103000Y-98727126D01*
X81896000Y-98727126D01*
X81896000Y-99138874D01*
X82053569Y-99519280D01*
X82344720Y-99810431D01*
X82725126Y-99968000D01*
X83136874Y-99968000D01*
X83517280Y-99810431D01*
X83808431Y-99519280D01*
X83966000Y-99138874D01*
X83966000Y-98727126D01*
X83808431Y-98346720D01*
X83517280Y-98055569D01*
X83136874Y-97898000D01*
X82725126Y-97898000D01*
X82344720Y-98055569D01*
X82053569Y-98346720D01*
X81896000Y-98727126D01*
X62103000Y-98727126D01*
X62103000Y-96978865D01*
X67279782Y-96978865D01*
X67310095Y-97104528D01*
X67621149Y-97659246D01*
X68120807Y-98052703D01*
X68733000Y-98225000D01*
X69723000Y-98225000D01*
X69723000Y-96727000D01*
X69977000Y-96727000D01*
X69977000Y-98225000D01*
X70967000Y-98225000D01*
X71579193Y-98052703D01*
X72078851Y-97659246D01*
X72389905Y-97104528D01*
X72420218Y-96978865D01*
X72300740Y-96727000D01*
X69977000Y-96727000D01*
X69723000Y-96727000D01*
X67399260Y-96727000D01*
X67279782Y-96978865D01*
X62103000Y-96978865D01*
X62103000Y-96221135D01*
X67279782Y-96221135D01*
X67399260Y-96473000D01*
X69723000Y-96473000D01*
X69723000Y-94975000D01*
X69977000Y-94975000D01*
X69977000Y-96473000D01*
X72300740Y-96473000D01*
X72420218Y-96221135D01*
X72389905Y-96095472D01*
X72078851Y-95540754D01*
X71770734Y-95298126D01*
X78721000Y-95298126D01*
X78721000Y-95709874D01*
X78878569Y-96090280D01*
X79169720Y-96381431D01*
X79550126Y-96539000D01*
X79961874Y-96539000D01*
X80342280Y-96381431D01*
X80459711Y-96264000D01*
X103063199Y-96264000D01*
X104648743Y-97849546D01*
X104405569Y-98092720D01*
X104248000Y-98473126D01*
X104248000Y-98884874D01*
X104405569Y-99265280D01*
X104696720Y-99556431D01*
X105077126Y-99714000D01*
X105488874Y-99714000D01*
X105869280Y-99556431D01*
X105925028Y-99500683D01*
X105772000Y-99870126D01*
X105772000Y-100281874D01*
X105929569Y-100662280D01*
X106220720Y-100953431D01*
X106601126Y-101111000D01*
X107012874Y-101111000D01*
X107393280Y-100953431D01*
X107572955Y-100773756D01*
X108966743Y-102167546D01*
X108723569Y-102410720D01*
X108566000Y-102791126D01*
X108566000Y-103202874D01*
X108723569Y-103583280D01*
X109014720Y-103874431D01*
X109395126Y-104032000D01*
X109603001Y-104032000D01*
X109603000Y-107832153D01*
X109588112Y-107907000D01*
X109603000Y-107981847D01*
X109603000Y-107981851D01*
X109647096Y-108203536D01*
X109815071Y-108454929D01*
X109878530Y-108497331D01*
X111085673Y-109704476D01*
X111128071Y-109767929D01*
X111191524Y-109810327D01*
X111191526Y-109810329D01*
X111278560Y-109868483D01*
X111278560Y-110070000D01*
X111327843Y-110317765D01*
X111468191Y-110527809D01*
X111678235Y-110668157D01*
X111926000Y-110717440D01*
X113626000Y-110717440D01*
X113873765Y-110668157D01*
X114083809Y-110527809D01*
X114224157Y-110317765D01*
X114244739Y-110214292D01*
X114549076Y-110491645D01*
X114959110Y-110661476D01*
X115189000Y-110540155D01*
X115189000Y-109347000D01*
X115169000Y-109347000D01*
X115169000Y-109093000D01*
X115189000Y-109093000D01*
X115189000Y-107899845D01*
X115443000Y-107899845D01*
X115443000Y-109093000D01*
X115463000Y-109093000D01*
X115463000Y-109347000D01*
X115443000Y-109347000D01*
X115443000Y-110540155D01*
X115672890Y-110661476D01*
X116082924Y-110491645D01*
X116511183Y-110101358D01*
X116572157Y-109971522D01*
X116785375Y-110290625D01*
X117276582Y-110618839D01*
X117709744Y-110705000D01*
X118002256Y-110705000D01*
X118435418Y-110618839D01*
X118926625Y-110290625D01*
X119126000Y-109992239D01*
X119325375Y-110290625D01*
X119816582Y-110618839D01*
X120249744Y-110705000D01*
X120542256Y-110705000D01*
X120975418Y-110618839D01*
X121302492Y-110400295D01*
X122892668Y-111990472D01*
X122935069Y-112053929D01*
X123186461Y-112221904D01*
X123408146Y-112266000D01*
X123408150Y-112266000D01*
X123482997Y-112280888D01*
X123557844Y-112266000D01*
X145227199Y-112266000D01*
X155810000Y-122848802D01*
X155810000Y-123014874D01*
X155967569Y-123395280D01*
X156258720Y-123686431D01*
X156639126Y-123844000D01*
X157050874Y-123844000D01*
X157431280Y-123686431D01*
X157722431Y-123395280D01*
X157880000Y-123014874D01*
X157880000Y-122603126D01*
X157722431Y-122222720D01*
X157431280Y-121931569D01*
X157050874Y-121774000D01*
X156884802Y-121774000D01*
X146132331Y-111021530D01*
X146089929Y-110958071D01*
X145838537Y-110790096D01*
X145616852Y-110746000D01*
X145616847Y-110746000D01*
X145542000Y-110731112D01*
X145467153Y-110746000D01*
X123797800Y-110746000D01*
X123608466Y-110556666D01*
X124006625Y-110290625D01*
X124206000Y-109992239D01*
X124405375Y-110290625D01*
X124896582Y-110618839D01*
X125329744Y-110705000D01*
X125622256Y-110705000D01*
X126055418Y-110618839D01*
X126546625Y-110290625D01*
X126746000Y-109992239D01*
X126945375Y-110290625D01*
X127436582Y-110618839D01*
X127869744Y-110705000D01*
X128162256Y-110705000D01*
X128595418Y-110618839D01*
X129086625Y-110290625D01*
X129286000Y-109992239D01*
X129485375Y-110290625D01*
X129976582Y-110618839D01*
X130409744Y-110705000D01*
X130702256Y-110705000D01*
X131135418Y-110618839D01*
X131626625Y-110290625D01*
X131826000Y-109992239D01*
X132025375Y-110290625D01*
X132516582Y-110618839D01*
X132949744Y-110705000D01*
X133242256Y-110705000D01*
X133675418Y-110618839D01*
X134166625Y-110290625D01*
X134379843Y-109971522D01*
X134440817Y-110101358D01*
X134869076Y-110491645D01*
X135279110Y-110661476D01*
X135509000Y-110540155D01*
X135509000Y-109347000D01*
X135489000Y-109347000D01*
X135489000Y-109093000D01*
X135509000Y-109093000D01*
X135509000Y-107899845D01*
X135279110Y-107778524D01*
X134869076Y-107948355D01*
X134440817Y-108338642D01*
X134379843Y-108468478D01*
X134166625Y-108149375D01*
X133675418Y-107821161D01*
X133242256Y-107735000D01*
X132949744Y-107735000D01*
X132516582Y-107821161D01*
X132025375Y-108149375D01*
X131826000Y-108447761D01*
X131626625Y-108149375D01*
X131135418Y-107821161D01*
X130702256Y-107735000D01*
X130409744Y-107735000D01*
X129976582Y-107821161D01*
X129485375Y-108149375D01*
X129286000Y-108447761D01*
X129086625Y-108149375D01*
X128595418Y-107821161D01*
X128162256Y-107735000D01*
X127869744Y-107735000D01*
X127436582Y-107821161D01*
X126945375Y-108149375D01*
X126746000Y-108447761D01*
X126546625Y-108149375D01*
X126055418Y-107821161D01*
X125622256Y-107735000D01*
X125329744Y-107735000D01*
X124896582Y-107821161D01*
X124405375Y-108149375D01*
X124206000Y-108447761D01*
X124006625Y-108149375D01*
X123515418Y-107821161D01*
X123082256Y-107735000D01*
X122789744Y-107735000D01*
X122356582Y-107821161D01*
X122331001Y-107838254D01*
X122331001Y-107040849D01*
X122345889Y-106966001D01*
X122331001Y-106891153D01*
X122331001Y-106891149D01*
X122286905Y-106669464D01*
X122193000Y-106528925D01*
X122193000Y-106347126D01*
X122035431Y-105966720D01*
X121744280Y-105675569D01*
X121363874Y-105518000D01*
X120952126Y-105518000D01*
X120571720Y-105675569D01*
X120280569Y-105966720D01*
X120123000Y-106347126D01*
X120123000Y-106758874D01*
X120280569Y-107139280D01*
X120571720Y-107430431D01*
X120811002Y-107529545D01*
X120811002Y-107788457D01*
X120542256Y-107735000D01*
X120249744Y-107735000D01*
X119816582Y-107821161D01*
X119325375Y-108149375D01*
X119126000Y-108447761D01*
X118926625Y-108149375D01*
X118435418Y-107821161D01*
X118002256Y-107735000D01*
X117709744Y-107735000D01*
X117276582Y-107821161D01*
X116785375Y-108149375D01*
X116572157Y-108468478D01*
X116511183Y-108338642D01*
X116082924Y-107948355D01*
X115672890Y-107778524D01*
X115443000Y-107899845D01*
X115189000Y-107899845D01*
X114959110Y-107778524D01*
X114549076Y-107948355D01*
X114244739Y-108225708D01*
X114224157Y-108122235D01*
X114083809Y-107912191D01*
X113873765Y-107771843D01*
X113626000Y-107722560D01*
X111926000Y-107722560D01*
X111678235Y-107771843D01*
X111468191Y-107912191D01*
X111458098Y-107927296D01*
X111123000Y-107592199D01*
X111123000Y-103249000D01*
X118999185Y-103249000D01*
X117852185Y-104396000D01*
X117289711Y-104396000D01*
X117172280Y-104278569D01*
X116791874Y-104121000D01*
X116380126Y-104121000D01*
X115999720Y-104278569D01*
X115708569Y-104569720D01*
X115551000Y-104950126D01*
X115551000Y-105361874D01*
X115708569Y-105742280D01*
X115999720Y-106033431D01*
X116380126Y-106191000D01*
X116791874Y-106191000D01*
X117172280Y-106033431D01*
X117289711Y-105916000D01*
X118092139Y-105916000D01*
X118166986Y-105930888D01*
X118241833Y-105916000D01*
X118241838Y-105916000D01*
X118463523Y-105871904D01*
X118714915Y-105703929D01*
X118757317Y-105640470D01*
X124690478Y-99707311D01*
X124753931Y-99664913D01*
X124796329Y-99601460D01*
X124796331Y-99601458D01*
X124921905Y-99413522D01*
X124921906Y-99413521D01*
X124922494Y-99410566D01*
X125259124Y-99550002D01*
X125670872Y-99550002D01*
X126051278Y-99392433D01*
X126168709Y-99275002D01*
X129696201Y-99275002D01*
X129921744Y-99500545D01*
X129678569Y-99743720D01*
X129521000Y-100124126D01*
X129521000Y-100535874D01*
X129678569Y-100916280D01*
X129969720Y-101207431D01*
X130350126Y-101365000D01*
X130761874Y-101365000D01*
X131142280Y-101207431D01*
X131385455Y-100964256D01*
X138156197Y-107735000D01*
X138029744Y-107735000D01*
X137596582Y-107821161D01*
X137105375Y-108149375D01*
X136892157Y-108468478D01*
X136831183Y-108338642D01*
X136402924Y-107948355D01*
X135992890Y-107778524D01*
X135763000Y-107899845D01*
X135763000Y-109093000D01*
X135783000Y-109093000D01*
X135783000Y-109347000D01*
X135763000Y-109347000D01*
X135763000Y-110540155D01*
X135992890Y-110661476D01*
X136402924Y-110491645D01*
X136831183Y-110101358D01*
X136892157Y-109971522D01*
X137105375Y-110290625D01*
X137596582Y-110618839D01*
X138029744Y-110705000D01*
X138322256Y-110705000D01*
X138755418Y-110618839D01*
X139246625Y-110290625D01*
X139446000Y-109992239D01*
X139645375Y-110290625D01*
X140136582Y-110618839D01*
X140569744Y-110705000D01*
X140862256Y-110705000D01*
X141295418Y-110618839D01*
X141786625Y-110290625D01*
X141986000Y-109992239D01*
X142185375Y-110290625D01*
X142676582Y-110618839D01*
X143109744Y-110705000D01*
X143402256Y-110705000D01*
X143835418Y-110618839D01*
X144326625Y-110290625D01*
X144539843Y-109971522D01*
X144600817Y-110101358D01*
X145029076Y-110491645D01*
X145439110Y-110661476D01*
X145669000Y-110540155D01*
X145669000Y-109347000D01*
X145649000Y-109347000D01*
X145649000Y-109093000D01*
X145669000Y-109093000D01*
X145669000Y-107899845D01*
X145923000Y-107899845D01*
X145923000Y-109093000D01*
X145943000Y-109093000D01*
X145943000Y-109347000D01*
X145923000Y-109347000D01*
X145923000Y-110540155D01*
X146152890Y-110661476D01*
X146562924Y-110491645D01*
X146991183Y-110101358D01*
X147052157Y-109971522D01*
X147265375Y-110290625D01*
X147756582Y-110618839D01*
X148189744Y-110705000D01*
X148482256Y-110705000D01*
X148915418Y-110618839D01*
X149265406Y-110384984D01*
X155817570Y-116937148D01*
X155967569Y-117299280D01*
X156258720Y-117590431D01*
X156639126Y-117748000D01*
X157050874Y-117748000D01*
X157431280Y-117590431D01*
X157722431Y-117299280D01*
X157880000Y-116918874D01*
X157880000Y-116507126D01*
X157722431Y-116126720D01*
X157431280Y-115835569D01*
X157069148Y-115685570D01*
X150039425Y-108655847D01*
X149990049Y-108581951D01*
X149697310Y-108386348D01*
X149544679Y-108355988D01*
X149406625Y-108149375D01*
X148915418Y-107821161D01*
X148482256Y-107735000D01*
X148189744Y-107735000D01*
X147756582Y-107821161D01*
X147265375Y-108149375D01*
X147052157Y-108468478D01*
X146991183Y-108338642D01*
X146562924Y-107948355D01*
X146152890Y-107778524D01*
X145923000Y-107899845D01*
X145669000Y-107899845D01*
X145439110Y-107778524D01*
X145029076Y-107948355D01*
X144600817Y-108338642D01*
X144539843Y-108468478D01*
X144326625Y-108149375D01*
X144016000Y-107941822D01*
X144016000Y-106811850D01*
X144030888Y-106737002D01*
X144016000Y-106662154D01*
X144016000Y-106662150D01*
X143971904Y-106440465D01*
X143971904Y-106440464D01*
X143846329Y-106252529D01*
X143803929Y-106189073D01*
X143740473Y-106146673D01*
X131070000Y-93476201D01*
X131070000Y-92643711D01*
X131187431Y-92526280D01*
X131345000Y-92145874D01*
X131345000Y-91734126D01*
X131187431Y-91353720D01*
X130896280Y-91062569D01*
X130515874Y-90905000D01*
X130104126Y-90905000D01*
X129723720Y-91062569D01*
X129432569Y-91353720D01*
X129275000Y-91734126D01*
X129275000Y-92145874D01*
X129432569Y-92526280D01*
X129550001Y-92643712D01*
X129550000Y-93716155D01*
X129535112Y-93791002D01*
X129550000Y-93865849D01*
X129550000Y-93865853D01*
X129594096Y-94087538D01*
X129762071Y-94338931D01*
X129825530Y-94381333D01*
X142496001Y-107051805D01*
X142496001Y-107941822D01*
X142185375Y-108149375D01*
X141986000Y-108447761D01*
X141786625Y-108149375D01*
X141295418Y-107821161D01*
X140862256Y-107735000D01*
X140569744Y-107735000D01*
X140349593Y-107778791D01*
X130818982Y-98248181D01*
X130985126Y-98317000D01*
X131396874Y-98317000D01*
X131777280Y-98159431D01*
X132068431Y-97868280D01*
X132226000Y-97487874D01*
X132226000Y-97076126D01*
X132068431Y-96695720D01*
X131777280Y-96404569D01*
X131396874Y-96247000D01*
X130985126Y-96247000D01*
X130604720Y-96404569D01*
X130487289Y-96522000D01*
X125722916Y-96522000D01*
X126062280Y-96381431D01*
X126353431Y-96090280D01*
X126511000Y-95709874D01*
X126511000Y-95298126D01*
X126353431Y-94917720D01*
X126236000Y-94800289D01*
X126236000Y-87450846D01*
X126250888Y-87375999D01*
X126236000Y-87301152D01*
X126236000Y-87301148D01*
X126191904Y-87079463D01*
X126120067Y-86971951D01*
X126066329Y-86891526D01*
X126066327Y-86891524D01*
X126023929Y-86828071D01*
X125960476Y-86785673D01*
X124479802Y-85305000D01*
X124606256Y-85305000D01*
X124826407Y-85261209D01*
X125266673Y-85701476D01*
X125309071Y-85764929D01*
X125372524Y-85807327D01*
X125372526Y-85807329D01*
X125497902Y-85891102D01*
X125560463Y-85932904D01*
X125782148Y-85977000D01*
X125782152Y-85977000D01*
X125856999Y-85991888D01*
X125931846Y-85977000D01*
X145848153Y-85977000D01*
X145923000Y-85991888D01*
X145997847Y-85977000D01*
X145997852Y-85977000D01*
X146219537Y-85932904D01*
X146470929Y-85764929D01*
X146513331Y-85701470D01*
X146953593Y-85261209D01*
X147173744Y-85305000D01*
X147466256Y-85305000D01*
X147899418Y-85218839D01*
X148390625Y-84890625D01*
X148504359Y-84720410D01*
X167553000Y-84720410D01*
X167553000Y-85967590D01*
X168030276Y-87119835D01*
X168912165Y-88001724D01*
X170064410Y-88479000D01*
X171311590Y-88479000D01*
X172463835Y-88001724D01*
X173345724Y-87119835D01*
X173823000Y-85967590D01*
X173823000Y-84720410D01*
X173345724Y-83568165D01*
X172463835Y-82686276D01*
X171311590Y-82209000D01*
X170064410Y-82209000D01*
X168912165Y-82686276D01*
X168030276Y-83568165D01*
X167553000Y-84720410D01*
X148504359Y-84720410D01*
X148718839Y-84399418D01*
X148834092Y-83820000D01*
X148718839Y-83240582D01*
X148390625Y-82749375D01*
X147899418Y-82421161D01*
X147466256Y-82335000D01*
X147173744Y-82335000D01*
X146740582Y-82421161D01*
X146249375Y-82749375D01*
X146036157Y-83068478D01*
X145975183Y-82938642D01*
X145546924Y-82548355D01*
X145136890Y-82378524D01*
X144907000Y-82499845D01*
X144907000Y-83693000D01*
X144927000Y-83693000D01*
X144927000Y-83947000D01*
X144907000Y-83947000D01*
X144907000Y-83967000D01*
X144653000Y-83967000D01*
X144653000Y-83947000D01*
X144633000Y-83947000D01*
X144633000Y-83693000D01*
X144653000Y-83693000D01*
X144653000Y-82499845D01*
X144423110Y-82378524D01*
X144013076Y-82548355D01*
X143584817Y-82938642D01*
X143523843Y-83068478D01*
X143310625Y-82749375D01*
X142819418Y-82421161D01*
X142386256Y-82335000D01*
X142093744Y-82335000D01*
X141660582Y-82421161D01*
X141169375Y-82749375D01*
X140970000Y-83047761D01*
X140770625Y-82749375D01*
X140279418Y-82421161D01*
X139846256Y-82335000D01*
X139553744Y-82335000D01*
X139120582Y-82421161D01*
X138629375Y-82749375D01*
X138430000Y-83047761D01*
X138230625Y-82749375D01*
X137739418Y-82421161D01*
X137306256Y-82335000D01*
X137013744Y-82335000D01*
X136580582Y-82421161D01*
X136089375Y-82749375D01*
X135890000Y-83047761D01*
X135690625Y-82749375D01*
X135199418Y-82421161D01*
X134766256Y-82335000D01*
X134473744Y-82335000D01*
X134040582Y-82421161D01*
X133549375Y-82749375D01*
X133350000Y-83047761D01*
X133150625Y-82749375D01*
X132659418Y-82421161D01*
X132226256Y-82335000D01*
X131933744Y-82335000D01*
X131500582Y-82421161D01*
X131009375Y-82749375D01*
X130810000Y-83047761D01*
X130610625Y-82749375D01*
X130119418Y-82421161D01*
X129686256Y-82335000D01*
X129393744Y-82335000D01*
X128960582Y-82421161D01*
X128469375Y-82749375D01*
X128256157Y-83068478D01*
X128195183Y-82938642D01*
X127766924Y-82548355D01*
X127356890Y-82378524D01*
X127127000Y-82499845D01*
X127127000Y-83693000D01*
X127147000Y-83693000D01*
X127147000Y-83947000D01*
X127127000Y-83947000D01*
X127127000Y-83967000D01*
X126873000Y-83967000D01*
X126873000Y-83947000D01*
X126853000Y-83947000D01*
X126853000Y-83693000D01*
X126873000Y-83693000D01*
X126873000Y-82499845D01*
X126643110Y-82378524D01*
X126233076Y-82548355D01*
X125804817Y-82938642D01*
X125743843Y-83068478D01*
X125530625Y-82749375D01*
X125039418Y-82421161D01*
X124606256Y-82335000D01*
X124313744Y-82335000D01*
X123880582Y-82421161D01*
X123389375Y-82749375D01*
X123190000Y-83047761D01*
X122990625Y-82749375D01*
X122499418Y-82421161D01*
X122066256Y-82335000D01*
X121773744Y-82335000D01*
X121340582Y-82421161D01*
X120849375Y-82749375D01*
X120650000Y-83047761D01*
X120450625Y-82749375D01*
X119959418Y-82421161D01*
X119526256Y-82335000D01*
X119233744Y-82335000D01*
X118800582Y-82421161D01*
X118309375Y-82749375D01*
X118110000Y-83047761D01*
X117910625Y-82749375D01*
X117419418Y-82421161D01*
X116986256Y-82335000D01*
X116693744Y-82335000D01*
X116260582Y-82421161D01*
X115769375Y-82749375D01*
X115570000Y-83047761D01*
X115370625Y-82749375D01*
X114879418Y-82421161D01*
X114446256Y-82335000D01*
X114153744Y-82335000D01*
X113720582Y-82421161D01*
X113229375Y-82749375D01*
X113217184Y-82767619D01*
X113208157Y-82722235D01*
X113067809Y-82512191D01*
X112857765Y-82371843D01*
X112610000Y-82322560D01*
X110910000Y-82322560D01*
X110662235Y-82371843D01*
X110452191Y-82512191D01*
X110311843Y-82722235D01*
X110262560Y-82970000D01*
X110262560Y-84670000D01*
X110311843Y-84917765D01*
X110452191Y-85127809D01*
X110662235Y-85268157D01*
X110910000Y-85317440D01*
X111000000Y-85317440D01*
X111000001Y-89190149D01*
X110985112Y-89265001D01*
X111044097Y-89561538D01*
X111163529Y-89740280D01*
X111212072Y-89812930D01*
X111275528Y-89855330D01*
X112594243Y-91174046D01*
X112406569Y-91361720D01*
X112249000Y-91742126D01*
X112249000Y-92153874D01*
X112406569Y-92534280D01*
X112697720Y-92825431D01*
X112777999Y-92858683D01*
X112777998Y-93280288D01*
X112660567Y-93397719D01*
X112502998Y-93778125D01*
X112502998Y-94189873D01*
X112660567Y-94570279D01*
X112951718Y-94861430D01*
X113332124Y-95018999D01*
X113743872Y-95018999D01*
X114124278Y-94861430D01*
X114415429Y-94570279D01*
X114572998Y-94189873D01*
X114572998Y-93778125D01*
X114415429Y-93397719D01*
X114297998Y-93280288D01*
X114297998Y-92877801D01*
X115805000Y-94384803D01*
X115805000Y-94550875D01*
X115962569Y-94931281D01*
X116107245Y-95075957D01*
X113772202Y-97411000D01*
X110812711Y-97411000D01*
X110695280Y-97293569D01*
X110314874Y-97136000D01*
X109903126Y-97136000D01*
X109522720Y-97293569D01*
X109231569Y-97584720D01*
X109074000Y-97965126D01*
X109074000Y-98376874D01*
X109231569Y-98757280D01*
X109522720Y-99048431D01*
X109903126Y-99206000D01*
X110314874Y-99206000D01*
X110695280Y-99048431D01*
X110812711Y-98931000D01*
X114012156Y-98931000D01*
X114087003Y-98945888D01*
X114161850Y-98931000D01*
X114161855Y-98931000D01*
X114383540Y-98886904D01*
X114634932Y-98718929D01*
X114677334Y-98655470D01*
X118049474Y-95283331D01*
X118112930Y-95240931D01*
X118280905Y-94989539D01*
X118325001Y-94767854D01*
X118325001Y-94767849D01*
X118339889Y-94693002D01*
X118325001Y-94618155D01*
X118325001Y-92646249D01*
X118339889Y-92571401D01*
X118325001Y-92496553D01*
X118325001Y-92496549D01*
X118280905Y-92274864D01*
X118112930Y-92023472D01*
X118049474Y-91981072D01*
X117570200Y-91501799D01*
X117570200Y-91335726D01*
X117412631Y-90955320D01*
X117295200Y-90837889D01*
X117295200Y-89857711D01*
X117412631Y-89740280D01*
X117570200Y-89359874D01*
X117570200Y-88948126D01*
X117507237Y-88796120D01*
X120398000Y-91686883D01*
X120398001Y-99673316D01*
X120317720Y-99706569D01*
X120026569Y-99997720D01*
X119869000Y-100378126D01*
X119869000Y-100789874D01*
X120026569Y-101170280D01*
X120171245Y-101314956D01*
X119757201Y-101729000D01*
X110677803Y-101729000D01*
X108711256Y-99762455D01*
X108954431Y-99519280D01*
X109112000Y-99138874D01*
X109112000Y-98727126D01*
X108954431Y-98346720D01*
X108663280Y-98055569D01*
X108282874Y-97898000D01*
X107871126Y-97898000D01*
X107490720Y-98055569D01*
X107247546Y-98298743D01*
X105275024Y-96326222D01*
X105332448Y-96314800D01*
X109329089Y-96314800D01*
X109446520Y-96432231D01*
X109826926Y-96589800D01*
X110238674Y-96589800D01*
X110619080Y-96432231D01*
X110910231Y-96141080D01*
X111067800Y-95760674D01*
X111067800Y-95348926D01*
X110910231Y-94968520D01*
X110619080Y-94677369D01*
X110238674Y-94519800D01*
X109826926Y-94519800D01*
X109446520Y-94677369D01*
X109329089Y-94794800D01*
X105572402Y-94794800D01*
X103447800Y-92670199D01*
X103447800Y-92504126D01*
X103290231Y-92123720D01*
X102999080Y-91832569D01*
X102618674Y-91675000D01*
X102206926Y-91675000D01*
X101826520Y-91832569D01*
X101535369Y-92123720D01*
X101377800Y-92504126D01*
X101377800Y-92915874D01*
X101535369Y-93296280D01*
X101826520Y-93587431D01*
X102206926Y-93745000D01*
X102372999Y-93745000D01*
X103360576Y-94732578D01*
X103303153Y-94744000D01*
X80459711Y-94744000D01*
X80342280Y-94626569D01*
X79961874Y-94469000D01*
X79550126Y-94469000D01*
X79169720Y-94626569D01*
X78878569Y-94917720D01*
X78721000Y-95298126D01*
X71770734Y-95298126D01*
X71579193Y-95147297D01*
X70967000Y-94975000D01*
X69977000Y-94975000D01*
X69723000Y-94975000D01*
X68733000Y-94975000D01*
X68120807Y-95147297D01*
X67621149Y-95540754D01*
X67310095Y-96095472D01*
X67279782Y-96221135D01*
X62103000Y-96221135D01*
X62103000Y-85228410D01*
X64429000Y-85228410D01*
X64429000Y-86475590D01*
X64906276Y-87627835D01*
X65788165Y-88509724D01*
X66940410Y-88987000D01*
X68187590Y-88987000D01*
X69339835Y-88509724D01*
X70221724Y-87627835D01*
X70699000Y-86475590D01*
X70699000Y-85228410D01*
X70221724Y-84076165D01*
X69339835Y-83194276D01*
X68187590Y-82717000D01*
X66940410Y-82717000D01*
X65788165Y-83194276D01*
X64906276Y-84076165D01*
X64429000Y-85228410D01*
X62103000Y-85228410D01*
X62103000Y-81407000D01*
X175133000Y-81407000D01*
X175133000Y-152273000D01*
G04 #@! TD*
M02*
